<?xml version="1.0" encoding="iso-8859-1"?>
<!-- Generator: Adobe Illustrator 19.0.0, SVG Export Plug-In . SVG Version: 6.00 Build 0)  -->
<svg version="1.1" id="Layer_1" xmlns="http://www.w3.org/2000/svg" xmlns:xlink="http://www.w3.org/1999/xlink" x="0px" y="0px"
	 viewBox="0 0 512 512" style="enable-background:new 0 0 512 512;" xml:space="preserve">
<path style="fill:#A3E261;" d="M412.448,366.471c0,90.985-74.082,146.164-165.215,145.524c-4.217-0.034-8.389-0.183-12.526-0.446
	h-0.011c-84.813-5.532-151.524-60.996-150.301-147.444c0.64-44.778,19.223-85.191,48.87-114.414
	c12.8-12.606,20.972-29.064,23.418-46.87c0.08-0.526,0.149-0.994,0.229-1.406c8.709-45.475,46.367-79.682,91.499-79.682h0.48
	c44.915,0.24,82.345,34.367,91.019,79.682c0.046,0.206,0.08,0.423,0.114,0.663c2.949,18.389,11.395,35.429,24.549,48.618
	C394.15,280.354,412.448,321.271,412.448,366.471z"/>
<path style="fill:#93CC52;" d="M248.89,121.733l-1.143,34.801c0,0-15.629,11.835-17.372,41.167
	c-4.572,76.954-64.573,104.383-64.573,182.099s28.001,108.194,68.916,131.737l-0.011,0.011h-0.011
	c-84.814-5.532-151.524-60.996-150.301-147.444c0.64-44.778,19.223-85.191,48.87-114.414c12.8-12.606,20.972-29.064,23.418-46.87
	c0.08-0.526,0.149-0.994,0.229-1.406c8.709-45.475,46.367-79.682,91.499-79.682L248.89,121.733L248.89,121.733z"/>
<path style="fill:#B25719;" d="M246.627,154.299c-0.495,0-0.995-0.043-1.498-0.131c-4.661-0.822-7.773-5.265-6.953-9.926l0,0
	c0.136-0.778,13.257-78.168-19.014-110.439c-3.348-3.348-3.348-8.775,0-12.121c3.348-3.348,8.775-3.348,12.121,0
	c38.585,38.585,24.399,122.002,23.777,125.533C254.325,151.373,250.708,154.299,246.627,154.299z"/>
<path style="fill:#93CC52;" d="M228.496,141.119c5.048-0.051,8.389-0.114,11.401-0.314c2.96-0.17,5.391-0.28,7.845-0.283
	c2.453-0.017,4.88,0.095,7.834,0.262c3.009,0.199,6.348,0.271,11.411,0.337c0.015,5.097-2.673,9.214-6.25,12.135
	c-3.626,2.896-8.321,4.42-12.995,4.407c-4.673-0.008-9.364-1.53-12.985-4.43C231.184,150.309,228.497,146.201,228.496,141.119z"/>
<path style="fill:#B25719;" d="M276.431,69.153c-30.046,0-43.912-20.309-44.6-21.349c-1.917-2.895-1.125-6.794,1.769-8.712
	c2.885-1.91,6.768-1.129,8.692,1.741c0.693,1.014,16.202,22.948,51.618,13.223c3.348-0.922,6.807,1.049,7.726,4.398
	c0.919,3.348-1.049,6.807-4.398,7.726C289.589,68.279,282.661,69.153,276.431,69.153z"/>
<path style="fill:#2FCC6E;" d="M384.905,76.859l42.718-45.119L371.103,5.929c-34.697-15.846-75.534,1.263-88.576,37.108
	l-1.178,3.239c-3.354,9.221-1.347,19.541,5.221,26.832l2.307,2.561C314.406,104.009,358.68,104.558,384.905,76.859z"/>
<g>
</g>
<g>
</g>
<g>
</g>
<g>
</g>
<g>
</g>
<g>
</g>
<g>
</g>
<g>
</g>
<g>
</g>
<g>
</g>
<g>
</g>
<g>
</g>
<g>
</g>
<g>
</g>
<g>
</g>
</svg>
