<?xml version="1.0" encoding="iso-8859-1"?>
<!-- Generator: Adobe Illustrator 19.0.0, SVG Export Plug-In . SVG Version: 6.00 Build 0)  -->
<svg version="1.1" id="Capa_1" xmlns="http://www.w3.org/2000/svg" xmlns:xlink="http://www.w3.org/1999/xlink" x="0px" y="0px"
	 viewBox="0 0 512 512" style="enable-background:new 0 0 512 512;" xml:space="preserve">
<path style="fill:#64D19B;" d="M474.169,218.169C474.169,97.678,376.491,0,256,0S37.831,97.678,37.831,218.169S135.509,512,256,512
	S474.169,338.66,474.169,218.169z"/>
<path style="opacity:0.1;enable-background:new    ;" d="M162.902,20.819C88.98,55.753,37.831,130.983,37.831,218.169
	C37.831,338.66,135.509,512,256,512c25.367,0,49.722-7.684,72.368-20.939C95.807,471.282,46.446,141.712,162.902,20.819z"/>
<ellipse transform="matrix(-0.7071 -0.7071 0.7071 -0.7071 85.9437 464.6425)" style="fill:#5C626B;" cx="139.202" cy="214.522" rx="68.884" ry="50.41"/>
<path style="fill:#494F57;" d="M256,293.861c-11.368,0-22.18-4.924-29.662-13.51c-2.721-3.123-2.396-7.86,0.727-10.582
	c3.123-2.721,7.86-2.396,10.582,0.727c4.633,5.316,11.322,8.365,18.354,8.365c7.031,0,13.721-3.049,18.353-8.365
	c2.722-3.123,7.459-3.447,10.582-0.727c3.123,2.722,3.448,7.459,0.727,10.582C278.18,288.937,267.368,293.861,256,293.861z"/>
<ellipse transform="matrix(-0.7071 0.7071 -0.7071 -0.7071 788.0955 102.6064)" style="fill:#5C626B;" cx="372.797" cy="214.523" rx="68.884" ry="50.41"/>
<path style="opacity:0.15;enable-background:new    ;" d="M96.618,160.865c-2.187,1.419-4.237,3.064-6.119,4.946
	c-19.685,19.685-13.835,57.45,13.067,84.351c24.953,24.953,59.243,31.778,79.79,16.928
	C114.093,275.597,92.457,182.328,96.618,160.865z"/>
<path style="opacity:0.15;enable-background:new    ;" d="M335.306,180.79c-25.306,26.753-30.448,63.215-11.224,82.439
	c19.456,19.456,56.568,13.953,83.403-12.153C319.7,290.294,324.128,211.25,335.306,180.79z"/>
<g>
</g>
<g>
</g>
<g>
</g>
<g>
</g>
<g>
</g>
<g>
</g>
<g>
</g>
<g>
</g>
<g>
</g>
<g>
</g>
<g>
</g>
<g>
</g>
<g>
</g>
<g>
</g>
<g>
</g>
</svg>
