<?xml version="1.0" encoding="iso-8859-1"?>
<!-- Generator: Adobe Illustrator 19.0.0, SVG Export Plug-In . SVG Version: 6.00 Build 0)  -->
<svg version="1.1" id="Capa_1" xmlns="http://www.w3.org/2000/svg" xmlns:xlink="http://www.w3.org/1999/xlink" x="0px" y="0px"
	 viewBox="0 0 511.999 511.999" style="enable-background:new 0 0 511.999 511.999;" xml:space="preserve">
<path style="fill:#DBD9DC;" d="M511.309,119.148c0,0,16,125.134-106.016,99.529L380.411,185.5L511.309,119.148z"/>
<path style="fill:#C9C6CA;" d="M405.327,218.683c35.532-41.613,83.285-73.465,106.656-87.69
	C512.373,161.553,503.952,239.36,405.327,218.683z"/>
<path style="fill:#DBD9DC;" d="M0.691,119.148c0,0-16,125.134,106.016,99.529l24.882-33.176L0.691,119.148z"/>
<path style="fill:#C9C6CA;" d="M106.673,218.683c-35.532-41.613-83.285-73.465-106.656-87.69
	C-0.373,161.553,8.048,239.36,106.673,218.683z"/>
<path style="fill:#F5DCB4;" d="M438.47,11.325c0,0,41.47,82.941-49.764,140.999L355.53,102.56
	C423.325,83.579,438.47,11.325,438.47,11.325z"/>
<g>
	<path style="fill:#FAEBC8;" d="M388.705,152.324l-12.957-19.436C447.212,88.271,438.47,11.325,438.47,11.325
		S479.94,94.265,388.705,152.324z"/>
	<path style="fill:#FAEBC8;" d="M73.53,11.325c0,0-41.47,82.941,49.764,140.999l33.176-49.764
		C88.675,83.579,73.53,11.325,73.53,11.325z"/>
</g>
<path style="fill:#F5DCB4;" d="M123.295,152.324l12.957-19.436C64.788,88.271,73.53,11.325,73.53,11.325
	S32.06,94.265,123.295,152.324z"/>
<path style="fill:#EDEBED;" d="M256,44.501c-95.944,0-169.313,85.52-154.724,180.348l20.95,136.178
	c5.957,38.72,27.958,71.495,58.609,91.982l150.52-0.129c30.552-20.495,52.474-53.214,58.418-91.854l20.95-136.178
	C425.313,130.02,351.944,44.501,256,44.501z"/>
<path style="fill:#DBD9DC;" d="M182.892,371.664l-20.463-149.08c-10.275-74.859,24.129-144.404,79.253-177.383
	c-88.785,8.007-154.26,89.602-140.406,179.648l20.95,136.178c5.957,38.72,27.958,71.495,58.609,91.982l38.425-0.033
	C200.381,431.453,187.246,403.384,182.892,371.664z"/>
<path style="fill:#FF96A0;" d="M289.987,500.675h-67.973c-25.626,0-45.119-23.011-40.906-48.288l1.61-9.658
	c3.999-23.996,24.761-41.583,49.087-41.583h48.392c24.327,0,45.088,17.587,49.087,41.583l1.61,9.658
	C335.106,477.665,315.613,500.675,289.987,500.675z"/>
<path style="fill:#FF8087;" d="M231.692,460.927l1.609-11.267c3.923-27.459,23.982-47.675,47.704-48.441
	c-0.275-0.005-0.534-0.073-0.809-0.073h-48.392c-24.327,0-45.088,17.587-49.087,41.583l-1.61,9.657
	c-4.213,25.278,15.28,48.288,40.906,48.288h19.363C233.562,490.228,229.549,475.93,231.692,460.927z"/>
<g>
	<path style="fill:#A5465A;" d="M214.53,459.205c-4.584,0-8.294-3.714-8.294-8.294c0-7.905,2.892-15.499,8.359-21.954
		c2.948-3.491,8.173-3.936,11.688-0.968c3.491,2.96,3.928,8.193,0.964,11.692c-2.932,3.467-4.422,7.245-4.422,11.23
		C222.824,455.491,219.114,459.205,214.53,459.205z"/>
	<path style="fill:#A5465A;" d="M297.47,459.205c-4.584,0-8.294-3.714-8.294-8.294c0-3.985-1.49-7.764-4.422-11.23
		c-2.965-3.499-2.527-8.731,0.964-11.692c3.515-2.969,8.748-2.523,11.688,0.968c5.467,6.455,8.359,14.049,8.359,21.954
		C305.764,455.491,302.055,459.205,297.47,459.205z"/>
</g>
<path style="fill:#4B3F4E;" d="M164.765,260.147L164.765,260.147c-13.742,0-24.882-11.14-24.882-24.882v-8.294
	c0-13.742,11.14-24.882,24.882-24.882l0,0c13.742,0,24.882,11.14,24.882,24.882v8.294
	C189.647,249.007,178.507,260.147,164.765,260.147z"/>
<path style="fill:#5D5360;" d="M164.765,202.088v29.029c0,6.871,5.57,12.441,12.441,12.441s12.441-5.57,12.441-12.441v-4.147
	C189.647,213.229,178.507,202.088,164.765,202.088z"/>
<circle style="fill:#FFFFFF;" cx="164.76" cy="218.68" r="8.294"/>
<path style="fill:#4B3F4E;" d="M347.235,260.147L347.235,260.147c-13.742,0-24.882-11.14-24.882-24.882v-8.294
	c0-13.742,11.14-24.882,24.882-24.882l0,0c13.742,0,24.882,11.14,24.882,24.882v8.294
	C372.117,249.007,360.977,260.147,347.235,260.147z"/>
<path style="fill:#5D5360;" d="M347.235,202.088v29.029c0,6.871,5.57,12.441,12.441,12.441s12.441-5.57,12.441-12.441v-4.147
	C372.117,213.229,360.977,202.088,347.235,202.088z"/>
<circle style="fill:#FFFFFF;" cx="347.24" cy="218.68" r="8.294"/>
<path style="fill:#DBD9DC;" d="M381.451,107.477C353.109,69.525,307.872,44.501,256,44.501c-60.797,0-112.491,34.361-138.522,83.648
	c25.571,1.31,90.857,2.39,130.228-17.295l-8.294,33.176c0,0,58.059-8.294,91.235-33.176c0,0,6.221,15.551,8.294,34.731
	C338.941,145.585,367.97,136.773,381.451,107.477z"/>
<path style="fill:#C9C6CA;" d="M241.645,45.225c-54.508,4.934-100.215,37.572-124.167,82.924c12.109,0.62,33.147,1.16,56.097-0.503
	C187.366,92.595,211.342,63.367,241.645,45.225z"/>
<g>
</g>
<g>
</g>
<g>
</g>
<g>
</g>
<g>
</g>
<g>
</g>
<g>
</g>
<g>
</g>
<g>
</g>
<g>
</g>
<g>
</g>
<g>
</g>
<g>
</g>
<g>
</g>
<g>
</g>
</svg>
