<?xml version="1.0" encoding="iso-8859-1"?>
<!-- Generator: Adobe Illustrator 19.0.0, SVG Export Plug-In . SVG Version: 6.00 Build 0)  -->
<svg version="1.1" id="Capa_1" xmlns="http://www.w3.org/2000/svg" xmlns:xlink="http://www.w3.org/1999/xlink" x="0px" y="0px"
	 viewBox="0 0 512 512" style="enable-background:new 0 0 512 512;" xml:space="preserve">
<path style="fill:#965A50;" d="M503.483,1.656c6.686,0.216,10.641,7.587,7.319,13.393c-5.278,9.226-10.274,24.223-7.959,46.505
	c5.69,54.775-7.826,98.879-67.58,133.025L332.827,83.607C353.585,61.182,422.779-0.947,503.483,1.656z"/>
<path style="fill:#824D51;" d="M510.091,5.129c2.067,2.718,2.632,6.562,0.711,9.92c-5.278,9.226-10.274,24.223-7.959,46.505
	c5.69,54.775-7.826,98.879-67.58,133.025l-56.098-60.773C413.475,49.175,469.61,14.745,510.091,5.129z"/>
<path style="fill:#965A50;" d="M8.517,1.656C1.832,1.872-2.124,9.243,1.198,15.049c5.278,9.226,10.274,24.223,7.959,46.505
	c-5.689,54.775,7.826,98.879,67.58,133.025L179.173,83.607C158.415,61.182,89.221-0.947,8.517,1.656z"/>
<path style="fill:#824D51;" d="M1.909,5.129c-2.067,2.718-2.632,6.562-0.711,9.92c5.278,9.226,10.274,24.223,7.959,46.505
	c-5.689,54.775,7.826,98.879,67.58,133.025l56.098-60.773C98.525,49.175,42.39,14.745,1.909,5.129z"/>
<path style="fill:#AF6E5A;" d="M473.676,303.404c0,115.505-89.631,207.019-217.676,207.019S38.324,418.909,38.324,303.404
	S145.028,49.462,256,49.462S473.676,187.899,473.676,303.404z"/>
<path style="fill:#965A50;" d="M110.882,307.748c0-91.937,48.154-196.059,113.38-254.581
	C125.533,75.844,38.324,198.984,38.324,303.404c0,95.101,60.793,173.886,153.729,198.772
	C141.341,457.547,110.882,387.498,110.882,307.748z"/>
<path style="fill:#4B3F4E;" d="M162.1,271.406L162.1,271.406c-14.143,0-25.609-11.466-25.609-25.609v-8.536
	c0-14.143,11.466-25.609,25.609-25.609l0,0c14.143,0,25.609,11.466,25.609,25.609v8.536
	C187.709,259.94,176.244,271.406,162.1,271.406z"/>
<path style="fill:#5D5360;" d="M162.1,211.652v29.877c0,7.072,5.733,12.804,12.804,12.804s12.804-5.733,12.804-12.804v-4.268
	C187.709,223.117,176.244,211.652,162.1,211.652z"/>
<circle style="fill:#FFFFFF;" cx="162.1" cy="228.72" r="8.536"/>
<path style="fill:#4B3F4E;" d="M349.9,271.406L349.9,271.406c-14.143,0-25.609-11.466-25.609-25.609v-8.536
	c0-14.143,11.466-25.609,25.609-25.609l0,0c14.143,0,25.609,11.466,25.609,25.609v8.536
	C375.509,259.94,364.043,271.406,349.9,271.406z"/>
<path style="fill:#5D5360;" d="M349.9,211.652v29.877c0,7.072,5.733,12.804,12.805,12.804s12.804-5.733,12.804-12.804v-4.268
	C375.509,223.117,364.043,211.652,349.9,211.652z"/>
<circle style="fill:#FFFFFF;" cx="349.9" cy="228.72" r="8.536"/>
<path style="fill:#C9C6CA;" d="M18.539,296.703c5.359,35.404,29.175,115.846,135.025,131.558l17.073-62.955
	c0,0-96.368-14.826-144.037-72.109C23.594,289.585,17.835,292.058,18.539,296.703z"/>
<path style="fill:#AEA8AF;" d="M153.564,428.261l6.592-24.309v-0.001C68.715,386.89,32.426,319.453,21.203,291.847
	c-1.74,0.742-3.018,2.523-2.664,4.856C23.898,332.107,47.714,412.549,153.564,428.261z"/>
<path style="fill:#C9C6CA;" d="M493.461,296.703c-5.359,35.404-29.175,115.846-135.025,131.558l-17.073-62.955
	c0,0,96.368-14.826,144.037-72.109C488.406,289.585,494.165,292.058,493.461,296.703z"/>
<path style="fill:#AEA8AF;" d="M358.436,428.261l-6.592-24.309v-0.001c91.441-17.062,127.73-84.499,138.953-112.104
	c1.74,0.742,3.018,2.523,2.664,4.856C488.102,332.107,464.286,412.549,358.436,428.261z"/>
<path style="fill:#6F6571;" d="M362.8,417.69c0,58.763-74.715,40.185-106.726,40.185c-31.344,0-106.682,18.579-106.682-40.184
	c0-60.017,47.711-102.145,106.643-102.145C314.965,315.545,362.8,357.673,362.8,417.69z"/>
<g>
	<path style="fill:#4B3F4E;" d="M234.613,414.543c-5.907,11.598-17.937,16.87-26.87,11.775c-8.933-5.094-11.386-18.625-5.479-30.223
		s17.937-16.87,26.87-11.775S240.52,402.946,234.613,414.543z"/>
	<path style="fill:#4B3F4E;" d="M277.387,414.543c5.907,11.598,17.937,16.87,26.87,11.775c8.933-5.094,11.386-18.625,5.479-30.223
		c-5.907-11.598-17.937-16.87-26.87-11.775S271.48,402.946,277.387,414.543z"/>
</g>
<g>
</g>
<g>
</g>
<g>
</g>
<g>
</g>
<g>
</g>
<g>
</g>
<g>
</g>
<g>
</g>
<g>
</g>
<g>
</g>
<g>
</g>
<g>
</g>
<g>
</g>
<g>
</g>
<g>
</g>
</svg>
