<?xml version="1.0" encoding="iso-8859-1"?>
<!-- Generator: Adobe Illustrator 21.0.0, SVG Export Plug-In . SVG Version: 6.00 Build 0)  -->
<svg xmlns="http://www.w3.org/2000/svg" xmlns:xlink="http://www.w3.org/1999/xlink" version="1.1" id="Capa_1" x="0px" y="0px" viewBox="0 0 508.424 508.424" style="enable-background:new 0 0 508.424 508.424;" xml:space="preserve" width="512" height="512">
<g>
	<path style="fill:#464649;" d="M254.212,150.256c-4.143,0-7.5-3.358-7.5-7.5V26.871c0-4.142,3.357-7.5,7.5-7.5s7.5,3.358,7.5,7.5   v115.885C261.712,146.898,258.354,150.256,254.212,150.256z"/>
	<path style="fill:#E0E0E0;" d="M489.642,257.146c-7.872-34.484-27.421-65.621-55.044-87.675   c-27.636-22.064-62.327-34.215-97.685-34.215h-165.4c-35.358,0-70.05,12.151-97.685,34.215   c-27.623,22.054-47.172,53.191-55.044,87.675C5.712,314.398-0.593,362.009,0.044,398.656c0.894,51.503,15.774,81.456,44.229,89.027   c26.292,6.999,56.751-12.851,90.534-58.984c19.441-26.549,34.188-53.899,39.503-64.17h159.805   c5.315,10.271,20.063,37.621,39.503,64.17c29.377,40.118,56.236,60.356,80.031,60.353c3.568,0,7.073-0.457,10.503-1.369   c28.454-7.571,43.335-37.524,44.229-89.027C509.017,362.009,502.712,314.398,489.642,257.146z"/>
	<g>
		<path style="fill:#C4C4C4;" d="M489.642,257.146c-7.872-34.484-27.421-65.621-55.044-87.675    c-27.636-22.064-62.327-34.215-97.685-34.215h-31.898c35.358,0,70.05,12.151,97.686,34.215    c27.623,22.054,47.172,53.191,55.044,87.675c13.07,57.252,19.375,104.863,18.738,141.51    c-0.839,48.359-14.012,77.716-39.171,87.388c5.594,2.001,11.042,3.009,16.338,3.009c3.568,0,7.073-0.457,10.503-1.369    c28.454-7.571,43.335-37.524,44.229-89.027C509.017,362.009,502.712,314.398,489.642,257.146z"/>
		<path style="fill:#C4C4C4;" d="M102.908,428.699c-22.844,31.195-44.165,50.355-63.709,57.339c1.641,0.631,3.331,1.181,5.073,1.645    c26.292,6.999,56.751-12.851,90.534-58.984c19.441-26.549,34.188-53.899,39.503-64.17h-16.965    c-9.071,0-17.426,4.907-21.836,12.833C128.134,390.619,116.702,409.861,102.908,428.699z"/>
	</g>
	<path style="fill:#FF3D43;" d="M195.298,229.66h-15.015v-15.014c0-14.896-12.119-27.016-27.016-27.016   c-14.898,0-27.017,12.12-27.017,27.016v15.014h-15.014c-14.897,0-27.017,12.119-27.017,27.016s12.119,27.016,27.017,27.016h15.014   v15.015c0,14.896,12.119,27.016,27.017,27.016c14.896,0,27.016-12.119,27.016-27.016v-15.015h15.015   c14.896,0,27.016-12.119,27.016-27.016S210.194,229.66,195.298,229.66z"/>
	<path style="fill:#D72E2E;" d="M195.298,229.66h-15.015v-15.014c0-14.896-12.119-27.016-27.016-27.016   c-3.58,0-6.996,0.706-10.126,1.976c9.893,4.015,16.891,13.723,16.891,25.04v15.014h15.015c14.897,0,27.016,12.119,27.016,27.016   s-12.119,27.016-27.016,27.016h-15.015v15.015c0,11.317-6.998,21.025-16.891,25.04c3.129,1.27,6.546,1.976,10.126,1.976   c14.896,0,27.016-12.119,27.016-27.016v-15.015h15.015c14.896,0,27.016-12.119,27.016-27.016S210.194,229.66,195.298,229.66z"/>
	<g>
		<path style="fill:#464649;" d="M401.504,240.337c-8.614,0-15.623,7.009-15.623,15.624c0,8.615,7.009,15.623,15.623,15.623    s15.623-7.009,15.623-15.623C417.127,247.345,410.118,240.337,401.504,240.337z"/>
		<path style="fill:#464649;" d="M323.545,240.337c-8.615,0-15.624,7.009-15.624,15.624c0,8.615,7.009,15.623,15.624,15.623    c8.614,0,15.623-7.009,15.623-15.623C339.168,247.345,332.159,240.337,323.545,240.337z"/>
		<path style="fill:#464649;" d="M362.524,279.316c-8.615,0-15.624,7.009-15.624,15.624c0,8.615,7.009,15.624,15.624,15.624    c8.614,0,15.623-7.009,15.623-15.624C378.147,286.325,371.139,279.316,362.524,279.316z"/>
		<path style="fill:#464649;" d="M362.524,201.357c-8.615,0-15.624,7.009-15.624,15.624s7.009,15.623,15.624,15.623    c8.614,0,15.623-7.009,15.623-15.623S371.139,201.357,362.524,201.357z"/>
	</g>
</g>















</svg>
