<?xml version="1.0" encoding="iso-8859-1"?>
<!-- Generator: Adobe Illustrator 19.0.0, SVG Export Plug-In . SVG Version: 6.00 Build 0)  -->
<svg version="1.1" id="Capa_1" xmlns="http://www.w3.org/2000/svg" xmlns:xlink="http://www.w3.org/1999/xlink" x="0px" y="0px"
	 viewBox="0 0 512 512" style="enable-background:new 0 0 512 512;" xml:space="preserve">
<path style="fill:#A56247;" d="M512,389.953c0,37.157-5.201,73.098-14.908,107.14C463.051,506.8,427.109,512,389.953,512
	C174.588,512,0,337.412,0,122.047c0-37.157,5.202-73.098,14.908-107.14C48.949,5.202,84.891,0,122.047,0
	C337.412,0,512,174.588,512,389.953z"/>
<path style="fill:#8C4D37;" d="M123.814,106.375c0-36.754,5.097-72.317,14.601-106.031C132.987,0.119,127.532,0,122.048,0
	C84.892,0,48.95,5.202,14.908,14.908C5.202,48.95,0,84.891,0,122.047C0,337.412,174.588,512,389.953,512
	c37.157,0,73.098-5.201,107.14-14.908c0.105-0.368,0.202-0.74,0.306-1.109C289.626,487.404,123.814,316.256,123.814,106.375z"/>
<g>
	<path style="fill:#EAEAE4;" d="M223.724,13.395c-25.025,40.114-56.351,79.726-93.477,116.851c-1.776,1.776-3.563,3.542-5.36,5.298
		c-35.579,34.816-73.31,64.355-111.491,88.179c-4.817-17.836-8.38-36.185-10.616-54.941c31.65-19.759,62.913-44.481,92.212-73.791
		c11.16-11.16,21.661-22.612,31.472-34.252c15.945-18.923,30.083-38.369,42.318-57.96C187.539,5.014,205.888,8.578,223.724,13.395z"
		/>
	<path style="fill:#EAEAE4;" d="M509.222,343.217c-31.66,19.749-62.913,44.481-92.223,73.791
		c-16.896,16.896-32.266,34.429-46.038,52.328c-10.125,13.145-19.393,26.478-27.752,39.884c-18.756-2.236-37.104-5.81-54.941-10.616
		c10.794-17.283,22.747-34.482,35.84-51.43c17.272-22.371,36.519-44.293,57.647-65.421c37.125-37.125,76.748-68.462,116.851-93.477
		C503.412,306.112,506.986,324.461,509.222,343.217z"/>
</g>
<g>
	<path style="fill:#B3B3B3;" d="M123.811,106.37c0,9.812,0.366,19.54,1.076,29.174c-35.579,34.816-73.31,64.355-111.491,88.179
		c-4.817-17.836-8.38-36.185-10.616-54.941c31.65-19.759,62.913-44.481,92.212-73.791c11.16-11.16,21.661-22.612,31.472-34.252
		C124.71,75.702,123.811,90.926,123.811,106.37z"/>
	<path style="fill:#B3B3B3;" d="M370.961,469.336c-10.125,13.145-19.393,26.478-27.752,39.884
		c-18.756-2.236-37.104-5.81-54.941-10.616c10.794-17.283,22.747-34.482,35.84-51.43
		C339.144,455.564,354.786,462.972,370.961,469.336z"/>
</g>
<path style="fill:#4D4D4D;" d="M159.132,179.474l173.395,173.395c4.755,4.755,12.466,4.755,17.221,0l0,0
	c4.755-4.755,4.755-12.466,0-17.221L176.353,162.253c-4.755-4.755-12.466-4.755-17.221,0l0,0
	C154.376,167.008,154.376,174.718,159.132,179.474z"/>
<g>
	<path style="fill:#723A2A;" d="M155.019,226.289c-2.005,0-4.011-0.765-5.541-2.296c-3.061-3.061-3.061-8.022,0-11.082
		l60.313-60.313c3.061-3.061,8.023-3.061,11.082,0c3.061,3.061,3.061,8.022,0,11.082l-60.313,60.313
		C159.03,225.524,157.024,226.289,155.019,226.289z"/>
	<path style="fill:#723A2A;" d="M293.547,364.818c-2.006,0-4.011-0.765-5.542-2.296c-3.06-3.061-3.06-8.023,0-11.082l60.314-60.313
		c3.063-3.06,8.024-3.059,11.083,0c3.06,3.06,3.06,8.023,0,11.082l-60.314,60.313C297.559,364.053,295.553,364.818,293.547,364.818z
		"/>
	<path style="fill:#723A2A;" d="M247.371,318.642c-2.005,0-4.011-0.765-5.541-2.296c-3.061-3.06-3.061-8.022,0-11.082l60.313-60.313
		c3.062-3.061,8.023-3.059,11.083,0c3.06,3.061,3.06,8.022,0,11.082l-60.314,60.313
		C251.383,317.877,249.376,318.642,247.371,318.642z"/>
	<path style="fill:#723A2A;" d="M201.195,272.465c-2.005,0-4.011-0.765-5.541-2.296c-3.061-3.061-3.061-8.023,0-11.082
		l60.313-60.313c3.059-3.061,8.022-3.061,11.083,0c3.06,3.061,3.06,8.022,0,11.082l-60.313,60.313
		C205.206,271.701,203.201,272.465,201.195,272.465z"/>
</g>
<g>
	<path style="fill:#A56247;" d="M267.56,472.92c-3.145,0-6.033-1.937-7.241-4.838c-1.33-3.196-0.327-7.05,2.415-9.172
		c5.371-4.156,13.468,0.317,12.599,7.137C274.84,469.922,271.477,472.92,267.56,472.92z"/>
	<path style="fill:#A56247;" d="M53.209,248.8c-3.08,0-5.951-1.868-7.179-4.696c-1.381-3.179-0.479-7.027,2.228-9.214
		c5.461-4.413,13.863,0.37,12.679,7.368C60.306,245.983,56.997,248.8,53.209,248.8z"/>
	<path style="fill:#A56247;" d="M66.95,281.714c-3.354,0-6.383-2.202-7.441-5.376c-1.043-3.132,0.063-6.721,2.707-8.704
		c5.548-4.161,13.679,0.702,12.448,7.587C74.002,278.924,70.731,281.714,66.95,281.714z"/>
	<path style="fill:#A56247;" d="M82.623,226.857c-3.421,0-6.499-2.289-7.501-5.558c-0.995-3.248,0.31-6.912,3.144-8.789
		c5.914-3.917,13.823,1.743,11.899,8.605C89.226,224.466,86.116,226.857,82.623,226.857z"/>
</g>
<g>
</g>
<g>
</g>
<g>
</g>
<g>
</g>
<g>
</g>
<g>
</g>
<g>
</g>
<g>
</g>
<g>
</g>
<g>
</g>
<g>
</g>
<g>
</g>
<g>
</g>
<g>
</g>
<g>
</g>
</svg>
