<?xml version="1.0" encoding="iso-8859-1"?>
<!-- Generator: Adobe Illustrator 19.0.0, SVG Export Plug-In . SVG Version: 6.00 Build 0)  -->
<svg version="1.1" id="Capa_1" xmlns="http://www.w3.org/2000/svg" xmlns:xlink="http://www.w3.org/1999/xlink" x="0px" y="0px"
	 viewBox="0 0 511.999 511.999" style="enable-background:new 0 0 511.999 511.999;" xml:space="preserve">
<g>
	<path style="fill:#EBAF4B;" d="M152.329,89.375l175.65,15.968c10.022-41.042,43.007-76.507,62.65-94.669
		c4.432-4.098,0.923-11.442-5.055-10.609C341.546,6.204,234.194,26.898,152.329,89.375z"/>
	<path style="fill:#EBAF4B;" d="M152.329,422.623l175.65-15.968c10.022,41.042,43.007,76.507,62.65,94.669
		c4.432,4.098,0.923,11.442-5.055,10.609C341.546,505.794,234.194,485.1,152.329,422.623z"/>
</g>
<path style="fill:#FFDC64;" d="M493.44,242.826l14.964-44.893c2.185-6.554-4.4-12.613-10.75-9.892l-60.482,25.921
	c-9.003,3.858-19.606-0.771-22.406-10.157c-22.611-75.794-93.167-131.094-176.754-131.094
	c-144.417,0-173.529,100.29-230.823,171.824c-5.363,6.696-5.363,16.23,0,22.926c57.295,71.534,86.406,171.824,230.823,171.824
	c83.587,0,154.142-55.3,176.754-131.094c2.8-9.386,13.404-14.015,22.406-10.157l60.482,25.921c6.35,2.722,12.935-3.337,10.75-9.892
	L493.44,269.17C490.59,260.621,490.59,251.377,493.44,242.826z"/>
<path style="fill:#FFC850;" d="M103.73,142.486c0-8.398,0.438-16.69,1.175-24.897C63.616,153.18,40.009,203.558,7.192,244.531
	c-5.365,6.699-5.365,16.236,0,22.935c57.292,71.533,86.405,171.82,230.82,171.82c34.449,0,66.607-9.509,94.185-25.858
	C202.496,391.338,103.73,278.481,103.73,142.486z"/>
<circle style="fill:#4B3F4E;" cx="76.649" cy="243.499" r="20.828"/>
<circle style="fill:#FFFFFF;" cx="80.859" cy="239.289" r="8.331"/>
<path style="fill:#00C3FF;" d="M173.562,255.951c0-66.993,7.058-128.854,18.945-179.385c-15.61,2.791-29.575,7.004-42.146,12.412
	c-18.12,47.179-28.869,104.722-28.869,167c0,62.302,10.76,119.861,28.893,167.051c12.573,5.406,26.539,9.618,42.151,12.407
	C180.633,384.886,173.562,322.992,173.562,255.951z"/>
<path style="fill:#00AAF0;" d="M121.822,240.666c-0.145,5.088-0.33,10.157-0.33,15.313c0,62.302,10.76,119.861,28.893,167.051
	c12.573,5.406,26.539,9.618,42.151,12.407c-7.455-31.659-13.011-67.771-16.125-106.806
	C153.03,303.257,134.378,273.474,121.822,240.666z"/>
<path style="fill:#00C3FF;" d="M224.52,256.007c0,69.539,8.004,133.203,21.255,182.959c15.441-0.639,30.371-3.148,44.601-7.337
	c-10.754-47.981-17.244-109.008-17.244-175.627c0-66.623,6.493-127.649,17.248-175.631c-14.228-4.19-29.156-6.697-44.596-7.338
	C232.53,122.791,224.52,186.458,224.52,256.007z"/>
<path style="fill:#00AAF0;" d="M245.775,438.966c15.441-0.639,30.371-3.148,44.601-7.337c-2.182-9.736-4.137-20.137-5.949-30.884
	c-18.126-6.613-35.351-15.088-51.466-25.175C236.353,398.452,240.661,419.764,245.775,438.966z"/>
<path style="fill:#00C3FF;" d="M383.729,368.054c-8.356-32.419-13.236-70.852-13.236-112.15c0-41.239,4.871-79.613,13.204-112.003
	c-10.708-13.74-23.302-25.921-37.452-36.153c-12.724,42.637-20.186,93.386-20.186,147.998c0,54.791,7.509,105.694,20.31,148.417
	C360.485,393.939,373.044,381.772,383.729,368.054z"/>
<g>
</g>
<g>
</g>
<g>
</g>
<g>
</g>
<g>
</g>
<g>
</g>
<g>
</g>
<g>
</g>
<g>
</g>
<g>
</g>
<g>
</g>
<g>
</g>
<g>
</g>
<g>
</g>
<g>
</g>
</svg>
