<?xml version="1.0" encoding="iso-8859-1"?>
<!-- Generator: Adobe Illustrator 19.0.0, SVG Export Plug-In . SVG Version: 6.00 Build 0)  -->
<svg version="1.1" id="Capa_1" xmlns="http://www.w3.org/2000/svg" xmlns:xlink="http://www.w3.org/1999/xlink" x="0px" y="0px"
	 viewBox="0 0 511.999 511.999" style="enable-background:new 0 0 511.999 511.999;" xml:space="preserve">
<circle style="fill:#455256;" cx="255.999" cy="255.999" r="255.999"/>
<path style="fill:#333F42;" d="M180.657,437.02c-99.974-99.974-99.974-262.064,0-362.038c36.471-36.471,81.21-59.62,128.181-69.482
	c-81.789-17.171-170.354,5.978-233.857,69.482c-99.974,99.974-99.974,262.064,0,362.038
	c63.503,63.504,152.068,86.653,233.857,69.482C261.866,496.639,217.127,473.489,180.657,437.02z"/>
<ellipse transform="matrix(-0.7071 -0.7071 0.7071 -0.7071 406.1868 555.8401)" style="fill:#EAEAE4;" cx="318.212" cy="193.796" rx="131.107" ry="120.86"/>
<path style="fill:#4D4D4D;" d="M324.976,130.907c12.967,12.967,14.951,25.934,10.069,37.528
	c14.035-6.103,29.749-4.119,45.462,11.593l1.831,1.831c22.731,22.731,17.086,45.767-1.373,64.226
	c-18.612,18.612-41.648,24.257-64.378,1.526l-1.831-1.831c-15.713-15.713-17.696-31.426-11.442-45.615
	c-11.747,5.035-24.713,3.051-37.681-9.916c-19.985-19.985-14.188-39.512,2.899-56.598
	C285.464,116.72,304.991,110.922,324.976,130.907z M365.861,191.014c-14.493-14.493-28.68-13.425-41.037-1.068
	c-12.51,12.51-13.578,26.697,0.915,41.19l2.441,2.441c14.951,14.951,29.291,14.034,41.8,1.526
	c12.51-12.509,12.968-27.002-1.678-41.647L365.861,191.014z M279.362,178.962c12.205,12.205,23.646,10.831,34.478,0
	c10.679-10.679,12.205-22.273,0-34.478c-12.205-12.205-23.646-10.526-34.325,0.153C268.684,155.468,267.158,166.757,279.362,178.962
	z"/>
<g>
</g>
<g>
</g>
<g>
</g>
<g>
</g>
<g>
</g>
<g>
</g>
<g>
</g>
<g>
</g>
<g>
</g>
<g>
</g>
<g>
</g>
<g>
</g>
<g>
</g>
<g>
</g>
<g>
</g>
</svg>
