<?xml version="1.0" encoding="iso-8859-1"?>
<!-- Generator: Adobe Illustrator 19.0.0, SVG Export Plug-In . SVG Version: 6.00 Build 0)  -->
<svg version="1.1" id="Capa_1" xmlns="http://www.w3.org/2000/svg" xmlns:xlink="http://www.w3.org/1999/xlink" x="0px" y="0px"
	 viewBox="0 0 512 512" style="enable-background:new 0 0 512 512;" xml:space="preserve">
<path style="fill:#EAEAE4;" d="M511.998,254.64c0.021,5.235-0.115,10.471-0.418,15.685c-4.316,76.168-42.499,149.609-110.13,196.309
	c-40.608,28.047-86.471,42.739-132.377,45.038c-5.235,0.261-10.471,0.366-15.685,0.303c-80.296-0.888-158.93-39.427-208.023-110.527
	C15.187,357.758,0.473,307.976,0.014,258.59c-0.052-5.225,0.063-10.46,0.334-15.685C4.329,166.298,42.544,92.314,110.551,45.364
	c40.221-27.786,85.604-42.468,131.092-44.976c5.225-0.282,10.46-0.408,15.685-0.376c80.735,0.481,159.944,39.061,209.308,110.537
	C497.065,154.615,511.778,204.858,511.998,254.64z"/>
<path style="fill:#D6D6D2;" d="M147.242,401.449C66.913,285.119,96.097,125.695,212.427,45.366
	c29.355-20.271,61.457-33.558,94.337-40.241C240.997-8.177,170.123,4.227,110.548,45.366
	C-5.783,125.695-34.967,285.119,45.362,401.449c60.059,86.974,164.329,125.226,261.747,105.426
	C244.455,494.204,186.434,458.205,147.242,401.449z"/>
<path style="fill:#BCBCBC;" d="M269.073,511.672c-5.235,0.261-10.471,0.366-15.685,0.303v-0.209
	c1.139-52.311-14.034-102.836-43.889-146.087C162.998,298.341,86.924,258.538,5.228,258.538c-1.672,0-3.333,0.01-5.005,0.052H0.014
	c-0.052-5.225,0.063-10.46,0.334-15.685c88.729-1.62,171.679,40.932,222.057,113.871
	C254.057,402.64,270.191,456.195,269.073,511.672z"/>
<g>
	<path style="fill:#E22342;" d="M54.722,290.75c-0.04,0-0.079,0-0.119-0.001c-4.328-0.065-7.783-3.625-7.719-7.953l0.833-55.798
		c0.065-4.289,3.56-7.72,7.834-7.72c0.04,0,0.079,0,0.119,0.001c4.328,0.065,7.783,3.625,7.719,7.953l-0.833,55.798
		C62.491,287.318,58.995,290.75,54.722,290.75z"/>
	<path style="fill:#E22342;" d="M102.618,310.933c-0.965,0-1.944-0.179-2.895-0.557c-4.023-1.6-5.987-6.157-4.386-10.179
		l20.625-51.855c1.599-4.022,6.16-5.985,10.178-4.386c4.023,1.6,5.987,6.157,4.386,10.179l-20.625,51.855
		C108.681,309.061,105.734,310.933,102.618,310.933z"/>
	<path style="fill:#E22342;" d="M148.023,336.05c-1.75,0-3.511-0.583-4.97-1.781c-3.345-2.747-3.83-7.686-1.083-11.031
		l35.414-43.128c2.747-3.346,7.687-3.829,11.031-1.084c3.345,2.747,3.83,7.686,1.083,11.031l-35.414,43.128
		C152.535,335.073,150.288,336.05,148.023,336.05z"/>
	<path style="fill:#E22342;" d="M230.288,466.321c-4.275,0-7.77-3.432-7.834-7.72c-0.065-4.328,3.391-7.889,7.719-7.953
		l55.798-0.833c4.366-0.071,7.888,3.392,7.953,7.719c0.065,4.328-3.391,7.889-7.719,7.953l-55.798,0.833
		C230.367,466.321,230.327,466.321,230.288,466.321z"/>
	<path style="fill:#E22342;" d="M210.113,418.422c-3.115,0-6.063-1.871-7.285-4.943c-1.6-4.022,0.364-8.579,4.386-10.179
		l51.854-20.625c4.02-1.599,8.578,0.363,10.178,4.386c1.6,4.022-0.364,8.579-4.386,10.179l-51.854,20.625
		C212.056,418.242,211.077,418.422,210.113,418.422z"/>
	<path style="fill:#E22342;" d="M184.996,373.014c-2.264,0-4.511-0.977-6.061-2.864c-2.747-3.345-2.262-8.283,1.083-11.031
		l43.128-35.414c3.345-2.745,8.285-2.262,11.031,1.084c2.747,3.345,2.262,8.284-1.083,11.031l-43.128,35.414
		C188.507,372.431,186.745,373.014,184.996,373.014z"/>
</g>
<path style="fill:#BCBCBC;" d="M511.998,254.64c0.021,5.235-0.115,10.471-0.418,15.685l-0.752,0.021
	c-1.954,0.042-3.898,0.063-5.841,0.063c-53.555,0-105.124-16.093-149.494-46.721C282.428,173.237,239.866,90.057,241.632,1.203
	l0.01-0.815c5.225-0.282,10.46-0.408,15.685-0.376l-0.031,1.505c-1.661,83.577,38.382,161.814,107.099,209.277
	c43.251,29.844,93.755,45.028,146.087,43.878L511.998,254.64z"/>
<g>
	<path style="fill:#E22342;" d="M225.826,64.676c-4.275,0-7.77-3.432-7.834-7.72c-0.065-4.328,3.391-7.889,7.719-7.953l55.798-0.833
		c0.04,0,0.08-0.001,0.119-0.001c4.275,0,7.77,3.432,7.834,7.72c0.065,4.328-3.391,7.888-7.719,7.953l-55.798,0.833
		C225.905,64.676,225.865,64.676,225.826,64.676z"/>
	<path style="fill:#E22342;" d="M249.955,132.371c-3.115,0-6.063-1.872-7.285-4.943c-1.6-4.022,0.364-8.579,4.386-10.179
		l51.855-20.625c4.019-1.598,8.578,0.364,10.178,4.386c1.6,4.022-0.364,8.579-4.386,10.179l-51.855,20.625
		C251.899,132.191,250.919,132.371,249.955,132.371z"/>
	<path style="fill:#E22342;" d="M283.802,192.565c-2.264,0-4.511-0.977-6.061-2.864c-2.747-3.345-2.262-8.283,1.083-11.031
		l43.128-35.414c3.345-2.746,8.285-2.262,11.031,1.084c2.747,3.345,2.262,8.283-1.083,11.031l-43.128,35.414
		C287.314,191.982,285.552,192.565,283.802,192.565z"/>
	<path style="fill:#E22342;" d="M456.368,295.213c-0.04,0-0.079,0-0.119-0.001c-4.328-0.065-7.783-3.625-7.719-7.953l0.833-55.798
		c0.066-4.328,3.648-7.764,7.953-7.719c4.328,0.065,7.783,3.625,7.719,7.953l-0.833,55.798
		C464.137,291.781,460.642,295.213,456.368,295.213z"/>
	<path style="fill:#E22342;" d="M388.67,271.089c-0.965,0-1.944-0.179-2.895-0.557c-4.023-1.6-5.987-6.157-4.386-10.179
		l20.624-51.854c1.6-4.022,6.159-5.986,10.178-4.386c4.023,1.6,5.987,6.157,4.386,10.179l-20.624,51.854
		C394.732,269.219,391.785,271.089,388.67,271.089z"/>
	<path style="fill:#E22342;" d="M328.473,237.244c-1.751,0-3.511-0.583-4.97-1.781c-3.345-2.747-3.83-7.686-1.083-11.031
		l35.414-43.128c2.746-3.345,7.685-3.83,11.031-1.084c3.345,2.747,3.83,7.686,1.083,11.031l-35.414,43.128
		C332.985,236.266,330.737,237.244,328.473,237.244z"/>
</g>
<g>
</g>
<g>
</g>
<g>
</g>
<g>
</g>
<g>
</g>
<g>
</g>
<g>
</g>
<g>
</g>
<g>
</g>
<g>
</g>
<g>
</g>
<g>
</g>
<g>
</g>
<g>
</g>
<g>
</g>
</svg>
