<svg height="512pt" viewBox="0 -57 512.001 512" width="512pt" xmlns="http://www.w3.org/2000/svg"><path d="m59.921875 17.703125h-36.152344c-13.128906 0-23.769531 10.644531-23.769531 23.769531v264.054688c0 13.128906 10.640625 23.769531 23.769531 23.769531h58.3125c4.226563-28.421875 28.726563-50.226563 58.328125-50.226563 29.597656 0 54.097656 21.804688 58.328125 50.226563h82.078125v-287.824219c0-13.125-10.640625-23.769531-23.769531-23.769531zm0 0" fill="#fff"/><path d="m257.046875 17.703125h-44.90625c13.128906 0 23.769531 10.640625 23.769531 23.769531v287.824219h44.90625v-287.824219c0-13.125-10.640625-23.769531-23.769531-23.769531zm0 0" fill="#e8e8e8"/><path d="m503.40625 166.132812c5.535156 6.1875 8.59375 14.195313 8.59375 22.496094v116.898438c0 13.125-10.640625 23.769531-23.769531 23.769531h-42.402344c-4.230469-28.421875-28.730469-50.226563-58.328125-50.226563-29.601562 0-54.101562 21.804688-58.328125 50.226563h-48.355469v-252.03125h128.011719c9.601563 0 18.75 4.089844 25.152344 11.246094zm0 0" fill="#fff"/><path d="m503.40625 166.132812-33.722656-37.703124-21.804688-24.378907-13.898437-15.539062c-6.402344-7.15625-15.546875-11.246094-25.148438-11.246094h-39.128906c9.601563 0 18.75 4.089844 25.148437 11.246094l13.898438 15.539062 21.808594 24.378907 33.722656 37.703124c5.53125 6.1875 8.589844 14.195313 8.589844 22.496094v116.898438c0 13.125-10.640625 23.769531-23.769532 23.769531h39.128907c13.125 0 23.769531-10.640625 23.769531-23.769531v-116.898438c0-8.300781-3.058594-16.308594-8.59375-22.496094zm0 0" fill="#e8e8e8"/><path d="m417.207031 203.28125h-71.488281c-6.324219 0-11.453125-5.128906-11.453125-11.453125v-65.160156c0-6.324219 5.128906-11.453125 11.453125-11.453125h36.867188c3.335937 0 6.507812 1.457031 8.683593 3.984375l34.621094 40.25c1.785156 2.078125 2.769531 4.726562 2.769531 7.46875v24.910156c0 6.324219-5.128906 11.453125-11.453125 11.453125zm0 0" fill="#5b9ed6"/><path d="m396.40625 77.265625h-78.253906v-12.839844c0-5.238281 4.246094-9.480469 9.484375-9.480469h59.292969c5.234374 0 9.480468 4.242188 9.480468 9.480469v12.839844zm0 0" fill="#8a8a8a"/><path d="m387.5 54.945312h-60.4375v-25.613281c0-16.199219 13.132812-29.332031 29.332031-29.332031h1.773438c16.199219 0 29.332031 13.132812 29.332031 29.332031zm0 0" fill="#ef2d57"/><path d="m357.28125 0c-4.074219 0-7.960938.8125-11.507812 2.273438 10.980468 4.527343 18.710937 15.332031 18.710937 27.945312v24.722656h23.015625v-24.722656c0-16.6875-13.527344-30.21875-30.21875-30.21875zm0 0" fill="#c72549"/><path d="m199.386719 338.046875c0 32.574219-26.40625 58.976563-58.980469 58.976563-32.570312 0-58.976562-26.402344-58.976562-58.976563s26.40625-58.976563 58.976562-58.976563c32.574219 0 58.980469 26.402344 58.980469 58.976563zm0 0" fill="#8a8a8a"/><path d="m173.890625 288.367188c5.878906 9.171874 9.300781 20.066406 9.300781 31.765624 0 32.574219-26.40625 58.980469-58.980468 58.980469-11.699219 0-22.59375-3.421875-31.765626-9.300781 10.484376 16.359375 28.808594 27.210938 49.679688 27.210938 32.574219 0 58.976562-26.402344 58.976562-58.976563 0-20.871094-10.851562-39.199219-27.210937-49.679687zm0 0" fill="#737373"/><path d="m165.476562 338.046875c0 13.84375-11.222656 25.070313-25.070312 25.070313-13.84375 0-25.066406-11.226563-25.066406-25.070313s11.222656-25.070313 25.066406-25.070313c13.847656 0 25.070312 11.226563 25.070312 25.070313zm0 0" fill="#cfcfcf"/><path d="m446.476562 338.046875c0 32.574219-26.402343 58.976563-58.976562 58.976563s-58.976562-26.402344-58.976562-58.976563 26.402343-58.976563 58.976562-58.976563 58.976562 26.402344 58.976562 58.976563zm0 0" fill="#8a8a8a"/><path d="m419.265625 288.367188c5.878906 9.171874 9.300781 20.066406 9.300781 31.765624 0 32.574219-26.40625 58.980469-58.980468 58.980469-11.699219 0-22.59375-3.421875-31.765626-9.300781 10.484376 16.359375 28.808594 27.210938 49.679688 27.210938 32.574219 0 58.976562-26.402344 58.976562-58.976563 0-20.871094-10.851562-39.199219-27.210937-49.679687zm0 0" fill="#737373"/><path d="m412.570312 338.046875c0 13.84375-11.226562 25.070313-25.070312 25.070313s-25.070312-11.226563-25.070312-25.070313 11.226562-25.070313 25.070312-25.070313 25.070312 11.226563 25.070312 25.070313zm0 0" fill="#cfcfcf"/><path d="m192.945312 114.214844h-31.246093v-31.25c0-6.636719-5.382813-12.015625-12.019531-12.015625h-18.542969c-6.640625 0-12.019531 5.378906-12.019531 12.015625v31.25h-31.25c-6.636719 0-12.015626 5.382812-12.015626 12.019531v18.542969c0 6.636718 5.378907 12.019531 12.015626 12.019531h31.25v31.25c0 6.636719 5.382812 12.019531 12.019531 12.019531h18.542969c6.636718 0 12.019531-5.382812 12.019531-12.019531v-31.25h31.25c6.636719 0 12.019531-5.382813 12.019531-12.019531v-18.542969c-.003906-6.636719-5.382812-12.019531-12.023438-12.019531zm0 0" fill="#ef2d57"/><path d="m387.5 279.070312c29.597656 0 54.101562 21.804688 58.328125 50.226563h42.402344c13.128906 0 23.769531-10.640625 23.769531-23.769531v-51.070313h-231.183594v74.839844h48.355469c4.226563-28.421875 28.730469-50.226563 58.328125-50.226563zm0 0" fill="#ef2d57"/><path d="m472.871094 254.457031v51.070313c0 13.125-10.640625 23.769531-23.769532 23.769531h39.128907c13.125 0 23.769531-10.640625 23.769531-23.769531v-51.070313zm0 0" fill="#c72549"/><path d="m23.769531 329.296875h58.3125c4.226563-28.421875 28.726563-50.226563 58.328125-50.226563 29.597656 0 54.097656 21.804688 58.328125 50.226563h82.078125v-74.839844h-280.816406v51.070313c0 13.128906 10.640625 23.769531 23.769531 23.769531zm0 0" fill="#ef2d57"/><path d="m235.910156 254.457031h44.90625v74.839844h-44.90625zm0 0" fill="#c72549"/></svg>