<?xml version="1.0" encoding="iso-8859-1"?>
<!-- Generator: Adobe Illustrator 19.0.0, SVG Export Plug-In . SVG Version: 6.00 Build 0)  -->
<svg version="1.1" id="Capa_1" xmlns="http://www.w3.org/2000/svg" xmlns:xlink="http://www.w3.org/1999/xlink" x="0px" y="0px"
	 viewBox="0 0 512 512" style="enable-background:new 0 0 512 512;" xml:space="preserve">
<path style="fill:#E6646E;" d="M470.086,272.516c22.741,0,41.856-18.125,41.913-40.866c0-0.141,0.001-0.283,0.001-0.424
	c0-114.02-114.615-206.452-256-206.452S0,117.206,0,231.226c0,0.141,0,0.283,0.001,0.424c0.057,22.741,19.172,40.866,41.913,40.866
	H470.086z"/>
<path style="fill:#DC4655;" d="M156.904,231.65c-0.001-0.141-0.001-0.283-0.001-0.424c0-108.096,53.179-196.73,120.884-205.655
	c-7.189-0.489-14.442-0.797-21.787-0.797c-141.385,0-256,92.431-256,206.452c0,0.141,0.001,0.283,0.001,0.424
	c0.057,22.741,19.172,40.866,41.913,40.866h136.622C166.799,272.516,156.933,254.391,156.904,231.65z"/>
<path style="fill:#F5DCB4;" d="M346.034,421.521l-20.552-149.005H186.518l-20.552,149.005c-4.79,34.737,22.2,65.705,57.264,65.705
	h65.54C323.836,487.226,350.826,456.258,346.034,421.521z"/>
<path style="fill:#EBC9A0;" d="M223.52,454.553l16.619-120.486c2.254-16.344,16.223-28.519,32.722-28.519h57.176l-4.556-33.032
	H186.518l-20.552,149.005c-4.791,34.737,22.199,65.705,57.264,65.705h5.392C223.954,477.436,221.91,466.225,223.52,454.553z"/>
<g>
	<ellipse style="fill:#FAEBC8;" cx="206.45" cy="140.39" rx="66.06" ry="57.806"/>
	<path style="fill:#FAEBC8;" d="M362.017,43.321c-9.431,9.419-15.178,21.681-15.178,35.131c0,29.645,27.729,53.677,61.935,53.677
		c21.884,0,41.074-9.862,52.091-24.711C435.248,79.895,401.275,57.75,362.017,43.321z"/>
	<path style="fill:#FAEBC8;" d="M451.834,256c0-41.047-35.916-74.323-80.221-74.323c-44.305,0-80.221,33.276-80.221,74.323
		c0,5.684,0.753,11.197,2.057,16.516h156.329C451.082,267.197,451.834,261.684,451.834,256z"/>
</g>
<g>
	<path style="fill:#F5DCB4;" d="M36.281,125.269C16.164,152.34,3.569,183.441,0.7,216.71c7.131,3.974,15.332,6.258,24.074,6.258
		c27.365,0,49.548-22.183,49.548-49.548C74.323,150.023,58.087,130.464,36.281,125.269z"/>
	<path style="fill:#F5DCB4;" d="M140.387,140.387c0,16.422,7.862,31.21,20.429,41.733c5.993-38.293,18.778-72.33,36.311-98.898
		C165.069,87.196,140.387,111.238,140.387,140.387z"/>
</g>
<g>
</g>
<g>
</g>
<g>
</g>
<g>
</g>
<g>
</g>
<g>
</g>
<g>
</g>
<g>
</g>
<g>
</g>
<g>
</g>
<g>
</g>
<g>
</g>
<g>
</g>
<g>
</g>
<g>
</g>
</svg>
