<?xml version="1.0" encoding="iso-8859-1"?>
<!-- Generator: Adobe Illustrator 19.0.0, SVG Export Plug-In . SVG Version: 6.00 Build 0)  -->
<svg version="1.1" id="Capa_1" xmlns="http://www.w3.org/2000/svg" xmlns:xlink="http://www.w3.org/1999/xlink" x="0px" y="0px"
	 viewBox="0 0 512 512" style="enable-background:new 0 0 512 512;" xml:space="preserve">
<path style="fill:#E6646E;" d="M472.64,193.378l30.598-73.436c2.94-7.057-4.468-13.972-11.306-10.553l-72.657,36.329
	c-3.722,1.861-8.247,0.659-10.555-2.803l-6.394-9.591c-3.041-4.561-9.601-4.943-13.151-0.767l-40.409,47.54
	c-5.592,6.579-16.254,1.235-14.329-7.183l18.617-81.406c1.059-4.631-2.001-9.197-6.687-9.978l-37.106-6.184
	c-2.384-0.397-4.475-1.821-5.718-3.893L263.075,4.006c-3.205-5.341-10.945-5.341-14.15,0L208.374,71.59
	c-1.196,1.993-3.177,3.39-5.457,3.845l-29.879,5.976c-4.351,0.87-7.235,5.026-6.527,9.406l13.862,85.808
	c1.332,8.244-9.023,13.022-14.431,6.659l-43.118-50.727c-3.55-4.177-10.111-3.794-13.151,0.767l-6.394,9.591
	c-2.308,3.462-6.833,4.664-10.555,2.803l-72.657-36.329c-6.838-3.419-14.246,3.496-11.306,10.553l30.598,73.436
	c1.286,3.086,0.582,6.643-1.782,9.007l-20.248,20.248c-4.188,4.188-2.73,11.295,2.77,13.494l22.412,8.965
	c4.056,1.622,6.144,6.125,4.763,10.27l-3.577,10.73c-1.277,3.831,0.407,8.024,3.979,9.907l68.157,35.938
	c5.151,2.716,5.943,9.769,1.524,13.56L35.816,395.45c-4.817,4.133-3.359,11.93,2.626,14.042l122.153,43.113
	c2.863,1.01,6.049,0.367,8.296-1.675l81.559-74.144c3.147-2.861,7.953-2.861,11.1,0l81.559,74.144
	c2.246,2.042,5.433,2.686,8.296,1.675l122.153-43.113c5.985-2.112,7.443-9.91,2.626-14.042l-81.543-69.953
	c-4.42-3.791-3.627-10.844,1.524-13.56l68.157-35.938c3.572-1.884,5.256-6.076,3.979-9.907l-3.577-10.73
	c-1.381-4.144,0.707-8.647,4.763-10.27l22.412-8.965c5.5-2.2,6.958-9.306,2.77-13.494l-20.248-20.248
	C472.058,200.021,471.354,196.464,472.64,193.378z"/>
<g>
	<path style="fill:#DC4655;" d="M451.411,163.712c-3.328-3.118-8.549-2.957-11.667,0.371l-8.251,8.79
		c-3.118,3.328-2.949,8.549,0.371,11.667c1.595,1.491,3.626,2.232,5.648,2.232c2.2,0,4.391-0.87,6.019-2.602l8.251-8.79
		C454.9,172.051,454.731,166.83,451.411,163.712z"/>
	<path style="fill:#DC4655;" d="M389.105,381.167l-100.182-13.36c-6.657-0.888-9.521-8.932-4.923-13.827l134.771-143.465
		c3.126-3.32,2.957-8.541-0.363-11.659c-3.328-3.118-8.541-2.965-11.659,0.363L278.514,335.727
		c-5.118,5.448-14.264,1.826-14.264-5.649V193.453L361.066,88.57c3.094-3.352,2.884-8.573-0.459-11.659
		c-3.344-3.094-8.573-2.884-11.659,0.459l-84.697,91.755v-61.404c0-4.56-3.69-8.251-8.251-8.251c-4.561,0-8.251,3.69-8.251,8.251
		v59.983l-76.205-90.06c-2.949-3.481-8.154-3.916-11.627-0.975c-3.481,2.949-3.916,8.154-0.975,11.627l88.806,104.953v136.829
		c0,7.475-9.146,11.097-14.264,5.649L105.25,199.22c-3.11-3.328-8.331-3.481-11.659-0.363c-3.32,3.118-3.489,8.339-0.363,11.659
		L228,353.98c4.598,4.895,1.734,12.939-4.923,13.827l-100.182,13.36c-4.52,0.604-7.695,4.754-7.09,9.266
		c0.556,4.149,4.093,7.163,8.17,7.163c0.363,0,0.725-0.024,1.096-0.073l113.338-15.114c4.946-0.66,9.341,3.188,9.341,8.178v113.162
		c0,4.56,3.69,8.251,8.251,8.251c4.561,0,8.251-3.69,8.251-8.251V390.588c0-4.99,4.395-8.838,9.341-8.178l113.338,15.114
		c0.371,0.048,0.733,0.073,1.096,0.073c4.077,0,7.614-3.013,8.17-7.163C396.799,385.921,393.625,381.772,389.105,381.167z"/>
	<path style="fill:#DC4655;" d="M430.728,386.453l-8.565-1.144c-4.568-0.596-8.67,2.57-9.274,7.082
		c-0.604,4.52,2.57,8.67,7.082,9.274l8.565,1.144c0.371,0.048,0.741,0.073,1.104,0.073c4.077,0,7.614-3.013,8.17-7.155
		C438.415,391.207,435.24,387.057,430.728,386.453z"/>
	<path style="fill:#DC4655;" d="M80.136,184.54c3.32-3.118,3.489-8.339,0.371-11.667l-8.251-8.79
		c-3.118-3.32-8.331-3.481-11.667-0.371c-3.32,3.118-3.489,8.339-0.371,11.667l8.251,8.79c1.628,1.732,3.819,2.602,6.019,2.602
		C76.51,186.771,78.54,186.03,80.136,184.54z"/>
	<path style="fill:#DC4655;" d="M89.837,385.309l-8.565,1.144c-4.512,0.604-7.687,4.754-7.082,9.274
		c0.556,4.141,4.093,7.155,8.17,7.155c0.363,0,0.733-0.024,1.104-0.073l8.565-1.144c4.512-0.604,7.687-4.754,7.082-9.274
		C98.506,387.879,94.397,384.712,89.837,385.309z"/>
	<path style="fill:#DC4655;" d="M256,82.971c4.56,0,8.251-3.69,8.251-8.251v-8.251c0-4.56-3.69-8.251-8.251-8.251
		c-4.561,0-8.251,3.69-8.251,8.251v8.251C247.749,79.28,251.44,82.971,256,82.971z"/>
</g>
<g>
	<path style="fill:#FF8282;" d="M221.733,240.474l-7.845-49.527c-0.784-4.947-3.049-9.539-6.498-13.171l-32.33-34.047l5.314,32.897
		c1.332,8.244-9.022,13.021-14.431,6.659l-43.118-50.727l46.338,97.321c3.178,6.674,9.173,11.579,16.345,13.372l26.076,6.519
		C217.32,251.203,222.658,246.314,221.733,240.474z"/>
	<path style="fill:#FF8282;" d="M60.428,374.336l115.55-28.522c5.7-1.407,8.148-8.149,4.679-12.885l-15.661-21.384
		c-2.541-3.469-5.942-6.217-9.868-7.972L47.276,255.362l-3.577,10.728c-1.278,3.831,0.406,8.025,3.979,9.908l68.158,35.938
		c5.151,2.716,5.943,9.768,1.524,13.56L60.428,374.336z"/>
	<path style="fill:#FF8282;" d="M451.572,374.336l-115.55-28.522c-5.7-1.407-8.148-8.149-4.679-12.885l15.661-21.384
		c2.541-3.469,5.942-6.217,9.868-7.972l107.852-48.211l3.577,10.728c1.277,3.831-0.406,8.025-3.979,9.908l-68.158,35.938
		c-5.151,2.716-5.943,9.768-1.524,13.56L451.572,374.336z"/>
	<path style="fill:#FF8282;" d="M389.175,132.557l-40.409,47.54c-5.592,6.579-16.254,1.235-14.33-7.183l7.826-34.215l-37.651,39.076
		c-3.449,3.632-5.715,8.225-6.498,13.171l-7.846,49.527c-0.926,5.84,4.413,10.729,10.15,9.295l26.075-6.519
		c7.173-1.793,13.167-6.698,16.345-13.372l46.676-97.568C389.413,132.417,389.272,132.444,389.175,132.557z"/>
</g>
<g>
</g>
<g>
</g>
<g>
</g>
<g>
</g>
<g>
</g>
<g>
</g>
<g>
</g>
<g>
</g>
<g>
</g>
<g>
</g>
<g>
</g>
<g>
</g>
<g>
</g>
<g>
</g>
<g>
</g>
</svg>
