<?xml version="1.0" encoding="iso-8859-1"?>
<!-- Generator: Adobe Illustrator 19.0.0, SVG Export Plug-In . SVG Version: 6.00 Build 0)  -->
<svg version="1.1" id="Capa_1" xmlns="http://www.w3.org/2000/svg" xmlns:xlink="http://www.w3.org/1999/xlink" x="0px" y="0px"
	 viewBox="0 0 512 512" style="enable-background:new 0 0 512 512;" xml:space="preserve">
<circle style="fill:#FFDC64;" cx="256" cy="256" r="256"/>
<path style="fill:#FFC850;" d="M339.957,428.043c-141.385,0-256-114.615-256-256c0-49.18,13.896-95.102,37.935-134.107
	C48.766,83.005,0,163.795,0,256c0,141.385,114.615,256,256,256c92.205,0,172.996-48.766,218.065-121.893
	C435.059,414.147,389.138,428.043,339.957,428.043z"/>
<circle style="fill:#FFF082;" cx="330.32" cy="107.36" r="16.516"/>
<circle style="fill:#FFDC64;" cx="107.36" cy="322.06" r="16.516"/>
<g>
	<path style="fill:#FFF082;" d="M222.968,107.355h-8.258v-8.258c0-4.565-3.698-8.258-8.258-8.258s-8.258,3.694-8.258,8.258v8.258
		h-8.258c-4.56,0-8.258,3.694-8.258,8.258c0,4.565,3.698,8.258,8.258,8.258h8.258v8.258c0,4.565,3.698,8.258,8.258,8.258
		s8.258-3.694,8.258-8.258v-8.258h8.258c4.56,0,8.258-3.694,8.258-8.258C231.226,111.048,227.528,107.355,222.968,107.355z"/>
	<path style="fill:#FFF082;" d="M424.581,313.806l2.419-2.419c3.226-3.226,3.226-8.452,0-11.677c-3.226-3.226-8.452-3.226-11.677,0
		l-2.419,2.419l-2.419-2.419c-3.226-3.226-8.452-3.226-11.677,0c-3.226,3.226-3.226,8.452,0,11.677l2.419,2.419l-2.419,2.419
		c-3.226,3.226-3.226,8.452,0,11.677c1.613,1.613,3.726,2.419,5.839,2.419c2.113,0,4.226-0.806,5.839-2.419l2.419-2.419l2.419,2.419
		c1.613,1.613,3.726,2.419,5.839,2.419c2.113,0,4.226-0.806,5.839-2.419c3.226-3.226,3.226-8.452,0-11.677L424.581,313.806z"/>
</g>
<g>
	<path style="fill:#FFFFFF;" d="M161.032,264.258L161.032,264.258c-20.524,0-37.161-16.638-37.161-37.161v-8.258
		c0-20.524,16.638-37.161,37.161-37.161l0,0c20.524,0,37.161,16.638,37.161,37.161v8.258
		C198.194,247.62,181.556,264.258,161.032,264.258z"/>
	<path style="fill:#FFFFFF;" d="M350.968,264.258L350.968,264.258c-20.524,0-37.161-16.638-37.161-37.161v-8.258
		c0-20.524,16.638-37.161,37.161-37.161l0,0c20.524,0,37.161,16.638,37.161,37.161v8.258
		C388.129,247.62,371.491,264.258,350.968,264.258z"/>
</g>
<g>
	<path style="fill:#EBAF4B;" d="M256,338.581c-18.524,0-33.032-10.879-33.032-24.774c0-4.565,3.698-8.258,8.258-8.258
		s8.258,3.694,8.258,8.258c0,3.371,6.435,8.258,16.516,8.258c10.081,0,16.516-4.887,16.516-8.258c0-4.565,3.698-8.258,8.258-8.258
		s8.258,3.694,8.258,8.258C289.032,327.702,274.524,338.581,256,338.581z"/>
	<path style="fill:#EBAF4B;" d="M256,429.419c-8.802,0-17.496-0.556-25.843-1.653c-4.524-0.589-7.71-4.734-7.117-9.258
		c0.597-4.532,4.766-7.734,9.262-7.113c15.282,2,32.113,2,47.395,0c4.48-0.621,8.665,2.581,9.262,7.113
		c0.593,4.524-2.593,8.669-7.117,9.258C273.496,428.863,264.802,429.419,256,429.419z"/>
</g>
<path style="fill:#DC9B41;" d="M354.226,367.919l-8.258-16.516c-2.04-4.081-6.996-5.734-11.081-3.694
	c-4.081,2.04-5.734,7-3.694,11.081l0.025,0.049c-13.363,12.61-43.111,21.031-75.218,21.031s-61.855-8.421-75.218-21.031l0.025-0.049
	c2.04-4.081,0.387-9.04-3.694-11.081c-4.093-2.04-9.044-0.387-11.081,3.694l-8.258,16.516c-2.04,4.081-0.387,9.04,3.694,11.081
	c1.185,0.589,2.448,0.871,3.685,0.871c3.032,0,5.948-1.669,7.395-4.565l0.613-1.227c17.619,13.862,48.33,22.307,82.838,22.307
	s65.219-8.446,82.838-22.307l0.613,1.227c1.448,2.895,4.363,4.565,7.395,4.565c1.238,0,2.5-0.282,3.685-0.871
	C354.613,376.96,356.266,372,354.226,367.919z"/>
<g>
	<path style="fill:#4B3F4E;" d="M144.516,247.742L144.516,247.742c-11.402,0-20.645-9.243-20.645-20.645v-8.258
		c0-11.402,9.243-20.645,20.645-20.645l0,0c11.402,0,20.645,9.243,20.645,20.645v8.258
		C165.161,238.499,155.918,247.742,144.516,247.742z"/>
	<path style="fill:#4B3F4E;" d="M334.452,247.742L334.452,247.742c-11.402,0-20.645-9.243-20.645-20.645v-8.258
		c0-11.402,9.243-20.645,20.645-20.645l0,0c11.402,0,20.645,9.243,20.645,20.645v8.258
		C355.097,238.499,345.854,247.742,334.452,247.742z"/>
</g>
<g>
	<circle style="fill:#FFFFFF;" cx="148.65" cy="214.71" r="8.258"/>
	<circle style="fill:#FFFFFF;" cx="338.58" cy="214.71" r="8.258"/>
</g>
<g>
</g>
<g>
</g>
<g>
</g>
<g>
</g>
<g>
</g>
<g>
</g>
<g>
</g>
<g>
</g>
<g>
</g>
<g>
</g>
<g>
</g>
<g>
</g>
<g>
</g>
<g>
</g>
<g>
</g>
</svg>
