<?xml version="1.0" encoding="iso-8859-1"?>
<!-- Generator: Adobe Illustrator 19.0.0, SVG Export Plug-In . SVG Version: 6.00 Build 0)  -->
<svg version="1.1" id="Capa_1" xmlns="http://www.w3.org/2000/svg" xmlns:xlink="http://www.w3.org/1999/xlink" x="0px" y="0px"
	 viewBox="0 0 512 512" style="enable-background:new 0 0 512 512;" xml:space="preserve">
<path style="fill:#EAEAE4;" d="M512,256c0,68.6-26.925,130.871-70.775,176.803c-7.186,7.532-14.823,14.613-22.877,21.224
	c-20.032,16.433-42.616,29.896-67.062,39.677c-5.481,2.207-11.046,4.216-16.705,6.036c-22.385,7.197-46.12,11.402-70.734,12.134
	c-2.605,0.084-5.22,0.126-7.845,0.126c-2.626,0-5.241-0.042-7.845-0.126c-113.339-3.4-208.048-80.284-238.143-184.7
	c-2.636-9.142-4.78-18.484-6.391-28.013C1.236,285.132,0.002,270.707,0.002,256c0-12.594,0.91-24.98,2.667-37.093
	c0.847-5.868,1.893-11.663,3.138-17.385c5.105-23.62,13.463-46.026,24.603-66.706c2.469-4.624,5.094-9.153,7.845-13.588
	C83.372,48.433,163.97,0.001,256.001,0.001c21.12,0,41.643,2.552,61.267,7.364c9.686,2.375,19.153,5.293,28.369,8.745
	c25.168,9.383,48.442,22.616,69.133,38.986c4.665,3.682,9.195,7.532,13.578,11.538c17.542,15.963,32.846,34.331,45.398,54.593
	c2.751,4.435,5.377,8.965,7.845,13.588C500.996,170.883,512,212.15,512,256z"/>
<path style="fill:#D6D6D2;" d="M112.968,256.001c0-122.086,85.241-224.059,199.515-249.746c-18.171-4.085-37.071-6.252-56.483-6.252
	C114.499,0.003,0,114.502,0,256.001s114.499,255.998,255.998,255.998c19.414,0,38.314-2.168,56.483-6.252
	C198.209,480.06,112.968,378.087,112.968,256.001z"/>
<path style="fill:#B2B2B1;" d="M439.143,159.324c22.312,89.5,23.013,183.686,2.082,273.478
	c-7.186,7.532-14.823,14.613-22.877,21.224l4.718-13.034c22.898-89.426,23.536-183.801,1.935-273.51l-73.851,42.637
	c13.086,94.113,13.149,189.481,0.136,283.583c-5.481,2.207-11.046,4.216-16.705,6.036l0.596-4.017
	c13.076-91.895,13.515-185.098,1.297-277.129l-72.627,41.936v251.344c-2.605,0.084-5.22,0.126-7.845,0.126
	c-2.626,0-5.241-0.042-7.845-0.126v-48.756c-17.333-5.011-34.404-10.816-51.162-17.406
	c-69.144-27.176-132.837-67.48-186.981-118.538c-2.636-9.142-4.78-18.484-6.391-28.013l8.159,7.929
	c46.057,45.398,99.678,82.564,158.037,109.866c25.304,11.841,51.486,21.831,78.338,29.823v-85.316
	c-45.597-18.651-89.719-40.503-132.084-65.388C76.656,272.935,38.769,247.15,2.67,218.907c0.847-5.868,1.893-11.663,3.138-17.385
	l2.981,2.249c0.052,0.031,0.094,0.073,0.136,0.105c33.442,26.402,68.464,50.639,104.845,72.575
	c43.003,25.942,87.91,48.693,134.386,68.045v-83.966l-126.017-72.753l-91.728-52.961c2.469-4.624,5.094-9.153,7.845-13.588
	l42.313,24.425c43.223-41.591,92.711-76.236,146.321-102.69c29.038-14.341,59.279-26.266,90.378-35.597
	c9.686,2.375,19.153,5.293,28.369,8.745l-12.04,2.866c-57.522,15.9-112.22,40.89-161.823,73.694
	c-27.354,18.086-53.171,38.536-77.052,61.152l32.187,18.578l41.695,24.08c75.19-58.254,157.963-105.818,246.166-141.384
	c4.665,3.682,9.195,7.532,13.578,11.538l-3.808,1.433c-86.33,34.415-167.451,80.451-241.25,136.896l72.711,41.978l217.745-125.714
	c2.751,4.435,5.377,8.965,7.845,13.588L439.143,159.324z"/>
<g>
	<path style="fill:#939392;" d="M116.071,296.074C76.656,272.935,38.769,247.15,2.67,218.907c0.847-5.868,1.893-11.663,3.138-17.385
		l2.981,2.249c0.052,0.031,0.094,0.073,0.136,0.105c33.442,26.402,68.464,50.639,104.845,72.575
		C114.293,283.061,115.067,289.609,116.071,296.074z"/>
	<path style="fill:#939392;" d="M196.994,445.711c-69.144-27.176-132.837-67.48-186.981-118.538
		c-2.636-9.142-4.78-18.484-6.391-28.013l8.159,7.929c46.057,45.398,99.678,82.564,158.037,109.866
		C178.123,427.227,187.213,436.841,196.994,445.711z"/>
	<path style="fill:#939392;" d="M226.89,42.962c-20.701,13.829-39.279,30.586-55.116,49.708
		c-27.354,18.086-53.171,38.536-77.052,61.152l32.187,18.578c-1.747,5.052-3.337,10.178-4.77,15.377l-91.728-52.961
		c2.469-4.624,5.094-9.153,7.845-13.588l42.313,24.425C123.791,104.062,173.28,69.417,226.89,42.962z"/>
	<path style="fill:#939392;" d="M263.846,489.519v22.354c-2.605,0.084-5.22,0.126-7.845,0.126c-2.626,0-5.241-0.042-7.845-0.126
		v-30.084C253.281,484.54,258.522,487.114,263.846,489.519z"/>
</g>
<g>
</g>
<g>
</g>
<g>
</g>
<g>
</g>
<g>
</g>
<g>
</g>
<g>
</g>
<g>
</g>
<g>
</g>
<g>
</g>
<g>
</g>
<g>
</g>
<g>
</g>
<g>
</g>
<g>
</g>
</svg>
