<?xml version="1.0" encoding="iso-8859-1"?>
<!-- Generator: Adobe Illustrator 21.0.0, SVG Export Plug-In . SVG Version: 6.00 Build 0)  -->
<svg xmlns="http://www.w3.org/2000/svg" xmlns:xlink="http://www.w3.org/1999/xlink" version="1.1" id="Capa_1" x="0px" y="0px" viewBox="0 0 510.96 510.96" style="enable-background:new 0 0 510.96 510.96;" xml:space="preserve" width="512" height="512">
<g>
	<path style="fill:#FFD039;" d="M493.239,91.944C493.239,91.944,493.239,91.944,493.239,91.944   c-10.825-13.583-26.993-21.374-44.358-21.374h-53.077c-4.142,0-7.5,3.358-7.5,7.5v32.768c0,4.142,3.358,7.5,7.5,7.5h53.077   c2.739,0,5.291,1.23,7.001,3.376c1.667,2.091,2.284,4.769,1.693,7.348c-4.057,17.716-12.592,42.896-30.213,62.243   c-10.206,11.204-22.759,19.518-37.314,24.71c-2.438,0.87-4.255,2.936-4.807,5.465c-2.703,12.386-7.168,24.3-13.272,35.41   c-1.385,2.521-1.207,5.612,0.46,7.957c1.421,1.999,3.71,3.155,6.112,3.155c0.415,0,0.833-0.034,1.251-0.105   c33.269-5.624,61.155-20.571,82.884-44.426c19.476-21.383,33.814-50.342,41.461-83.747   C507.993,122.889,504.02,105.474,493.239,91.944z"/>
	<g>
		<path style="fill:#F4B70C;" d="M429.624,193.034v-4.34c-0.744,0.876-1.483,1.756-2.261,2.611    c-10.206,11.204-22.759,19.518-37.314,24.71c-2.438,0.87-4.255,2.936-4.807,5.465c-2.703,12.386-7.168,24.3-13.272,35.41    c-1.385,2.521-1.207,5.612,0.46,7.957c1.421,1.999,3.71,3.155,6.112,3.155c0.415,0,0.833-0.034,1.251-0.105    c12.391-2.095,24.033-5.487,34.891-10.147C424.247,238.193,429.624,216.231,429.624,193.034z"/>
		<path style="fill:#F4B70C;" d="M388.304,78.07v32.768c0,4.142,3.358,7.5,7.5,7.5h33.819V70.57h-33.819    C391.662,70.57,388.304,73.928,388.304,78.07z"/>
	</g>
	<path style="fill:#FFBB64;" d="M311.855,440.722c-2.309-1.63-22.33-18.416-24.85-109.629c-0.06-2.175-1.062-4.217-2.746-5.596   c-1.684-1.379-3.884-1.957-6.027-1.588c-7.491,1.293-15.146,1.948-22.753,1.948h-0.001c-7.607,0-15.262-0.656-22.753-1.948   c-2.144-0.369-4.344,0.21-6.027,1.588c-1.684,1.378-2.685,3.42-2.746,5.596c-2.521,91.213-22.541,107.999-24.85,109.629   c-3.546,0.954-5.435,4.246-5.013,7.944c0.433,3.789,4.126,6.502,7.939,6.502h106.899c3.813,0,7.506-2.713,7.939-6.502   C317.29,444.968,315.402,441.676,311.855,440.722z"/>
	<g>
		<path style="fill:#FFAE47;" d="M311.855,440.722c-2.309-1.63-22.33-18.416-24.85-109.629c-0.06-2.175-1.062-4.217-2.746-5.596    c-1.684-1.379-3.884-1.957-6.027-1.588c-7.491,1.293-15.146,1.948-22.753,1.948h-0.001c-2.405,0-4.816-0.073-7.224-0.204    c1.576,1.374,2.516,3.342,2.574,5.439c2.521,91.213,22.541,107.999,24.85,109.629c3.546,0.954,5.435,4.246,5.013,7.944    c-0.433,3.789-4.126,6.502-7.939,6.502h36.176c3.813,0,7.506-2.713,7.939-6.502C317.29,444.968,315.402,441.676,311.855,440.722z"/>
	</g>
	<path style="fill:#FFD039;" d="M17.721,91.944C17.721,91.944,17.721,91.944,17.721,91.944C28.545,78.361,44.713,70.57,62.079,70.57   h53.077c4.142,0,7.5,3.358,7.5,7.5v32.768c0,4.142-3.358,7.5-7.5,7.5H62.079c-2.739,0-5.291,1.23-7.001,3.376   c-1.667,2.091-2.284,4.769-1.693,7.348c4.057,17.716,12.592,42.896,30.213,62.243c10.205,11.204,22.759,19.518,37.314,24.71   c2.438,0.87,4.255,2.936,4.807,5.465c2.703,12.386,7.168,24.3,13.272,35.41c1.385,2.521,1.207,5.612-0.46,7.957   c-1.421,1.999-3.71,3.155-6.112,3.155c-0.415,0-0.833-0.034-1.251-0.105c-33.269-5.624-61.155-20.571-82.884-44.426   c-19.476-21.383-33.813-50.342-41.461-83.747C2.967,122.889,6.94,105.474,17.721,91.944z"/>
	<g>
		<path style="fill:#F4B70C;" d="M81.336,193.034v-4.34c0.744,0.876,1.483,1.756,2.261,2.611    c10.205,11.204,22.759,19.518,37.314,24.71c2.438,0.87,4.255,2.936,4.807,5.465c2.703,12.386,7.168,24.3,13.272,35.41    c1.385,2.521,1.207,5.612-0.46,7.957c-1.421,1.999-3.71,3.155-6.112,3.155c-0.415,0-0.833-0.034-1.251-0.105    c-12.391-2.095-24.033-5.487-34.891-10.147C86.713,238.193,81.336,216.231,81.336,193.034z"/>
		<path style="fill:#F4B70C;" d="M122.656,78.07v32.768c0,4.142-3.358,7.5-7.5,7.5H81.336V70.57h33.819    C119.298,70.57,122.656,73.928,122.656,78.07z"/>
	</g>
	<path style="fill:#FFDF65;" d="M395.804,43.374H115.155c-4.142,0-7.5,3.358-7.5,7.5v142.16   c0,81.511,66.314,147.824,147.825,147.824s147.824-66.313,147.824-147.824V50.874C403.304,46.731,399.946,43.374,395.804,43.374z"/>
	<path style="fill:#FFCD2C;" d="M395.804,43.374h-35.006c4.142,0,7.5,3.358,7.5,7.5v142.16c0,75.589-57.031,138.097-130.321,146.783   c5.742,0.68,11.581,1.041,17.503,1.041c81.511,0,147.824-66.313,147.824-147.824V50.874   C403.304,46.731,399.946,43.374,395.804,43.374z"/>
	<path style="fill:none;stroke:#000000;stroke-width:15;stroke-linecap:round;stroke-linejoin:round;stroke-miterlimit:10;" d="   M255.48,447.668"/>
	<path style="fill:#FFA035;" d="M320.633,175.552c4.543-4.429,6.147-10.928,4.187-16.961c-1.961-6.033-7.079-10.348-13.357-11.26   l-27.627-4.015c-0.503-0.073-0.939-0.389-1.164-0.846l-12.355-25.034c-2.808-5.689-8.492-9.223-14.836-9.224c0,0,0,0-0.001,0   c-6.343,0-12.029,3.534-14.837,9.223l-12.355,25.035c-0.225,0.456-0.66,0.772-1.163,0.845l-27.628,4.015   c-6.278,0.912-11.396,5.227-13.356,11.26c-1.96,6.034-0.356,12.533,4.187,16.961l19.991,19.487   c0.365,0.355,0.531,0.867,0.445,1.368l-4.72,27.516c-1.072,6.253,1.45,12.454,6.583,16.183c5.133,3.729,11.809,4.211,17.424,1.259   l24.71-12.991c0.45-0.237,0.988-0.237,1.438,0l24.711,12.991c2.443,1.284,5.085,1.918,7.715,1.918c3.416,0,6.81-1.07,9.71-3.178   c5.133-3.729,7.655-9.93,6.582-16.183l-4.719-27.516c-0.086-0.501,0.08-1.013,0.444-1.368L320.633,175.552z"/>
	<path style="fill:#F78819;" d="M311.463,147.331l-7.081-1.029l-35.975,34.367c-2.132,2.078-3.105,5.072-2.601,8.006l8.069,48.992   l7.035,3.699c2.443,1.284,5.085,1.918,7.715,1.918c3.416,0,6.81-1.07,9.71-3.178c5.133-3.729,7.655-9.93,6.582-16.183   l-4.719-27.516c-0.086-0.501,0.08-1.013,0.444-1.368l19.992-19.487c4.543-4.429,6.147-10.928,4.187-16.961   C322.859,152.558,317.741,148.243,311.463,147.331z"/>
	<path style="fill:#FFDF65;" d="M400.11,501.139c-12.052-37.039-40.974-60.971-73.681-60.971H184.531   c-32.708,0-61.629,23.933-73.682,60.972c-0.743,2.284-0.348,4.785,1.063,6.728c1.411,1.943,3.667,3.093,6.068,3.093h274.997   c2.401,0,4.658-1.15,6.068-3.093C400.457,505.924,400.853,503.422,400.11,501.139z"/>
	<path style="fill:#FFCD2C;" d="M400.11,501.139c-12.052-37.039-40.974-60.971-73.681-60.971h-57.544   c32.707,0,61.629,23.933,73.681,60.971c0.743,2.284,0.348,4.785-1.064,6.728c-1.411,1.943-3.667,3.093-6.068,3.093h57.543   c2.401,0,4.658-1.15,6.068-3.093C400.457,505.924,400.853,503.422,400.11,501.139z"/>
	<path style="fill:#FFD039;" d="M407.937,0H103.022C86.929,0,73.836,13.093,73.836,29.187c0,16.093,13.093,29.187,29.187,29.187   h304.915c16.093,0,29.187-13.093,29.187-29.187C437.124,13.093,424.03,0,407.937,0z"/>
	<path style="fill:#F4B70C;" d="M407.937,0h-33.819c16.093,0,29.186,13.093,29.186,29.187c0,16.093-13.093,29.187-29.186,29.187   h33.819c16.093,0,29.187-13.093,29.187-29.187C437.124,13.093,424.03,0,407.937,0z"/>
</g>















</svg>
