<?xml version="1.0" encoding="iso-8859-1"?>
<!-- Generator: Adobe Illustrator 21.0.0, SVG Export Plug-In . SVG Version: 6.00 Build 0)  -->
<svg xmlns="http://www.w3.org/2000/svg" xmlns:xlink="http://www.w3.org/1999/xlink" version="1.1" id="Capa_1" x="0px" y="0px" viewBox="0 0 509.629 509.629" style="enable-background:new 0 0 509.629 509.629;" xml:space="preserve" width="512" height="512">
<g>
	<path style="fill:#D62D2D;" d="M416.528,3.427C415.147,1.291,412.775,0,410.23,0H296.698c-2.951,0-5.629,1.732-6.84,4.423   l-41.884,93.104c-0.88,1.957-0.88,4.197,0,6.154l37.074,82.414c1.211,2.691,3.888,4.423,6.84,4.423h39.383   c2.951,0,5.629-1.731,6.84-4.423L417.07,10.577C418.114,8.256,417.91,5.564,416.528,3.427z"/>
	<path style="fill:#9E1219;" d="M264.203,61.454l-16.228,36.073c-0.88,1.957-0.88,4.197,0,6.154l37.074,82.414   c1.211,2.691,3.888,4.423,6.84,4.423h30.374L264.203,61.454z"/>
	<path style="fill:#FFA035;" d="M254.815,232.398c-15.682,0-28.44-12.758-28.44-28.44c0-15.682,12.758-28.441,28.44-28.441   c15.682,0,28.44,12.758,28.44,28.441C283.255,219.64,270.496,232.398,254.815,232.398z M254.815,190.518   c-7.411,0-13.44,6.029-13.44,13.441c0,7.411,6.029,13.44,13.44,13.44c7.411,0,13.44-6.029,13.44-13.44   C268.255,196.547,262.226,190.518,254.815,190.518z"/>
	<path style="fill:#FF3D43;" d="M298.729,179.941L219.771,4.423C218.56,1.732,215.882,0,212.931,0H99.399   c-2.545,0-4.916,1.291-6.298,3.427c-1.382,2.137-1.586,4.829-0.542,7.15l78.959,175.518c1.211,2.691,3.888,4.423,6.84,4.423   h113.532c2.545,0,4.916-1.29,6.298-3.427C299.568,184.953,299.773,182.261,298.729,179.941z"/>
	<path style="fill:#D72E2E;" d="M268.263,190.518h23.626c2.545,0,4.916-1.29,6.298-3.427c1.382-2.137,1.586-4.829,0.542-7.15   L219.771,4.423C218.56,1.732,215.882,0,212.931,0h-30.374L268.263,190.518z"/>
	<path style="fill:#FFD039;" d="M255.024,217.398c-80.568,0-146.115,65.547-146.115,146.115   c0,80.568,65.547,146.115,146.115,146.115c80.568,0,146.115-65.547,146.115-146.115   C401.139,282.945,335.592,217.398,255.024,217.398z"/>
	<path style="fill:#F4B70C;" d="M255.024,217.398c-5.909,0-11.735,0.362-17.462,1.048c72.365,8.658,128.653,70.408,128.653,145.068   s-56.288,136.41-128.653,145.068c5.728,0.685,11.553,1.047,17.462,1.047c80.568,0,146.115-65.547,146.115-146.115   C401.139,282.945,335.592,217.398,255.024,217.398z"/>
	<path style="fill:#FFF5CF;" d="M255.024,257.563c-58.421,0-105.951,47.529-105.951,105.951   c0,58.422,47.529,105.951,105.951,105.951s105.951-47.529,105.951-105.951C360.975,305.092,313.445,257.563,255.024,257.563z"/>
	<path style="fill:#FFECA1;" d="M255.024,257.563c-5.582,0-11.063,0.437-16.414,1.273c50.654,7.912,89.536,51.838,89.536,104.678   c0,52.84-38.882,96.766-89.536,104.678c5.351,0.836,10.833,1.273,16.414,1.273c58.421,0,105.951-47.529,105.951-105.951   C360.975,305.092,313.445,257.563,255.024,257.563z"/>
	<path style="fill:#FFA035;" d="M315.108,359.813c4.646-4.528,6.285-11.173,4.281-17.343c-2.005-6.169-7.237-10.581-13.657-11.514   l-23.56-3.424c-0.624-0.09-1.163-0.483-1.442-1.049l-10.536-21.347c-2.871-5.817-8.684-9.431-15.17-9.431c-0.001,0,0,0-0.001,0   c-6.487,0-12.3,3.614-15.171,9.431l-10.536,21.348c-0.279,0.566-0.818,0.958-1.443,1.049l-23.558,3.423   c-6.42,0.933-11.652,5.344-13.657,11.514c-2.005,6.169-0.365,12.814,4.281,17.343l17.047,16.617   c0.452,0.441,0.658,1.075,0.551,1.698l-4.024,23.462c-1.097,6.393,1.482,12.734,6.73,16.547c2.966,2.155,6.435,3.249,9.928,3.249   c2.688,0,5.392-0.649,7.889-1.961l21.071-11.078c0.559-0.294,1.226-0.294,1.784,0l21.071,11.078   c5.741,3.018,12.568,2.525,17.816-1.288c5.248-3.813,7.827-10.153,6.73-16.547l-4.024-23.463c-0.106-0.622,0.1-1.256,0.552-1.697   L315.108,359.813z"/>
	<path style="fill:#F78819;" d="M315.108,359.813c4.646-4.528,6.285-11.173,4.281-17.343c-2.005-6.169-7.237-10.581-13.657-11.514   l-1.137-0.165l-34.378,33.064c-2.22,2.164-3.233,5.281-2.708,8.336l7.908,46.408l1.571,0.826   c5.741,3.018,12.568,2.525,17.816-1.288c5.248-3.813,7.827-10.153,6.73-16.547l-4.024-23.463c-0.106-0.622,0.1-1.256,0.552-1.697   L315.108,359.813z"/>
	<path style="fill:#FFD039;" d="M353.266,190.518H156.364c-4.142,0-7.5-3.358-7.5-7.5c0-4.142,3.358-7.5,7.5-7.5h196.902   c4.143,0,7.5,3.358,7.5,7.5C360.766,187.16,357.408,190.518,353.266,190.518z"/>
</g>















</svg>
