<?xml version="1.0" encoding="iso-8859-1"?>
<!-- Generator: Adobe Illustrator 19.0.0, SVG Export Plug-In . SVG Version: 6.00 Build 0)  -->
<svg version="1.1" id="Capa_1" xmlns="http://www.w3.org/2000/svg" xmlns:xlink="http://www.w3.org/1999/xlink" x="0px" y="0px"
	 viewBox="0 0 511.999 511.999" style="enable-background:new 0 0 511.999 511.999;" xml:space="preserve">
<path style="fill:#5D5360;" d="M474.118,164.835l9.157-9.64c2.289-2.409,2.473-6.114,0.371-8.689
	c-9.595-11.759-37.816-43.038-74.962-54.681l7.572-12.778c1.892-3.192,0.782-7.392-2.462-9.194
	c-99.116-55.067-177.4-21.89-208.268-2.473c-3.864,2.431-4.125,7.926-0.552,10.767l13.092,10.406
	c-20.27,13.513-37.192,28.669-47.582,38.738c-4.276,4.144-1.36,11.37,4.595,11.37H343.94l142.192,181.82
	c8.475,10.837,25.867,4.844,25.867-8.914v-79.86c0-9.081-2.458-18.065-7.218-25.799
	C488.118,178.835,474.118,164.835,474.118,164.835z"/>
<path style="fill:#4B3F4E;" d="M454.026,193.156l-9.004-11.393c-2.886-3.652-8.542-3.258-10.894,0.759l-5.57,9.514
	c-16.806-40.178-58.326-117.141-129.722-117.142c-10.281,0-20.841,1.642-31.383,4.881c-14.308,4.395-27.418,11.642-38.965,21.539
	l-41.657,37.347H343.94l142.192,181.82c8.007,10.24,23.793,5.358,25.53-6.806C497.015,273.299,475.262,220.026,454.026,193.156z"/>
<path style="fill:#C0826C;" d="M508.74,355.816c-9.777-29.807-39.897-117.252-67.682-152.41l-8.713,14.885
	c-2.859,4.884-10.151,4.191-11.949-1.174c-13.946-41.619-62.228-147.915-148.088-121.54c-11.452,3.518-22.63,9.348-33.061,18.289
	L4.464,324.361c-3.308,2.966-5.089,7.459-4.26,11.823c1.911,10.068,7.795,14.757,14.037,16.807c2.741,0.901,5.001,2.789,6.282,5.375
	c3.207,6.474,8.837,17.841,8.837,17.841c4.14,8.439,14.439,11.783,22.688,7.277c3.046-1.663,6.381-3.701,9.805-5.88l28.852,17.58
	c4.944,2.995,11.038,3.214,16.161,0.539c24.73-12.909,100.809-50.757,157.177-58.696c11.754-1.656,22.677-4.792,32.789-8.956
	l62.06,162.885c2.079,5.455,9.005,7.095,13.308,3.15l131.99-120.991C508.977,368.727,510.764,361.987,508.74,355.816z"/>
<path style="fill:#F5DCB4;" d="M145.574,288.813c-27.263-4.052-49.594-12.826-56.79-40.05L4.463,324.362
	c-3.306,2.964-5.09,7.455-4.261,11.818c1.905,10.033,7.753,14.72,13.969,16.782c2.709,0.898,4.953,2.797,6.23,5.348l8.958,17.897
	c4.14,8.439,14.439,11.783,22.688,7.277c2.995-1.635,6.272-3.638,9.635-5.774l29.021,17.474c4.929,2.985,11.06,3.202,16.169,0.535
	c15.48-8.081,51.065-25.923,89.342-40.091C208.527,321.167,183.298,294.421,145.574,288.813z"/>
<path style="fill:#AF6E5A;" d="M266.625,23.037v82.431c0,9.001,7.206,16.682,17.037,18.162l19.235,2.895
	c13.163,1.981,24.966-7.86,23.693-19.855c-5.785-54.492-31.155-79.217-46.985-89.518C274.176,13.619,266.625,16.994,266.625,23.037z
	"/>
<path style="fill:#4B3F4E;" d="M239.247,229.579L239.247,229.579c-13.694,0-24.796-11.101-24.796-24.796v-8.265
	c0-13.694,11.101-24.796,24.796-24.796l0,0c13.694,0,24.796,11.101,24.796,24.796v8.265
	C264.042,218.478,252.941,229.579,239.247,229.579z"/>
<path style="fill:#5D5360;" d="M239.247,171.723v28.928c0,6.847,5.551,12.398,12.398,12.398c6.847,0,12.398-5.551,12.398-12.398
	v-4.133C264.042,182.824,252.941,171.723,239.247,171.723z"/>
<circle style="fill:#FFFFFF;" cx="239.25" cy="188.249" r="8.265"/>
<path style="fill:#AF6E5A;" d="M349.597,323.908c-3.21-5.733-2.642-12.767,1.286-18.034c4.397-5.895,8.153-12.198,11.156-18.873
	c12.148-27.007,11.954-57.344-0.557-87.734c-1.735-4.221-6.546-6.231-10.792-4.496c-4.221,1.739-6.231,6.57-4.496,10.792
	c10.743,26.079,11.01,51.896,0.767,74.658c-9.325,20.733-27.092,37.58-50.159,47.774l62.088,162.962
	c2.079,5.456,9.005,7.095,13.309,3.15l48.045-44.041L349.597,323.908z"/>
<g>
	<path style="fill:#965A50;" d="M37.437,339.266c-2.488-5.058-10.656-5.447-16.186,2.238c-2.7,3.752-5.069,7.289-12.551,8.717
		c1.727,1.196,3.574,2.111,5.471,2.74c2.058,0.682,3.69,2.08,4.991,3.765C35.026,355.452,40.292,345.073,37.437,339.266z"/>
	<path style="fill:#965A50;" d="M78.171,387.638c14.112-8.872,29.894-20.636,42.783-33.645c3.214-3.241,3.189-8.475-0.048-11.688
		c-3.251-3.223-8.479-3.189-11.692,0.052c-14.293,14.42-34.067,26.698-47.531,35.353L78.171,387.638z"/>
</g>
<g>
</g>
<g>
</g>
<g>
</g>
<g>
</g>
<g>
</g>
<g>
</g>
<g>
</g>
<g>
</g>
<g>
</g>
<g>
</g>
<g>
</g>
<g>
</g>
<g>
</g>
<g>
</g>
<g>
</g>
</svg>
