<?xml version="1.0" encoding="iso-8859-1"?>
<!-- Generator: Adobe Illustrator 19.0.0, SVG Export Plug-In . SVG Version: 6.00 Build 0)  -->
<svg version="1.1" id="Layer_1" xmlns="http://www.w3.org/2000/svg" xmlns:xlink="http://www.w3.org/1999/xlink" x="0px" y="0px"
	 viewBox="0 0 512.003 512.003" style="enable-background:new 0 0 512.003 512.003;" xml:space="preserve">
<circle style="fill:#FDDF6D;" cx="256.001" cy="256.001" r="256.001"/>
<path style="fill:#FCC56B;" d="M310.859,474.208c-141.385,0-256-114.615-256-256c0-75.537,32.722-143.422,84.757-190.281
	C56.738,70.303,0,156.525,0,256c0,141.385,114.615,256,256,256c65.849,0,125.883-24.87,171.243-65.718
	C392.325,464.135,352.77,474.208,310.859,474.208z"/>
<g>
	<path style="fill:#7F184C;" d="M245.899,187.172c-5.752,0-10.414-4.663-10.414-10.414c0-13.433-10.928-24.362-24.362-24.362
		c-13.433,0-24.362,10.93-24.362,24.362c0,5.752-4.663,10.414-10.414,10.414c-5.752,0-10.414-4.663-10.414-10.414
		c0-24.918,20.273-45.19,45.19-45.19s45.19,20.272,45.19,45.19C256.314,182.509,251.651,187.172,245.899,187.172z"/>
	<path style="fill:#7F184C;" d="M421.798,187.172c-5.752,0-10.414-4.663-10.414-10.414c0-13.433-10.928-24.362-24.362-24.362
		s-24.362,10.93-24.362,24.362c0,5.752-4.663,10.414-10.414,10.414s-10.414-4.663-10.414-10.414c0-24.918,20.273-45.19,45.19-45.19
		s45.19,20.272,45.19,45.19C432.213,182.509,427.55,187.172,421.798,187.172z"/>
</g>
<path style="fill:#FFFFFF;" d="M293.248,443.08L293.248,443.08c-74.004,0-133.995-59.991-133.995-133.995l0,0h267.991l0,0
	C427.243,383.088,367.251,443.08,293.248,443.08z"/>
<path style="fill:#E6E6E6;" d="M172.426,367.092c3.531,7.341,7.718,14.305,12.472,20.829h216.699
	c4.755-6.524,8.941-13.487,12.472-20.829H172.426z"/>
<g>
	<path style="fill:#F9A880;" d="M145.987,240.152c-19.011,0-34.423,15.412-34.423,34.423h68.848
		C180.41,255.564,164.998,240.152,145.987,240.152z"/>
	<path style="fill:#F9A880;" d="M446.251,240.152c-19.011,0-34.423,15.412-34.423,34.423h68.848
		C480.676,255.564,465.264,240.152,446.251,240.152z"/>
</g>
<ellipse transform="matrix(0.2723 -0.9622 0.9622 0.2723 142.573 335.222)" style="fill:#FCEB88;" cx="292.913" cy="73.351" rx="29.854" ry="53.46"/>
<g>
</g>
<g>
</g>
<g>
</g>
<g>
</g>
<g>
</g>
<g>
</g>
<g>
</g>
<g>
</g>
<g>
</g>
<g>
</g>
<g>
</g>
<g>
</g>
<g>
</g>
<g>
</g>
<g>
</g>
</svg>
