<?xml version="1.0" encoding="iso-8859-1"?>
<!-- Generator: Adobe Illustrator 19.0.0, SVG Export Plug-In . SVG Version: 6.00 Build 0)  -->
<svg version="1.1" id="Capa_1" xmlns="http://www.w3.org/2000/svg" xmlns:xlink="http://www.w3.org/1999/xlink" x="0px" y="0px"
	 viewBox="0 0 512 512" style="enable-background:new 0 0 512 512;" xml:space="preserve">
<circle style="fill:#EDEBED;" cx="338.579" cy="57.807" r="24.774"/>
<path style="fill:#DBD9DC;" d="M350.967,70.194c-13.682,0-24.774-11.092-24.774-24.774c0-3.631,0.824-7.053,2.227-10.16
	c-8.602,3.885-14.614,12.495-14.614,22.547c0,13.682,11.092,24.774,24.774,24.774c10.052,0,18.662-6.012,22.547-14.614
	C358.02,69.37,354.597,70.194,350.967,70.194z"/>
<circle style="fill:#EDEBED;" cx="255.909" cy="371.61" r="140.39"/>
<path style="fill:#DBD9DC;" d="M301.33,466.581c-77.534,0-140.387-62.853-140.387-140.387c0-27.122,7.822-52.359,21.142-73.826
	c-39.901,24.759-66.561,68.834-66.561,119.245c0,77.534,62.853,140.387,140.387,140.387c50.412,0,94.487-26.66,119.245-66.561
	C353.689,458.759,328.452,466.581,301.33,466.581z"/>
<g>
	<path style="fill:#8B534F;" d="M154.475,299.702l-47.121-47.02v-29.714c0-4.565-3.694-8.258-8.258-8.258
		c-4.565,0-8.258,3.694-8.258,8.258v13.233L71.805,217.21c-3.226-3.21-8.452-3.226-11.677,0.016
		c-3.218,3.226-3.218,8.452,0.016,11.677l18.879,18.839h-12.96c-4.565,0-8.258,3.694-8.258,8.258c0,4.564,3.694,8.258,8.258,8.258
		h29.512l47.238,47.137c1.613,1.605,3.718,2.411,5.831,2.411s4.234-0.806,5.847-2.427
		C157.709,308.153,157.709,302.927,154.475,299.702z"/>
	<path style="fill:#8B534F;" d="M445.846,247.742h-12.94l18.867-18.847c3.226-3.218,3.226-8.452,0-11.677
		c-3.226-3.226-8.452-3.226-11.677,0l-19.024,19.004v-13.254c0-4.565-3.694-8.258-8.258-8.258s-8.258,3.694-8.258,8.258v29.752
		l-47.04,46.99c-3.226,3.218-3.226,8.452,0,11.677c1.613,1.613,3.726,2.419,5.839,2.419c2.113,0,4.226-0.806,5.839-2.419
		l47.18-47.129h29.473c4.565,0,8.258-3.694,8.258-8.258S450.41,247.742,445.846,247.742z"/>
</g>
<circle style="fill:#DC4655;" cx="255.909" cy="363.36" r="16.516"/>
<path style="fill:#E6646E;" d="M255.91,214.71c-37.731,0-72.27,13.404-99.32,35.612c-5.014,4.116-5.74,11.58-1.554,16.536
	c24.224,28.685,60.388,46.948,100.874,46.948s76.65-18.264,100.875-46.949c4.185-4.956,3.459-12.42-1.554-16.536
	C328.181,228.113,293.641,214.71,255.91,214.71z"/>
<g>
	<path style="fill:#DC4655;" d="M255.91,214.71c-37.731,0-72.271,13.403-99.32,35.612c-5.014,4.116-5.74,11.58-1.554,16.536
		c18.051,21.375,42.742,36.935,70.9,43.492c4.845-10.874,10.314-19.438,14.422-25.023l11.429-15.539l13.028-54.684
		C261.855,214.937,258.912,214.71,255.91,214.71z"/>
	<circle style="fill:#DC4655;" cx="255.909" cy="437.68" r="16.516"/>
</g>
<path style="fill:#E6646E;" d="M197.409,260.125c-12.766,18.399-29.982,50.733-32.044,93.337c-0.224,4.637,3.622,8.473,8.265,8.473
	h16.554c4.462,0,7.982-3.559,8.239-8.014c2.138-37.075,18.635-64.792,28.63-78.38L197.409,260.125z"/>
<path style="fill:#D1F4FF;" d="M421.16,132.129h-8.258v-8.258c0-4.565-3.694-8.258-8.258-8.258s-8.258,3.694-8.258,8.258v8.258
	h-8.258c-4.565,0-8.258,3.694-8.258,8.258s3.694,8.258,8.258,8.258h8.258v8.258c0,4.565,3.694,8.258,8.258,8.258
	s8.258-3.694,8.258-8.258v-8.258h8.258c4.565,0,8.258-3.694,8.258-8.258S425.725,132.129,421.16,132.129z"/>
<path style="fill:#B2EDFF;" d="M82.58,305.548h-8.258v-8.258c0-4.565-3.694-8.258-8.258-8.258s-8.258,3.694-8.258,8.258v8.258
	h-8.258c-4.565,0-8.258,3.694-8.258,8.258s3.694,8.258,8.258,8.258h8.258v8.258c0,4.565,3.694,8.258,8.258,8.258
	s8.258-3.694,8.258-8.258v-8.258h8.258c4.565,0,8.258-3.694,8.258-8.258S87.144,305.548,82.58,305.548z"/>
<path style="fill:#D1F4FF;" d="M114.902,136.258l6.548-6.548c3.226-3.226,3.226-8.452,0-11.677s-8.452-3.226-11.677,0l-6.548,6.548
	l-6.548-6.548c-3.226-3.226-8.452-3.226-11.677,0c-3.226,3.226-3.226,8.452,0,11.677l6.548,6.548l-6.549,6.549
	c-3.226,3.226-3.226,8.452,0,11.677c1.613,1.613,3.726,2.419,5.839,2.419s4.226-0.806,5.839-2.419l6.548-6.548l6.548,6.548
	c1.613,1.613,3.726,2.419,5.839,2.419s4.226-0.806,5.839-2.419c3.226-3.226,3.226-8.452,0-11.677L114.902,136.258z"/>
<g>
	<path style="fill:#B2EDFF;" d="M461.741,317.936l6.548-6.548c3.226-3.226,3.226-8.452,0-11.677c-3.226-3.226-8.452-3.226-11.677,0
		l-6.548,6.548l-6.548-6.548c-3.226-3.226-8.452-3.226-11.677,0c-3.226,3.226-3.226,8.452,0,11.677l6.548,6.548l-6.548,6.548
		c-3.226,3.226-3.226,8.452,0,11.677c1.613,1.613,3.726,2.419,5.839,2.419c2.113,0,4.226-0.806,5.839-2.419l6.548-6.548l6.548,6.548
		c1.613,1.613,3.726,2.419,5.839,2.419c2.113,0,4.226-0.806,5.839-2.419c3.226-3.226,3.226-8.452,0-11.677L461.741,317.936z"/>
	<path style="fill:#B2EDFF;" d="M146.225,35.452c-2.721-2.721-6.801-3.005-9.968-1.136c-3.167-1.869-7.246-1.586-9.968,1.136
		c-2.721,2.721-3.005,6.801-1.136,9.968c-1.869,3.167-1.586,7.246,1.136,9.968c1.613,1.613,3.726,2.419,5.839,2.419
		c1.452,0,2.839-0.522,4.129-1.284c1.29,0.762,2.677,1.284,4.129,1.284c2.113,0,4.226-0.806,5.839-2.419
		c2.721-2.721,3.005-6.801,1.136-9.968C149.23,42.253,148.946,38.173,146.225,35.452z"/>
</g>
<path style="fill:#D1F4FF;" d="M468.289,398.806c-2.721-2.721-6.801-3.005-9.968-1.136c-3.167-1.869-7.246-1.586-9.968,1.136
	c-2.721,2.721-3.005,6.801-1.136,9.968c-1.869,3.167-1.586,7.246,1.136,9.968c1.613,1.613,3.726,2.419,5.839,2.419
	c1.452,0,2.839-0.522,4.129-1.284c1.29,0.762,2.677,1.284,4.129,1.284c2.113,0,4.226-0.806,5.839-2.419
	c2.721-2.721,3.005-6.801,1.136-9.968C471.294,405.607,471.011,401.528,468.289,398.806z"/>
<path style="fill:#B2EDFF;" d="M437.757,82.581c-4.565,0-8.298-3.694-8.298-8.258c0-4.565,3.653-8.258,8.218-8.258h0.081
	c4.564,0,8.258,3.694,8.258,8.258C446.015,78.887,442.321,82.581,437.757,82.581z"/>
<path style="fill:#D1F4FF;" d="M82.66,412.903c-4.565,0-8.298-3.694-8.298-8.258c0-4.565,3.653-8.258,8.218-8.258h0.081
	c4.564,0,8.258,3.694,8.258,8.258C90.918,409.21,87.225,412.903,82.66,412.903z"/>
<circle style="fill:#EDEBED;" cx="255.909" cy="181.68" r="99.1"/>
<path style="fill:#DBD9DC;" d="M287.971,248.714c-54.73,0-99.097-44.367-99.097-99.097c0-19.145,5.521-36.96,14.923-52.113
	c-28.166,17.477-46.984,48.588-46.984,84.173c0,54.73,44.367,99.097,99.097,99.097c35.585,0,66.697-18.819,84.173-46.984
	C324.931,243.192,307.116,248.714,287.971,248.714z"/>
<path style="fill:#5D5360;" d="M255.999,247.742c-10.21,0-20.121-3.274-29.468-9.718c-3.75-2.589-4.694-7.734-2.105-11.492
	c2.589-3.758,7.726-4.685,11.492-2.105c13.048,9.008,27.056,9.016,40.169,0c3.75-2.589,8.887-1.645,11.484,2.113
	c2.589,3.75,1.645,8.895-2.113,11.484C276.112,244.476,266.193,247.742,255.999,247.742z"/>
<path style="fill:#4B3F4E;" d="M214.62,198.194L214.62,198.194c-9.122,0-16.516-7.395-16.516-16.516v-8.258
	c0-9.122,7.395-16.516,16.516-16.516l0,0c9.122,0,16.516,7.395,16.516,16.516v8.258C231.136,190.799,223.742,198.194,214.62,198.194
	z"/>
<path style="fill:#5D5360;" d="M214.62,156.903v24.774c0,4.56,3.697,8.258,8.258,8.258s8.258-3.698,8.258-8.258v-8.258
	C231.136,164.297,223.741,156.903,214.62,156.903z"/>
<circle style="fill:#FFFFFF;" cx="214.619" cy="173.42" r="8.258"/>
<path style="fill:#4B3F4E;" d="M297.201,198.194L297.201,198.194c-9.122,0-16.516-7.395-16.516-16.516v-8.258
	c0-9.122,7.395-16.516,16.516-16.516l0,0c9.122,0,16.516,7.395,16.516,16.516v8.258
	C313.717,190.799,306.322,198.194,297.201,198.194z"/>
<path style="fill:#5D5360;" d="M297.201,156.903v24.774c0,4.56,3.697,8.258,8.258,8.258s8.258-3.698,8.258-8.258v-8.258
	C313.717,164.297,306.322,156.903,297.201,156.903z"/>
<circle style="fill:#FFFFFF;" cx="297.199" cy="173.42" r="8.258"/>
<path style="fill:#FF8087;" d="M338.58,82.581H173.418c-4.561,0-8.258,3.697-8.258,8.258v16.516c0,4.56,3.697,8.258,8.258,8.258
	h165.161c4.561,0,8.258-3.698,8.258-8.258V90.839C346.838,86.278,343.141,82.581,338.58,82.581z"/>
<path style="fill:#E6646E;" d="M274.249,5.345c-10.967-7.127-25.534-7.127-36.501,0c-44.811,29.12-64.33,77.236-64.33,77.236
	h165.161C338.58,82.581,319.061,34.465,274.249,5.345z"/>
<path style="fill:#DC4655;" d="M173.418,82.581h57.806c0,0,5.855-48.116,19.299-77.236C252.169,1.781,254.084,0,255.999,0
	c-6.384,0-12.767,1.781-18.251,5.345C192.937,34.464,173.418,82.581,173.418,82.581z"/>
<path style="fill:#E6646E;" d="M214.709,107.355V90.839c0-4.561,3.697-8.258,8.258-8.258h-49.548c-4.561,0-8.258,3.697-8.258,8.258
	v16.516c0,4.56,3.697,8.258,8.258,8.258h49.548C218.406,115.613,214.709,111.915,214.709,107.355z"/>
<g>
</g>
<g>
</g>
<g>
</g>
<g>
</g>
<g>
</g>
<g>
</g>
<g>
</g>
<g>
</g>
<g>
</g>
<g>
</g>
<g>
</g>
<g>
</g>
<g>
</g>
<g>
</g>
<g>
</g>
</svg>
