<?xml version="1.0" encoding="iso-8859-1"?>
<!-- Generator: Adobe Illustrator 19.0.0, SVG Export Plug-In . SVG Version: 6.00 Build 0)  -->
<svg version="1.1" id="Capa_1" xmlns="http://www.w3.org/2000/svg" xmlns:xlink="http://www.w3.org/1999/xlink" x="0px" y="0px"
	 viewBox="0 0 512 512" style="enable-background:new 0 0 512 512;" xml:space="preserve">
<g>
	<path style="fill:#D2A582;" d="M70.935,161.032c-0.5,0-1.004-0.044-1.512-0.137c-4.488-0.835-7.448-5.141-6.617-9.625
		L82.718,43.915c0.831-4.484,5.125-7.435,9.625-6.617c4.488,0.835,7.448,5.141,6.617,9.625L79.048,154.278
		C78.31,158.254,74.839,161.032,70.935,161.032z"/>
	<path style="fill:#D2A582;" d="M44.879,161.032c-3.899,0-7.367-2.77-8.109-6.738L16.657,46.94
		c-0.839-4.484,2.113-8.798,6.597-9.637c4.484-0.847,8.802,2.117,9.637,6.597l20.113,107.355c0.839,4.484-2.113,8.798-6.597,9.637
		C45.895,160.988,45.383,161.032,44.879,161.032z"/>
</g>
<path style="fill:#F5DCB4;" d="M488.298,453.532l-42.362-28.241l-323.091-98.078c-14.242-8.704-23.748-24.397-23.748-42.309V177.548
	c0-22.804-18.486-41.29-41.29-41.29H24.774C11.092,136.258,0,147.35,0,161.032v8.258c0,21.565,13.8,39.859,33.032,46.668v101.977
	c0,91.216,73.945,165.161,165.161,165.161h281.153c8.913,0,16.138-7.225,16.138-16.138
	C495.484,461.564,492.787,456.525,488.298,453.532z"/>
<circle style="fill:#5D5360;" cx="90.84" cy="45.42" r="16.516"/>
<circle style="fill:#FFFFFF;" cx="94.28" cy="43.09" r="6.979"/>
<circle style="fill:#5D5360;" cx="24.774" cy="45.42" r="16.516"/>
<circle style="fill:#FFFFFF;" cx="27.11" cy="43.09" r="6.979"/>
<path style="fill:#EBC9A0;" d="M462.452,466.581H361.984H231.226c-91.216,0-165.161-73.946-165.161-165.161v-80.385
	c0-6.077-3.471-11.428-8.701-14.525c-14.558-8.619-24.332-24.451-24.332-42.598v-27.654h-8.258C11.092,136.258,0,147.35,0,161.032
	v8.258c0,21.565,13.8,39.859,33.032,46.668v101.977c0,91.216,73.945,165.161,165.161,165.161h264.258
	c4.561,0,8.258-3.698,8.258-8.258C470.71,470.278,467.013,466.581,462.452,466.581z"/>
<path style="fill:#AF6E5A;" d="M324.48,112.528c-129.456,0-210.409,105.067-199.654,222.543
	c2.986,32.612,46.219,102.822,132.299,53.218c20.494,36.819,59.73,61.776,104.859,61.776C444.836,450.065,512,382.9,512,300.048
	C512,196.483,428.044,112.528,324.48,112.528z"/>
<g>
	<path style="fill:#965A50;" d="M174.374,358.801c-10.755-117.476,70.199-222.543,199.654-222.543
		c19.251,0,37.82,2.911,55.302,8.299c-29.929-20.222-66.011-32.03-104.85-32.03c-129.456,0-210.409,105.067-199.654,222.543
		c2.182,23.838,25.899,67.711,72.106,70.249C183.038,390.407,175.553,371.68,174.374,358.801z"/>
	<path style="fill:#965A50;" d="M421.328,310.851c0-46.907-38.161-85.069-85.069-85.069c-35.73,0-71.48,21.323-91.081,54.323
		c-11.921,20.07-26.826,60.565-2.768,115.682c4.757-2.117,9.648-4.58,14.699-7.49c-15.426-36.133-14.755-71.09,2.271-99.757
		c16.427-27.657,47.323-46.242,76.879-46.242c37.798,0,68.552,30.754,68.552,68.552c0,29.327-23.859,53.185-53.19,53.185
		c-22.552,0-40.899-18.347-40.899-40.899c0-19.524,14.048-29.435,27.101-30.387c11.383-0.806,24.52,4.968,27.258,23.718
		c0.653,4.512,4.871,7.633,9.363,6.976c4.512-0.657,7.637-4.851,6.976-9.363c-4.097-28.06-25.423-39.194-44.794-37.802
		c-21.081,1.532-42.419,18.121-42.419,46.859c0,31.657,25.758,57.415,57.415,57.415
		C390.058,380.552,421.328,349.286,421.328,310.851z"/>
</g>
<path style="fill:#D2A582;" d="M49.548,219.459c-5.878,0-11.449-1.276-16.516-3.5v17.582c5.238,1.566,10.775,2.434,16.516,2.434
	c4.56,0,8.258-3.698,8.258-8.258S54.109,219.459,49.548,219.459z"/>
<g>
</g>
<g>
</g>
<g>
</g>
<g>
</g>
<g>
</g>
<g>
</g>
<g>
</g>
<g>
</g>
<g>
</g>
<g>
</g>
<g>
</g>
<g>
</g>
<g>
</g>
<g>
</g>
<g>
</g>
</svg>
