<?xml version="1.0" encoding="iso-8859-1"?>
<!-- Generator: Adobe Illustrator 19.0.0, SVG Export Plug-In . SVG Version: 6.00 Build 0)  -->
<svg version="1.1" id="Capa_1" xmlns="http://www.w3.org/2000/svg" xmlns:xlink="http://www.w3.org/1999/xlink" x="0px" y="0px"
	 viewBox="0 0 512 512" style="enable-background:new 0 0 512 512;" xml:space="preserve">
<path style="fill:#FF96A0;" d="M512,11.24c0,0-8.25,143.994-107.348,168.768l-74.324-82.582C355.103,64.394,425.496-0.082,512,11.24
	z"/>
<path style="fill:#E6646E;" d="M404.652,180.009l-39.494-43.882c14.719-46.958,80.785-113.024,145.413-111.335
	C505.676,61.223,485.1,159.897,404.652,180.009z"/>
<path style="fill:#FF96A0;" d="M0,11.24c0,0,8.25,143.994,107.348,168.768l74.324-82.582C156.897,64.394,86.504-0.082,0,11.24z"/>
<path style="fill:#E6646E;" d="M107.348,180.009l39.494-43.882C132.123,89.169,66.057,23.103,1.428,24.792
	C6.324,61.223,26.9,159.897,107.348,180.009z"/>
<path style="fill:#FFAAB4;" d="M462.451,320.398c0,100.339-92.433,181.68-206.455,181.68s-206.455-81.34-206.455-181.68
	c0-115.615,92.433-247.746,206.455-247.746S462.451,204.783,462.451,320.398z"/>
<path style="fill:#DC4655;" d="M185.253,403.893c8.888,28.305,33.329,48.636,62.089,48.636h17.308
	c29.068,0,53.725-20.769,62.369-49.549L185.253,403.893z"/>
<path style="fill:#E6646E;" d="M348.818,372.484c0,52.988-64.93,36.235-92.749,36.235c-27.239,0-92.71,16.753-92.71-36.235
	c0-54.119,41.463-92.106,92.676-92.106S348.818,318.365,348.818,372.484z"/>
<path style="fill:#FF96A0;" d="M121.112,323.363c0-98.217,56.178-207.355,134.961-250.707c-0.026,0-0.051-0.003-0.077-0.003
	c-114.022,0-206.455,132.131-206.455,247.746c0,94.685,82.321,172.416,187.409,180.881
	C168.36,469.09,121.112,401.527,121.112,323.363z"/>
<g>
	
		<ellipse transform="matrix(0.4744 -0.8803 0.8803 0.4744 -197.3232 382.7459)" style="fill:#A5465A;" cx="221.864" cy="356.619" rx="20.495" ry="16.703"/>
	
		<ellipse transform="matrix(0.4744 0.8803 -0.8803 0.4744 466.4368 -67.9822)" style="fill:#A5465A;" cx="290.149" cy="356.62" rx="20.495" ry="16.703"/>
</g>
<path style="fill:#4B3F4E;" d="M165.156,270.849L165.156,270.849c-13.683,0-24.775-11.092-24.775-24.775v-8.258
	c0-13.683,11.092-24.775,24.775-24.775l0,0c13.683,0,24.775,11.092,24.775,24.775v8.258
	C189.93,259.757,178.838,270.849,165.156,270.849z"/>
<path style="fill:#5D5360;" d="M165.155,213.042v28.904c0,6.841,5.546,12.387,12.387,12.387c6.841,0,12.387-5.546,12.387-12.387
	v-4.129C189.93,224.134,178.838,213.042,165.155,213.042z"/>
<circle style="fill:#FFFFFF;" cx="165.16" cy="229.561" r="8.258"/>
<path style="fill:#4B3F4E;" d="M346.836,270.849L346.836,270.849c-13.683,0-24.775-11.092-24.775-24.775v-8.258
	c0-13.683,11.092-24.775,24.775-24.775l0,0c13.683,0,24.775,11.092,24.775,24.775v8.258
	C371.611,259.757,360.519,270.849,346.836,270.849z"/>
<path style="fill:#5D5360;" d="M346.836,213.042v28.904c0,6.841,5.546,12.387,12.387,12.387s12.387-5.546,12.387-12.387v-4.129
	C371.611,224.134,360.519,213.042,346.836,213.042z"/>
<circle style="fill:#FFFFFF;" cx="346.84" cy="229.561" r="8.258"/>
<g>
</g>
<g>
</g>
<g>
</g>
<g>
</g>
<g>
</g>
<g>
</g>
<g>
</g>
<g>
</g>
<g>
</g>
<g>
</g>
<g>
</g>
<g>
</g>
<g>
</g>
<g>
</g>
<g>
</g>
</svg>
