<?xml version="1.0" encoding="iso-8859-1"?>
<!-- Generator: Adobe Illustrator 19.0.0, SVG Export Plug-In . SVG Version: 6.00 Build 0)  -->
<svg version="1.1" id="Capa_1" xmlns="http://www.w3.org/2000/svg" xmlns:xlink="http://www.w3.org/1999/xlink" x="0px" y="0px"
	 viewBox="0 0 512 512" style="enable-background:new 0 0 512 512;" xml:space="preserve">
<path style="fill:#FFDC64;" d="M289.372,84.201l-27.64-80.114c-1.88-5.448-9.584-5.448-11.464,0l-27.64,80.114l-1.541,0.306
	l-56.195-63.438c-3.821-4.314-10.94-1.365-10.591,4.387l5.122,84.593l-0.105,1.458L81.923,73.818
	c-5.181-2.523-10.629,2.925-8.106,8.106l37.689,77.395l-0.124,0.185l-85.927-5.203c-5.752-0.348-8.701,6.77-4.387,10.591
	l64.438,57.081l-0.044,0.219L4.086,250.269c-5.448,1.88-5.448,9.584,0,11.464l81.377,28.076l0.044,0.219l-64.438,57.081
	c-4.314,3.821-1.365,10.94,4.387,10.591l85.927-5.203l0.124,0.185l-37.689,77.395c-2.523,5.181,2.925,10.629,8.106,8.106
	l77.395-37.689l0.185,0.124l-5.203,85.927c-0.348,5.752,6.77,8.701,10.591,4.387l57.081-64.438l0.219,0.043l28.076,81.377
	c1.88,5.448,9.584,5.448,11.464,0l28.076-81.377l0.219-0.043l57.081,64.438c3.821,4.314,10.94,1.365,10.591-4.387l-5.203-85.927
	l1.387,0.461l76.194,37.104c5.181,2.523,10.629-2.925,8.106-8.106l-37.104-76.194l0.873-1.306l84.593,5.122
	c5.752,0.348,8.701-6.77,4.387-10.591l-63.438-56.195l0.306-1.541l80.114-27.64c5.448-1.88,5.448-9.584,0-11.464l-80.114-27.64
	l-0.306-1.541l63.438-56.195c4.314-3.821,1.365-10.94-4.387-10.591l-84.593,5.122l-0.873-1.306l37.104-76.194
	c2.523-5.181-2.925-10.629-8.106-8.106l-76.194,37.104l-1.306-0.873l5.122-84.593c0.348-5.752-6.77-8.701-10.591-4.387
	l-56.195,63.438"/>
<circle style="fill:#FFC850;" cx="256.86" cy="254.711" r="172.38"/>
<path style="fill:#EBAF4B;" d="M313.394,370.557c-95.205,0-172.384-77.179-172.384-172.384c0-33.117,9.357-64.04,25.545-90.305
	c-49.242,30.348-82.079,84.751-82.079,146.839c0,95.205,77.179,172.384,172.384,172.384c62.088,0,116.491-32.838,146.839-82.079
	C377.434,361.2,346.511,370.557,313.394,370.557z"/>
<g>
	<path style="fill:#DC9B41;" d="M256,307.974c-15.201,0-28.897-9.212-34.086-22.916c-1.696-4.475,0.558-9.474,5.033-11.175
		c4.466-1.692,9.47,0.567,11.166,5.033c2.656,7.021,9.846,11.733,17.887,11.733c8.041,0,15.231-4.712,17.887-11.733
		c1.696-4.466,6.683-6.725,11.166-5.033c4.475,1.7,6.729,6.7,5.033,11.175C284.897,298.762,271.201,307.974,256,307.974z"/>
	<path style="fill:#DC9B41;" d="M256,377.272c-9.424,0-18.686-0.812-27.53-2.411c-4.708-0.854-7.833-5.363-6.979-10.075
		c0.854-4.695,5.38-7.833,10.066-6.979c15.658,2.842,33.228,2.842,48.886,0c4.691-0.854,9.212,2.284,10.066,6.979
		c0.854,4.712-2.271,9.22-6.979,10.075C274.686,376.46,265.424,377.272,256,377.272z"/>
</g>
<path style="fill:#D7823C;" d="M322.151,325.079l-6.497-12.452c-2.212-4.238-7.457-5.888-11.686-3.671
	c-3.311,1.729-4.967,5.286-4.515,8.786c-10.969,4.774-26.759,7.557-43.453,7.557s-32.484-2.784-43.453-7.557
	c0.452-3.5-1.204-7.057-4.515-8.786c-4.225-2.208-9.466-0.567-11.686,3.671l-6.497,12.452c-2.212,4.246-0.567,9.474,3.676,11.691
	c1.277,0.668,2.648,0.981,3.997,0.981c3.025,0,5.918-1.611,7.506-4.397c13.313,5.924,31.483,9.269,50.972,9.269
	s37.659-3.346,50.972-9.269c1.588,2.785,4.482,4.397,7.506,4.397c1.349,0,2.72-0.313,3.997-0.981
	C322.717,334.553,324.363,329.325,322.151,325.079z"/>
<path style="fill:#4B3F4E;" d="M191.034,256.001L191.034,256.001c-11.96,0-21.656-9.695-21.656-21.655v-8.662
	c0-11.96,9.695-21.655,21.655-21.655l0,0c11.96,0,21.655,9.695,21.655,21.655v8.662
	C212.689,246.306,202.994,256.001,191.034,256.001z"/>
<path style="fill:#5D5360;" d="M191.034,204.028c-1.484,0-2.931,0.152-4.331,0.437v21.219c0,7.176,5.817,12.993,12.993,12.993
	s12.993-5.817,12.993-12.993C212.689,213.723,202.994,204.028,191.034,204.028z"/>
<circle style="fill:#FFFFFF;" cx="195.37" cy="221.351" r="8.662"/>
<path style="fill:#4B3F4E;" d="M320.966,256.001L320.966,256.001c-11.96,0-21.655-9.695-21.655-21.655v-8.662
	c0-11.96,9.695-21.655,21.655-21.655l0,0c11.96,0,21.655,9.695,21.655,21.655v8.662
	C342.622,246.306,332.926,256.001,320.966,256.001z"/>
<path style="fill:#5D5360;" d="M320.966,204.028c-1.484,0-2.931,0.152-4.331,0.437v21.219c0,7.176,5.817,12.993,12.993,12.993
	s12.993-5.817,12.993-12.993C342.622,213.723,332.927,204.028,320.966,204.028z"/>
<circle style="fill:#FFFFFF;" cx="325.3" cy="221.351" r="8.662"/>
<g>
</g>
<g>
</g>
<g>
</g>
<g>
</g>
<g>
</g>
<g>
</g>
<g>
</g>
<g>
</g>
<g>
</g>
<g>
</g>
<g>
</g>
<g>
</g>
<g>
</g>
<g>
</g>
<g>
</g>
</svg>
