<?xml version="1.0" encoding="iso-8859-1"?>
<!-- Generator: Adobe Illustrator 19.0.0, SVG Export Plug-In . SVG Version: 6.00 Build 0)  -->
<svg version="1.1" id="Capa_1" xmlns="http://www.w3.org/2000/svg" xmlns:xlink="http://www.w3.org/1999/xlink" x="0px" y="0px"
	 viewBox="0 0 512.002 512.002" style="enable-background:new 0 0 512.002 512.002;" xml:space="preserve">
<path style="fill:#494F57;" d="M406.821,483.353c-0.823,0-1.66-0.137-2.481-0.425c-28.314-9.928-49.687-29.642-63.523-58.594
	c-13.643-28.55-16.508-58.955-16.508-79.435c0-4.143,3.357-7.5,7.5-7.5s7.5,3.357,7.5,7.5c0,18.929,2.609,46.952,15.042,72.967
	c12.053,25.22,30.542,42.348,54.952,50.907c3.909,1.37,5.967,5.65,4.596,9.559C412.816,481.421,409.918,483.353,406.821,483.353z"/>
<path style="fill:#52B4DE;" d="M346.355,308.938h-29.093l-24.454,44.325c-3.014,5.462-0.476,12.327,5.365,14.516l0,0
	c21.687,8.128,45.584,8.128,67.271,0l0,0c5.842-2.189,8.379-9.054,5.365-14.516L346.355,308.938z"/>
<path style="opacity:0.2;enable-background:new    ;" d="M346.355,308.938h-29.093l-24.454,44.325
	c-3.014,5.462-0.476,12.327,5.365,14.516l0,0c21.687,8.128,45.584,8.128,67.271,0l0,0c5.842-2.189,8.379-9.054,5.365-14.516
	L346.355,308.938z"/>
<path id="SVGCleanerId_0" style="fill:#52B4DE;" d="M473.047,141.238C473.047,63.235,409.813,0,331.809,0
	S190.571,63.235,190.571,141.238s63.234,186.804,141.238,186.804S473.047,219.242,473.047,141.238z"/>
<g>
	<path id="SVGCleanerId_0_1_" style="fill:#52B4DE;" d="M473.047,141.238C473.047,63.235,409.813,0,331.809,0
		S190.571,63.235,190.571,141.238s63.234,186.804,141.238,186.804S473.047,219.242,473.047,141.238z"/>
</g>
<path style="opacity:0.1;enable-background:new    ;" d="M295.663,4.676c-60.491,15.969-105.092,71.053-105.092,136.562
	c0,78.004,63.234,186.804,141.238,186.804c17.891,0,35.001-5.736,50.753-15.499C269.954,298.341,204.862,79.273,295.663,4.676z"/>
<path style="fill:#494F57;" d="M255.205,512.002c-0.823,0-1.661-0.137-2.482-0.425c-28.314-9.928-49.686-29.642-63.522-58.595
	c-13.644-28.55-16.508-58.955-16.508-79.434c0-4.143,3.358-7.5,7.5-7.5s7.5,3.357,7.5,7.5c0,18.929,2.609,46.952,15.042,72.967
	c12.053,25.221,30.541,42.349,54.952,50.908c3.908,1.37,5.966,5.65,4.596,9.559C261.199,510.069,258.301,512.002,255.205,512.002z"
	/>
<path style="fill:#FBE067;" d="M194.739,337.586h-29.093l-24.454,44.325c-3.014,5.462-0.477,12.327,5.365,14.516l0,0
	c21.687,8.128,45.584,8.128,67.271,0l0,0c5.842-2.19,8.379-9.054,5.365-14.516L194.739,337.586z"/>
<path style="opacity:0.2;enable-background:new    ;" d="M194.739,337.586h-29.093l-24.454,44.325
	c-3.014,5.462-0.477,12.327,5.365,14.516l0,0c21.687,8.128,45.584,8.128,67.271,0l0,0c5.842-2.19,8.379-9.054,5.365-14.516
	L194.739,337.586z"/>
<path id="SVGCleanerId_1" style="fill:#FBE067;" d="M321.431,169.886c0-78.004-63.235-141.238-141.238-141.238
	S38.955,91.882,38.955,169.886S102.189,356.69,180.193,356.69S321.431,247.89,321.431,169.886z"/>
<g>
	<path id="SVGCleanerId_1_1_" style="fill:#FBE067;" d="M321.431,169.886c0-78.004-63.235-141.238-141.238-141.238
		S38.955,91.882,38.955,169.886S102.189,356.69,180.193,356.69S321.431,247.89,321.431,169.886z"/>
</g>
<path style="opacity:0.1;enable-background:new    ;" d="M144.047,33.324C83.556,49.293,38.955,104.377,38.955,169.886
	c0,78.004,63.234,186.804,141.238,186.804c17.891,0,35.001-5.736,50.753-15.499C118.338,326.989,53.246,107.921,144.047,33.324z"/>
<g>
	<path style="fill:#494F57;" d="M113.432,144.907c-4.142,0-7.5-3.357-7.5-7.5v-11.268c0-4.143,3.358-7.5,7.5-7.5s7.5,3.357,7.5,7.5
		v11.268C120.932,141.55,117.574,144.907,113.432,144.907z"/>
	<path style="fill:#494F57;" d="M245.566,144.907c-4.142,0-7.5-3.357-7.5-7.5v-11.268c0-4.143,3.358-7.5,7.5-7.5s7.5,3.357,7.5,7.5
		v11.268C253.066,141.55,249.708,144.907,245.566,144.907z"/>
	<path style="fill:#494F57;" d="M180.193,165.05L180.193,165.05c-10.505,0-19.02-8.516-19.02-19.02v-13.828
		c0-2.868,2.325-5.192,5.192-5.192h27.656c2.868,0,5.192,2.325,5.192,5.192v13.828C199.213,156.534,190.697,165.05,180.193,165.05z"
		/>
</g>
<g>
</g>
<g>
</g>
<g>
</g>
<g>
</g>
<g>
</g>
<g>
</g>
<g>
</g>
<g>
</g>
<g>
</g>
<g>
</g>
<g>
</g>
<g>
</g>
<g>
</g>
<g>
</g>
<g>
</g>
</svg>
