<?xml version="1.0" encoding="iso-8859-1"?>
<!-- Generator: Adobe Illustrator 19.0.0, SVG Export Plug-In . SVG Version: 6.00 Build 0)  -->
<svg version="1.1" id="Capa_1" xmlns="http://www.w3.org/2000/svg" xmlns:xlink="http://www.w3.org/1999/xlink" x="0px" y="0px"
	 viewBox="0 0 512.001 512.001" style="enable-background:new 0 0 512.001 512.001;" xml:space="preserve">
<g>
	<path style="fill:#867E88;" d="M322.157,370.953v38.27l-13.275,1.659c-6.598,0.825-11.549,6.434-11.549,13.083
		c0,7.282,5.903,13.185,13.185,13.185h44.738c9.14,0,16.549-7.41,16.549-16.549v-49.648L322.157,370.953L322.157,370.953z"/>
	<path style="fill:#867E88;" d="M140.114,380.779v28.444l-13.275,1.659c-6.598,0.825-11.549,6.434-11.549,13.083
		c0,7.282,5.903,13.185,13.185,13.185h36.463c9.14,0,16.549-7.41,16.549-16.549v-39.822H140.114z"/>
</g>
<g>
	<path style="fill:#9C969E;" d="M363.531,370.953v38.27l-13.275,1.659c-6.598,0.825-11.549,6.434-11.549,13.083
		c0,7.282,5.903,13.185,13.185,13.185h44.738c9.14,0,16.549-7.41,16.549-16.549v-49.648L363.531,370.953L363.531,370.953z"/>
	<path style="fill:#9C969E;" d="M181.487,380.779v28.444l-13.275,1.659c-6.598,0.825-11.549,6.434-11.549,13.083
		c0,7.282,5.903,13.185,13.185,13.185h36.463c9.14,0,16.549-7.41,16.549-16.549v-39.822H181.487z"/>
</g>
<path style="fill:#F5DCB4;" d="M144.51,239.592c-39.994-6.206-61.629,26.548-120.242,32.064
	c-15.809,1.488-21.551,11.23-23.636,18.057c-1.15,3.765-0.724,7.885,1.254,11.289c64.863,111.639,419.251,132.444,498.866,9.959
	l-47.579-47.58L144.51,239.592z"/>
<path style="fill:#EBC9A0;" d="M5.157,281.062c-2.309,2.888-3.711,5.987-4.525,8.652c-1.149,3.765-0.723,7.885,1.254,11.288
	c64.863,111.64,419.251,132.444,498.866,9.96l-7.635-7.635C294.668,442.929,50.127,329.062,5.157,281.062z"/>
<path style="fill:#9C969E;" d="M144.51,239.592c-5.771-0.895-11.134-0.908-16.306-0.38c-3.266,0.549-6.607,1.136-10.017,1.754
	c-26.144,6.584-49.342,26.495-93.919,30.69c-15.821,1.49-21.559,11.245-23.64,18.073c-1.144,3.755-0.722,7.863,1.25,11.257
	c19.128,32.925,63.507,57.895,118.527,73.676c22.953-16.609,37.945-43.546,37.945-74.044c0-21.908-9.532-37.949,3.416-59.696
	L144.51,239.592z"/>
<path style="fill:#867E88;" d="M508.832,219.236c-10.936-8.144-44.539-31.877-73.932-39.118l23.989-14.89
	c2.68-1.663,2.501-5.609-0.343-6.971c-14.415-6.904-52.198-22.56-101.221-24.168l22.93-21.231c2.267-2.099,1.414-5.887-1.554-6.744
	c-16.383-4.732-61.249-14.315-108.949,4.875l9.022-31.014c0.886-3.046-1.922-5.877-4.954-4.943
	c-17.89,5.512-66.9,23.488-107.502,64.918l-5.912-16.661c-0.87-2.453-3.777-3.459-5.939-2.01
	c-16.415,11.003-73.801,55.297-57.794,127.622c85.279-25.388,185.392,41.122,211.766,59.792c2.045,1.448,4.862,0.655,5.899-1.627
	l16.095-35.409c0,0,35.898,13.707,87.374,44.929c2.197,1.332,5.1,0.312,5.896-2.13l8.785-26.94
	c37.046,9.385,62.063,24.432,73.274,32.213c2.79,1.936,6.531-0.228,6.221-3.61c-1.328-14.519-6.231-44.652-24.331-69.286
	l21.595-21.595C510.969,223.516,510.785,220.691,508.832,219.236z"/>
<path style="fill:#6F6571;" d="M434.9,180.118l23.989-14.89c2.68-1.663,2.502-5.609-0.343-6.971
	c-14.415-6.904-52.198-22.56-101.221-24.168l22.93-21.231c2.267-2.099,1.414-5.887-1.555-6.744
	c-16.382-4.732-61.249-14.315-108.949,4.875l9.022-31.014c0.886-3.046-1.923-5.877-4.954-4.943
	c-17.89,5.512-66.9,23.488-107.502,64.918l-5.912-16.662c-0.87-2.453-3.777-3.459-5.939-2.01
	c-16.415,11.003-73.801,55.297-57.794,127.622c27.189-8.094,55.879-6.826,83.213-0.766c0,0,22.806-51.985,75.558-76.292
	l10.343,27.927C265.786,199.77,332.846,165.12,434.9,180.118z"/>
<circle style="fill:#4B3F4E;" cx="107.02" cy="296.481" r="16.549"/>
<g>
	<path style="fill:#867E88;" d="M193.37,184.506c-1.733,0-3.483-0.541-4.974-1.665c-3.648-2.756-4.376-7.943-1.624-11.596
		c9.822-13.018,26.008-31.531,47.357-45.761c3.802-2.537,8.937-1.503,11.475,2.295c2.533,3.806,1.507,8.937-2.295,11.475
		c-19.414,12.945-34.275,29.963-43.325,41.963C198.36,183.366,195.879,184.506,193.37,184.506z"/>
	<path style="fill:#867E88;" d="M277.196,166.187c-2.626,0-5.204-1.244-6.812-3.564c-2.602-3.766-1.665-8.913,2.093-11.515
		c10.028-6.933,26.456-16.258,47.782-21.285c4.412-1.01,8.905,1.713,9.956,6.158c1.042,4.452-1.713,8.905-6.158,9.955
		c-18.812,4.428-33.309,12.663-42.157,18.78C280.461,165.71,278.82,166.187,277.196,166.187z"/>
</g>
<g>
	<path style="fill:#9C969E;" d="M357.349,182.461c-4.113,0-7.677-3.055-8.202-7.24c-0.574-4.533,2.642-8.671,7.176-9.244
		c22.731-2.869,42.909-1.253,43.749-1.172c4.549,0.372,7.935,4.372,7.556,8.921c-0.372,4.558-4.541,7.927-8.921,7.572
		c-0.194-0.024-19.378-1.552-40.315,1.099C358.044,182.437,357.697,182.461,357.349,182.461z"/>
	<path style="fill:#9C969E;" d="M460.056,241.305c-1.624,0-3.273-0.477-4.711-1.479c-0.073-0.048-7.507-5.156-18.602-9.341
		c-4.275-1.608-6.44-6.384-4.824-10.659c1.6-4.275,6.376-6.448,10.659-4.824c13.155,4.954,21.875,10.998,22.238,11.257
		c3.741,2.61,4.646,7.758,2.044,11.499C465.252,240.069,462.674,241.305,460.056,241.305z"/>
</g>
<path style="fill:#EBC9A0;" d="M170.801,231.001c-10.37,2.272-18.837,10.554-21.464,20.839c-1.697,6.644-1.021,12.947,1.282,18.413
	c1.103,2.619,4.819,3.208,6.626,1.015c3.793-4.605,9.537-7.542,15.969-7.542c8.774,0,16.213,5.479,19.198,13.194
	c1.131,2.923,5.165,3.252,7.176,0.848c4.195-5.017,6.725-11.471,6.725-18.524C206.312,241.113,189.649,226.872,170.801,231.001z"/>
<path style="fill:#867E88;" d="M5.158,281.062c-2.313,2.894-3.717,5.999-4.53,8.667c-1.144,3.755-0.722,7.863,1.25,11.258
	c19.128,32.925,63.507,57.895,118.527,73.676c8.92-6.455,16.589-14.503,22.692-23.681C75.039,331.156,23.497,300.638,5.158,281.062z
	"/>
<path style="fill:#5D5360;" d="M32.787,280.528c0-3.394-0.65-6.605-1.579-9.696c-2.265,0.31-4.557,0.6-6.94,0.824
	c-15.821,1.49-21.559,11.245-23.64,18.073c-1.144,3.755-0.722,7.863,1.25,11.258c2.287,3.937,4.958,7.754,7.943,11.462
	C23.145,307.89,32.787,295.398,32.787,280.528z"/>
<g>
</g>
<g>
</g>
<g>
</g>
<g>
</g>
<g>
</g>
<g>
</g>
<g>
</g>
<g>
</g>
<g>
</g>
<g>
</g>
<g>
</g>
<g>
</g>
<g>
</g>
<g>
</g>
<g>
</g>
</svg>
