<?xml version="1.0" encoding="iso-8859-1"?>
<!-- Generator: Adobe Illustrator 19.0.0, SVG Export Plug-In . SVG Version: 6.00 Build 0)  -->
<svg version="1.1" id="Layer_1" xmlns="http://www.w3.org/2000/svg" xmlns:xlink="http://www.w3.org/1999/xlink" x="0px" y="0px"
	 viewBox="0 0 512 512" style="enable-background:new 0 0 512 512;" xml:space="preserve">
<path style="fill:#FFA91F;" d="M475.737,298.692c0,52.936-17.451,101-45.895,136.485c-30.189,37.654-72.751,61.129-119.906,61.129
	c-0.4,0-0.812,0-1.212-0.012c-2.678-0.012-5.357-0.109-8.011-0.291h-0.012V306.218l0.012-204.824
	c2.642-0.194,5.308-0.279,7.986-0.291c0.412-0.012,0.824-0.012,1.236-0.012c27.716,0,53.833,8.108,76.786,22.432
	C439.634,156.536,475.737,222.597,475.737,298.692z"/>
<g>
	<path style="fill:#E2901A;" d="M300.704,306.224l0.012-204.836c3.054-0.206,6.132-0.303,9.223-0.303
		c27.716,0,53.833,8.108,76.786,22.432c-11.065,17.524-18.276,46.671,0.945,91.45C411.145,269.637,348.234,295.063,300.704,306.224z
		"/>
	<path style="fill:#E2901A;" d="M429.844,435.171c-30.189,37.666-72.751,61.141-119.906,61.141c-3.09,0-6.169-0.097-9.223-0.303
		h-0.012V336.946l84.082,53.166C384.786,390.112,381.138,435.171,429.844,435.171z"/>
</g>
<path style="fill:#23B75F;" d="M301.039,118.357c-5.014-0.245-8.88-4.508-8.635-9.522c1.413-28.904-11.072-52.912-37.109-71.357
	c-20.045-14.2-40.564-19.527-40.769-19.58c-4.865-1.239-7.805-6.186-6.567-11.05c1.239-4.865,6.189-7.8,11.05-6.567
	c0.971,0.247,24.025,6.234,46.793,22.363c30.992,21.955,46.469,52.067,44.757,87.078
	C310.316,114.737,306.053,118.603,301.039,118.357z"/>
<path style="fill:#E2901A;" d="M410.754,298.704c0,89.33-48.9,165.837-102.03,197.589c-2.678-0.012-5.357-0.109-8.011-0.291h-0.012
	V306.218l0.012-204.824c2.642-0.194,5.308-0.279,7.986-0.291C361.842,132.843,410.754,209.363,410.754,298.704z"/>
<path style="fill:#FFA91F;" d="M402.271,298.704c0,67.467-27.886,127.614-64.437,166.698
	c-26.771,28.625-58.171,45.955-86.663,46.586c-0.533,0.012-1.066,0.012-1.6,0.012c-42.344,0-81.804-12.337-114.986-33.606
	c-59.129-37.921-98.322-104.236-98.322-179.689c0-117.797,95.498-213.295,213.308-213.295c0.533,0,1.066,0,1.6,0.012
	C318.565,86.9,402.271,181.828,402.271,298.704z"/>
<path style="fill:#E2901A;" d="M122.121,298.704c0-99.399,67.998-182.921,160.02-206.586c-10.464-4.154-20.898-6.476-30.968-6.697
	c-0.533-0.012-1.066-0.012-1.6-0.012c-117.809,0-213.308,95.498-213.308,213.295S131.764,512,249.573,512c0.533,0,1.066,0,1.6-0.013
	c10.07-0.221,20.503-2.543,30.967-6.697C190.118,481.625,122.121,398.104,122.121,298.704z"/>
<path style="fill:#2FCC6E;" d="M120.554,292.575c0,0-65.71-87.719-30.076-168.009c34.059-76.757,141.169-68.427,156.884-93.232
	c0.726-1.1,1.243-2.278,1.562-3.544c0.022-0.044,0.022-0.065,0.022-0.065l0.033,0.055c1.386,2.751,45.351,91.152-7.373,152.547
	C188.046,242.69,130.095,247.819,120.554,292.575z"/>
<path style="fill:#23B75F;" d="M248.379,25.361c-3.3-0.567-6.429,1.655-6.993,4.954c-9.093,53.296-33.353,71.179-59.036,90.111
	c-2.312,1.705-4.638,3.422-6.964,5.17h-19.361c-3.346,0-6.06,2.713-6.06,6.06s2.713,6.06,6.06,6.06h4.279
	c-7.899,6.941-15.565,14.911-22.578,24.954c-14.608,20.916-23.09,47.962-25.21,80.389c-0.218,3.339,2.312,6.223,5.651,6.441
	c0.135,0.008,0.268,0.013,0.401,0.013c3.165,0,5.832-2.459,6.04-5.664c1.018-15.564,3.585-29.732,7.647-42.431l2.635,5.079
	c1.079,2.08,3.193,3.271,5.385,3.271c0.939,0,1.893-0.219,2.784-0.682c2.972-1.54,4.13-5.198,2.59-8.168l-7.548-14.555
	c2.783-6.001,5.961-11.602,9.561-16.756c12.315-17.633,27.344-28.712,41.88-39.427c5.008-3.691,10.047-7.407,14.995-11.398v6.951
	c0,3.346,2.713,6.06,6.06,6.06s6.06-2.713,6.06-6.06v-17.662c16.266-15.983,30.201-37.758,36.677-75.717
	C253.897,29.054,251.68,25.924,248.379,25.361z"/>
<path style="fill:#E2901A;" d="M337.834,465.402c-26.771,28.625-58.171,45.955-86.663,46.586c-0.533,0.012-1.066,0.012-1.6,0.012
	c-42.344,0-81.804-12.337-114.986-33.606l27.886-54.827C162.471,423.567,243.935,514.363,337.834,465.402z"/>
<g>
</g>
<g>
</g>
<g>
</g>
<g>
</g>
<g>
</g>
<g>
</g>
<g>
</g>
<g>
</g>
<g>
</g>
<g>
</g>
<g>
</g>
<g>
</g>
<g>
</g>
<g>
</g>
<g>
</g>
</svg>
