<?xml version="1.0" encoding="iso-8859-1"?>
<!-- Generator: Adobe Illustrator 19.0.0, SVG Export Plug-In . SVG Version: 6.00 Build 0)  -->
<svg xmlns="http://www.w3.org/2000/svg" xmlns:xlink="http://www.w3.org/1999/xlink" version="1.1" id="Layer_1" x="0px" y="0px" viewBox="0 0 512 512" style="enable-background:new 0 0 512 512;" xml:space="preserve" width="512" height="512">
<g id="XMLID_347_">
	<g id="XMLID_348_">
		<g id="XMLID_349_">
			<path id="XMLID_350_" style="fill:#F73E3E;" d="M104.731,233.519v78.408H56.29c-5.345,0-9.682-4.338-9.682-9.682v-59.044     c0-5.354,4.338-9.682,9.682-9.682H104.731z"/>
			<rect id="XMLID_351_" x="72.75" y="233.519" style="fill:#EB1410;" width="31.981" height="78.408"/>
		</g>
		<g id="XMLID_352_">
			<path id="XMLID_1613_" style="fill:#F86260;" d="M149.265,341.789H95.017c-5.347,0-9.682-4.335-9.682-9.682V229.896     c0-5.347,4.335-9.682,9.682-9.682h54.248V341.789z"/>
		</g>
		<g id="XMLID_353_">
			<path id="XMLID_354_" style="fill:#F73E3E;" d="M465.392,243.201v59.044c0,5.345-4.338,9.682-9.682,9.682h-48.441v-78.408h48.441     C461.055,233.519,465.392,237.847,465.392,243.201z"/>
			<rect id="XMLID_355_" x="407.269" y="233.519" style="fill:#EB1410;" width="31.981" height="78.408"/>
		</g>
		<g id="XMLID_356_">
			<path id="XMLID_1602_" style="fill:#F86260;" d="M362.735,341.789h54.248c5.347,0,9.682-4.335,9.682-9.682V229.896     c0-5.347-4.335-9.682-9.682-9.682h-54.248V341.789z"/>
		</g>
	</g>
	<path id="XMLID_1595_" style="fill:#F88280;" d="M274.633,51.854h-37.267V18.633C237.367,8.342,245.709,0,256,0h0   c10.291,0,18.633,8.342,18.633,18.633V51.854z"/>
	<g id="XMLID_357_">
		<path id="XMLID_358_" style="fill:#F73E3E;" d="M387.042,170.07v295.401H124.958V170.07c0-8.559,0.823-16.925,2.382-25.02    C139.017,84.642,192.183,39.028,256,39.028c36.193,0,68.949,14.669,92.661,38.381c18.106,18.106,30.935,41.48,35.999,67.642    C386.219,153.145,387.042,161.511,387.042,170.07z"/>
		<path id="XMLID_359_" style="fill:#EB1410;" d="M387.042,170.07v295.401h-33.985V170.07c0-8.559-0.823-16.925-2.382-25.02    c-5.064-26.162-17.893-49.535-35.999-67.642c-19.936-19.936-46.253-33.472-75.639-37.287c5.548-0.726,11.212-1.094,16.964-1.094    c36.193,0,68.949,14.669,92.661,38.381c18.106,18.106,30.935,41.48,35.999,67.642C386.219,153.145,387.042,161.511,387.042,170.07    z"/>
		<rect id="XMLID_360_" x="124.958" y="434.682" style="fill:#EB1410;" width="262.084" height="30.79"/>
		<path id="XMLID_361_" style="fill:#EB1410;" d="M387.042,170.07v26.723H124.958V170.07c0-8.559,0.823-16.925,2.382-25.02H384.66    C386.219,153.145,387.042,161.511,387.042,170.07z"/>
		<path id="XMLID_1586_" style="fill:#F86260;" d="M408.838,486.286H101.116V456.95c0-5.347,4.335-9.682,9.682-9.682h288.357    c5.347,0,9.682,4.335,9.682,9.682V486.286z"/>
		<g id="XMLID_362_">
			<path id="XMLID_1585_" style="fill:#F88280;" d="M415.264,512H96.736c-8.731,0-15.809-7.078-15.809-15.809v0     c0-8.731,7.078-15.809,15.809-15.809h318.529c8.731,0,15.809,7.078,15.809,15.809v0C431.074,504.922,423.996,512,415.264,512z"/>
		</g>
		<path id="XMLID_942_" style="fill:#F86260;" d="M395.194,184.208H116.806c-7.338,0-13.287-5.949-13.287-13.287v0    c0-7.338,5.949-13.287,13.287-13.287h278.387c7.338,0,13.287,5.949,13.287,13.287v0    C408.481,178.259,402.532,184.208,395.194,184.208z"/>
	</g>
	<path id="XMLID_916_" style="fill:#EB1410;" d="M256,348.359c-36.679,0-66.52-29.841-66.52-66.52c0-36.68,29.841-66.52,66.52-66.52   s66.52,29.841,66.52,66.52C322.52,318.518,292.679,348.359,256,348.359z"/>
	<circle id="XMLID_915_" style="fill:#F86260;" cx="256" cy="281.839" r="53.933"/>
	<circle id="XMLID_871_" style="fill:#B70E0A;" cx="256" cy="281.839" r="19.721"/>
	<g id="XMLID_363_">
		<path id="XMLID_364_" style="fill:#F86260;" d="M265.684,391.197h-19.368c-4.267,0-7.726-3.459-7.726-7.726    s3.459-7.726,7.726-7.726h19.368c4.267,0,7.726,3.459,7.726,7.726S269.951,391.197,265.684,391.197z"/>
	</g>
</g>















</svg>
