<?xml version="1.0" encoding="iso-8859-1"?>
<!-- Generator: Adobe Illustrator 19.0.0, SVG Export Plug-In . SVG Version: 6.00 Build 0)  -->
<svg version="1.1" id="Capa_1" xmlns="http://www.w3.org/2000/svg" xmlns:xlink="http://www.w3.org/1999/xlink" x="0px" y="0px"
	 viewBox="0 0 512.001 512.001" style="enable-background:new 0 0 512.001 512.001;" xml:space="preserve">
<g>
	<path style="fill:#EBAF4B;" d="M190.985,495.747h-14.251l14.057-63.254c0.976-4.381-1.79-8.722-6.171-9.694
		c-4.373-0.96-8.726,1.79-9.694,6.171l-14.839,66.778H125.97c-4.488,0-8.127,3.639-8.127,8.127s3.638,8.126,8.126,8.126h65.016
		c4.488,0,8.127-3.639,8.127-8.127S195.473,495.747,190.985,495.747z"/>
	<path style="fill:#EBAF4B;" d="M386.033,495.747H351.92l-14.839-66.778c-0.976-4.385-5.333-7.115-9.698-6.171
		c-4.381,0.972-7.143,5.313-6.175,9.694l14.057,63.254h-14.247c-4.492,0-8.127,3.639-8.127,8.127s3.635,8.127,8.127,8.127h65.016
		c4.492,0,8.127-3.639,8.127-8.127S390.525,495.747,386.033,495.747z"/>
	<path style="fill:#EBAF4B;" d="M14.685,317.716c13.72,9.676,40.019,22.697,74.712,14.136l37.249-154.413
		c0,0-47.679,66.06-112.841,123.049C8.463,305.163,8.885,313.625,14.685,317.716z"/>
	<path style="fill:#EBAF4B;" d="M497.317,317.716c-13.72,9.676-40.019,22.697-74.712,14.136l-37.249-154.413
		c0,0,47.68,66.06,112.841,123.049C503.539,305.163,503.117,313.625,497.317,317.716z"/>
</g>
<path style="fill:#FFDC64;" d="M385.439,142.332c0.94-9.708,0.79-19.736-0.631-29.995C376.14,49.75,322.01,1.378,258.841,0.031
	c-73.113-1.559-132.872,57.243-132.872,130.001c0,3.341,0.131,6.65,0.386,9.923c1.557,19.967-3.479,39.805-15.232,56.021
	c-24.41,33.681-37.372,76.19-33.116,121.857c7.777,83.457,74.361,151.352,157.675,160.536
	c107.844,11.888,199.112-72.233,199.112-177.671c0-38.916-12.454-74.906-33.574-104.248
	C389.887,180.705,383.57,161.642,385.439,142.332z"/>
<path style="fill:#FFC850;" d="M143.023,317.834c-4.255-45.667,8.706-88.177,33.116-121.858
	c11.753-16.216,16.79-36.054,15.232-56.021c-0.255-3.274-0.386-6.582-0.386-9.923c0-60.506,41.377-111.229,97.344-125.744
	c-9.511-2.498-19.362-4.042-29.488-4.258c-73.113-1.559-132.872,57.243-132.872,130.001c0,3.341,0.131,6.649,0.386,9.923
	c1.558,19.967-3.479,39.805-15.232,56.021c-24.41,33.681-37.372,76.19-33.116,121.858c7.777,83.457,74.362,151.352,157.675,160.536
	c18.218,2.008,35.942,1.218,52.854-1.893C210.997,462.34,150.417,397.176,143.023,317.834z"/>
<path style="fill:#EB914B;" d="M296.636,170.668c0,17.954-27.17,39.01-40.635,39.01c-13.465,0-40.635-21.056-40.635-39.01
	s27.17-39.01,40.635-39.01C269.466,131.658,296.636,152.714,296.636,170.668z"/>
<g>
	<path style="fill:#4B3F4E;" d="M182.858,138.16L182.858,138.16c8.977,0,16.254-7.277,16.254-16.254v-8.127
		c0-8.977-7.277-16.254-16.254-16.254l0,0c-8.977,0-16.254,7.277-16.254,16.254v8.127
		C166.604,130.883,173.881,138.16,182.858,138.16z"/>
	<path style="fill:#4B3F4E;" d="M329.144,138.16L329.144,138.16c8.977,0,16.254-7.277,16.254-16.254v-8.127
		c0-8.977-7.277-16.254-16.254-16.254l0,0c-8.977,0-16.254,7.277-16.254,16.254v8.127C312.89,130.883,320.167,138.16,329.144,138.16
		z"/>
</g>
<g>
	<circle style="fill:#FFFFFF;" cx="182.861" cy="113.781" r="8.127"/>
	<circle style="fill:#FFFFFF;" cx="329.141" cy="113.781" r="8.127"/>
</g>
<path style="fill:#D2783C;" d="M296.636,170.668c0-1.608-0.285-3.243-0.691-4.882c-8.804,8.018-28.436,15.147-39.572,15.147
	c-11.396,0-31.696-7.463-40.17-15.709c-0.5,1.829-0.836,3.653-0.836,5.444c0,17.953,27.17,39.009,40.635,39.009
	C269.467,209.677,296.636,188.621,296.636,170.668z"/>
<g>
</g>
<g>
</g>
<g>
</g>
<g>
</g>
<g>
</g>
<g>
</g>
<g>
</g>
<g>
</g>
<g>
</g>
<g>
</g>
<g>
</g>
<g>
</g>
<g>
</g>
<g>
</g>
<g>
</g>
</svg>
