<?xml version="1.0" encoding="iso-8859-1"?>
<!-- Generator: Adobe Illustrator 19.0.0, SVG Export Plug-In . SVG Version: 6.00 Build 0)  -->
<svg version="1.1" id="Capa_1" xmlns="http://www.w3.org/2000/svg" xmlns:xlink="http://www.w3.org/1999/xlink" x="0px" y="0px"
	 viewBox="0 0 512 512" style="enable-background:new 0 0 512 512;" xml:space="preserve">
<path style="fill:#E52E40;" d="M125.863,35.578c38.121-22.542,82.595-35.479,130.091-35.479c141.358,0,255.95,114.593,255.95,255.95
	S397.311,512,255.953,512S0.003,397.407,0.003,256.05C0.003,162.188,50.528,80.127,125.863,35.578"/>
<circle style="fill:#EAEAE4;" cx="255.95" cy="256.05" r="192.93"/>
<circle style="fill:#E52E40;" cx="255.95" cy="256.05" r="129.92"/>
<circle style="fill:#EAEAE4;" cx="255.95" cy="256.05" r="66.913"/>
<ellipse transform="matrix(-0.7071 0.7071 -0.7071 -0.7071 704.8865 46.3502)" style="fill:#FCD42D;" cx="342.844" cy="169.162" rx="90.059" ry="42.21"/>
<path style="fill:#D3AF1A;" d="M333.026,159.329c27.673-27.673,59.49-42.937,79.831-40.16c-0.752-5.51-2.817-10.185-6.33-13.698
	c-16.485-16.486-58.361-1.339-93.529,33.829c-35.17,35.17-50.316,77.044-33.83,93.529c3.513,3.513,8.189,5.578,13.699,6.331
	C290.089,218.819,305.353,187.003,333.026,159.329z"/>
<polygon style="fill:#2F3C3F;" points="406.526,105.469 484.8,116.083 511.997,88.887 458.93,53.066 426,63.115 "/>
<g>
	<polygon style="fill:#455256;" points="406.526,105.469 395.913,27.197 423.11,0 458.93,53.066 	"/>
	<path style="fill:#455256;" d="M255.95,263.882c-2.005,0-4.011-0.765-5.54-2.294c-3.06-3.061-3.06-8.021,0-11.081l23.217-23.217
		c3.06-3.059,8.021-3.059,11.08,0c3.06,3.061,3.06,8.021,0,11.081l-23.217,23.217C259.961,263.117,257.955,263.882,255.95,263.882z"
		/>
</g>
<g>
	<path style="fill:#D3AF1A;" d="M348.235,228.328c-2.005,0-4.011-0.765-5.54-2.294l-56.211-56.211c-3.06-3.061-3.06-8.021,0-11.081
		c3.06-3.059,8.021-3.059,11.08,0l56.211,56.211c3.06,3.061,3.06,8.021,0,11.081C352.245,227.562,350.239,228.328,348.235,228.328z"
		/>
	<path style="fill:#D3AF1A;" d="M367.896,208.666c-2.005,0-4.011-0.765-5.54-2.294l-56.211-56.212c-3.06-3.061-3.06-8.021,0-11.081
		c3.06-3.059,8.021-3.059,11.08,0l56.211,56.212c3.06,3.061,3.06,8.021,0,11.081C371.906,207.902,369.901,208.666,367.896,208.666z"
		/>
</g>
<g>
</g>
<g>
</g>
<g>
</g>
<g>
</g>
<g>
</g>
<g>
</g>
<g>
</g>
<g>
</g>
<g>
</g>
<g>
</g>
<g>
</g>
<g>
</g>
<g>
</g>
<g>
</g>
<g>
</g>
</svg>
