<?xml version="1.0" encoding="iso-8859-1"?>
<!-- Generator: Adobe Illustrator 19.0.0, SVG Export Plug-In . SVG Version: 6.00 Build 0)  -->
<svg version="1.1" id="Capa_1" xmlns="http://www.w3.org/2000/svg" xmlns:xlink="http://www.w3.org/1999/xlink" x="0px" y="0px"
	 viewBox="0 0 512 512" style="enable-background:new 0 0 512 512;" xml:space="preserve">
<g>
	<path style="fill:#35C931;" d="M512,256.073c-2.445,2.727-5.015,5.339-7.711,7.826c-21.452,19.926-50.26,32.246-81.774,32.246
		c-3.95,0-8.046-0.167-11.828-0.491H101.324c-3.783,0.324-7.889,0.491-11.828,0.491c-10.418,0-20.522-1.337-30.145-3.835
		c-19.623-5.099-37.272-15.047-51.66-28.411c-2.675-2.497-5.245-5.11-7.69-7.826c2.435-2.727,4.995-5.339,7.67-7.847
		c14.388-13.448,32.047-23.437,51.67-28.536c9.634-2.508,19.728-3.845,30.156-3.845c3.939,0,8.046,0.167,11.828,0.491h309.363
		c3.783-0.324,7.879-0.491,11.828-0.491c31.525,0,60.343,12.33,81.795,32.381C506.995,250.713,509.555,253.335,512,256.073z"/>
	<path style="fill:#35C931;" d="M296.103,418.628c0.031,1.296,0.052,2.591,0.052,3.877c0,31.504-12.309,60.301-32.35,81.763
		c-2.497,2.696-5.13,5.277-7.879,7.732c-2.717-2.445-5.329-5.005-7.795-7.69c-19.947-21.473-32.277-50.28-32.277-81.805
		c0-3.939,0.167-8.046,0.491-11.828V101.313c-0.324-3.783-0.491-7.879-0.491-11.828c0-31.681,12.33-60.385,32.277-81.816
		c2.476-2.675,5.078-5.235,7.795-7.67c2.738,2.445,5.371,5.026,7.879,7.711c20.031,21.431,32.35,50.113,32.35,81.774
		c0,1.296-0.021,2.612-0.063,3.918c-0.063,2.685-0.209,5.371-0.428,7.91v309.363C295.884,413.226,296.03,415.932,296.103,418.628z"
		/>
</g>
<g>
	<path style="fill:#2EAF27;" d="M367.128,295.653c-4.138-8.808-9.843-17.063-17.126-24.346
		c-6.468-6.468-13.855-11.306-21.556-15.287c7.701-3.992,15.088-8.829,21.556-15.287c7.293-7.293,13.009-15.569,17.147-24.398
		h-71.481V101.312c0.219-2.539,0.366-5.224,0.428-7.91c-24.482-2.048-49.664,6.301-68.399,25.025
		c-4.472,4.483-8.171,9.404-11.348,14.576v83.331H101.327c-3.783-0.324-7.889-0.491-11.828-0.491
		c-10.428,0-20.522,1.337-30.156,3.845c3.96,7.576,9.122,14.681,15.485,21.044c6.468,6.457,13.855,11.295,21.556,15.287
		c-7.701,3.981-15.088,8.819-21.556,15.287c-6.353,6.353-11.515,13.448-15.475,21.002c9.624,2.497,19.728,3.835,30.145,3.835
		c3.939,0,8.046-0.167,11.828-0.491h115.022v83.383c3.176,5.162,6.875,10.083,11.348,14.566
		c18.735,18.735,43.928,27.073,68.409,25.025c-0.073-2.696-0.219-5.402-0.439-7.952V295.653L367.128,295.653L367.128,295.653z"/>
	<path style="fill:#2EAF27;" d="M263.805,7.711v195.406h-15.673V7.67c2.476-2.675,5.078-5.235,7.795-7.67
		C258.664,2.445,261.298,5.026,263.805,7.711z"/>
	<path style="fill:#2EAF27;" d="M263.805,309.018v195.25c-2.497,2.696-5.13,5.277-7.879,7.732c-2.717-2.445-5.329-5.005-7.795-7.69
		V309.018L263.805,309.018L263.805,309.018z"/>
	<path style="fill:#2EAF27;" d="M512,256.073c-2.445,2.727-5.015,5.339-7.711,7.826H7.69c-2.675-2.497-5.245-5.11-7.69-7.826
		c2.435-2.727,4.995-5.339,7.67-7.847h496.64C506.995,250.713,509.555,253.335,512,256.073z"/>
</g>
<path style="fill:#FCD42D;" d="M372.007,256.017c7.708-3.989,15.094-8.823,21.558-15.287c33.772-33.772,33.772-88.527,0-122.299
	s-88.527-33.772-122.299,0c-6.465,6.465-11.297,13.85-15.287,21.558c-3.989-7.708-8.823-15.094-15.287-21.558
	c-33.772-33.772-88.527-33.772-122.299,0s-33.772,88.526,0,122.299c6.465,6.465,13.85,11.297,21.558,15.287
	c-7.708,3.989-15.094,8.823-21.558,15.287c-33.772,33.772-33.772,88.526,0,122.298c33.772,33.773,88.527,33.773,122.299,0
	c6.465-6.465,11.297-13.85,15.287-21.558c3.989,7.708,8.823,15.094,15.287,21.558c33.772,33.773,88.527,33.773,122.299,0
	c33.772-33.772,33.772-88.526,0-122.298C387.1,264.839,379.715,260.006,372.007,256.017z"/>
<g>
	<path style="fill:#E2BD23;" d="M148.037,393.602c-33.772-33.772-33.772-88.527,0-122.298c6.465-6.465,13.85-11.297,21.558-15.288
		c-7.708-3.989-15.094-8.822-21.558-15.287c-33.772-33.773-33.772-88.528,0-122.299c13.1-13.101,29.362-21.094,46.327-24.033
		c-26.77-4.634-55.301,3.36-75.972,24.033c-33.772,33.771-33.772,88.526,0,122.299c6.465,6.465,13.85,11.297,21.558,15.287
		c-7.708,3.99-15.094,8.823-21.558,15.288c-33.772,33.771-33.772,88.526,0,122.298c20.671,20.672,49.201,28.667,75.972,24.033
		C177.399,414.697,161.138,406.702,148.037,393.602z"/>
	<path style="fill:#E2BD23;" d="M167.999,351.833c-2.005,0-4.011-0.765-5.541-2.295c-3.061-3.062-3.061-8.023,0-11.083
		l175.96-175.96c3.06-3.059,8.023-3.059,11.082,0c3.06,3.062,3.06,8.023,0,11.083l-175.96,175.96
		C172.009,351.068,170.004,351.833,167.999,351.833z"/>
	<path style="fill:#E2BD23;" d="M343.958,351.833c-2.005,0-4.011-0.765-5.541-2.295l-175.961-175.96
		c-3.061-3.062-3.061-8.023,0-11.083c3.061-3.059,8.023-3.059,11.082,0l175.96,175.96c3.06,3.062,3.06,8.023,0,11.083
		C347.97,351.068,345.964,351.833,343.958,351.833z"/>
</g>
<circle style="fill:#DD8D19;" cx="255.979" cy="256.01" r="46.547"/>
<g>
</g>
<g>
</g>
<g>
</g>
<g>
</g>
<g>
</g>
<g>
</g>
<g>
</g>
<g>
</g>
<g>
</g>
<g>
</g>
<g>
</g>
<g>
</g>
<g>
</g>
<g>
</g>
<g>
</g>
</svg>
