<?xml version="1.0" encoding="iso-8859-1"?>
<!-- Generator: Adobe Illustrator 19.0.0, SVG Export Plug-In . SVG Version: 6.00 Build 0)  -->
<svg version="1.1" id="Capa_1" xmlns="http://www.w3.org/2000/svg" xmlns:xlink="http://www.w3.org/1999/xlink" x="0px" y="0px"
	 viewBox="0 0 512.001 512.001" style="enable-background:new 0 0 512.001 512.001;" xml:space="preserve">
<path style="fill:#AFD755;" d="M452.344,125.492c-5.225-16.291-15.963-27.893-28.899-34.453c-4.803-2.435-7.994-6.993-8.638-12.34
	c-1.736-14.401-8.962-28.46-22.48-38.947c-11.496-8.918-26.296-13.278-40.716-11.348c-54.2,7.253-79.647,90.444-89.836,137.929
	c6.68-48.105,11.245-134.98-37.198-160.347c-12.889-6.75-28.287-7.718-42.142-3.273c-16.291,5.225-27.893,15.963-34.453,28.899
	c-2.435,4.803-6.993,7.994-12.34,8.638c-14.4,1.735-28.46,8.961-38.946,22.48c-8.918,11.496-13.279,26.296-11.349,40.717
	c7.254,54.2,90.444,79.646,137.929,89.835c-48.105-6.68-134.979-11.245-160.347,37.198c-6.749,12.889-7.717,28.287-3.273,42.142
	c5.226,16.291,15.963,27.893,28.899,34.453c4.803,2.436,7.994,6.993,8.638,12.34c1.735,14.4,8.961,28.46,22.48,38.946
	c11.497,8.918,26.296,13.279,40.717,11.349c54.2-7.253,79.646-90.444,89.835-137.929c-6.68,48.105-11.244,134.979,37.199,160.347
	c12.889,6.75,28.287,7.718,42.141,3.273c16.291-5.226,27.893-15.963,34.453-28.899c2.435-4.803,6.993-7.994,12.34-8.638
	c14.401-1.735,28.461-8.961,38.947-22.48c8.918-11.497,13.278-26.296,11.348-40.717c-7.254-54.2-90.444-79.646-137.929-89.835
	c48.105,6.68,134.98,11.244,160.347-37.199C455.82,154.744,456.789,139.346,452.344,125.492z"/>
<g>
	<path style="fill:#BEE86E;" d="M62.929,230.481c-6.749,12.889-7.717,28.287-3.273,42.142c5.226,16.291,15.963,27.893,28.899,34.453
		c2.474,1.255,4.497,3.086,5.987,5.283L256,199.057C256,199.057,98.603,162.355,62.929,230.481z"/>
	<path style="fill:#BEE86E;" d="M449.071,167.633c6.75-12.889,7.718-28.287,3.273-42.141c-5.225-16.291-15.963-27.893-28.899-34.453
		c-2.402-1.217-4.401-2.966-5.879-5.078L256,199.057l0,0C256,199.057,413.397,235.759,449.071,167.633z"/>
	<path style="fill:#BEE86E;" d="M256,199.057c0,0,36.701-157.398-31.424-193.071c-12.889-6.75-28.287-7.718-42.142-3.273
		c-16.291,5.225-27.893,15.963-34.453,28.899c-1.218,2.402-2.966,4.4-5.078,5.879L256,199.057z"/>
	<path style="fill:#BEE86E;" d="M256,199.057L256,199.057c0,0-36.702,157.397,31.424,193.071c12.889,6.75,28.287,7.718,42.141,3.273
		c16.291-5.226,27.893-15.963,34.453-28.899c1.218-2.402,2.966-4.4,5.078-5.879L256,199.057z"/>
</g>
<g>
	<path style="fill:#96BE4B;" d="M118.614,303.364c-2.566,0-5.092-1.208-6.673-3.472c-2.574-3.678-1.676-8.754,2.002-11.328
		l12.488-8.739c3.678-2.574,8.754-1.684,11.328,2.002c2.574,3.678,1.676,8.754-2.002,11.328l-12.488,8.739
		C121.847,302.887,120.226,303.364,118.614,303.364z"/>
	<path style="fill:#96BE4B;" d="M156.086,277.14c-2.566,0-5.092-1.208-6.673-3.472c-2.574-3.678-1.684-8.754,2.002-11.328
		l56.205-39.347c3.67-2.574,8.746-1.684,11.328,2.002c2.574,3.678,1.684,8.754-2.002,11.328l-56.205,39.347
		C159.328,276.664,157.699,277.14,156.086,277.14z"/>
	<path style="fill:#96BE4B;" d="M380.914,119.759c-2.566,0-5.092-1.208-6.673-3.472c-2.574-3.678-1.676-8.754,2.002-11.328
		l12.488-8.739c3.686-2.574,8.754-1.684,11.328,2.002c2.574,3.678,1.676,8.754-2.002,11.328l-12.488,8.739
		C384.147,119.282,382.526,119.759,380.914,119.759z"/>
	<path style="fill:#96BE4B;" d="M299.724,176.591c-2.566,0-5.092-1.208-6.673-3.472c-2.574-3.678-1.684-8.754,2.002-11.328
		l56.205-39.347c3.662-2.574,8.754-1.684,11.328,2.002c2.574,3.678,1.684,8.754-2.002,11.328l-56.205,39.347
		C302.966,176.115,301.337,176.591,299.724,176.591z"/>
	<path style="fill:#96BE4B;" d="M168.575,82.286c-2.566,0-5.092-1.208-6.673-3.472l-8.739-12.488
		c-2.574-3.678-1.676-8.754,2.002-11.328c3.686-2.566,8.754-1.684,11.328,2.002l8.739,12.488c2.574,3.678,1.676,8.754-2.002,11.328
		C171.808,81.81,170.187,82.286,168.575,82.286z"/>
	<path style="fill:#96BE4B;" d="M225.407,163.476c-2.566,0-5.092-1.208-6.673-3.472l-39.347-56.205
		c-2.574-3.678-1.684-8.754,2.002-11.328c3.662-2.566,8.754-1.684,11.328,2.002l39.347,56.205c2.574,3.678,1.684,8.754-2.002,11.328
		C228.648,162.999,227.02,163.476,225.407,163.476z"/>
	<path style="fill:#96BE4B;" d="M352.18,344.586c-2.566,0-5.092-1.208-6.673-3.472l-8.739-12.488
		c-2.574-3.678-1.676-8.754,2.002-11.328s8.754-1.684,11.328,2.002l8.739,12.488c2.574,3.678,1.676,8.754-2.002,11.328
		C355.413,344.109,353.792,344.586,352.18,344.586z"/>
	<path style="fill:#96BE4B;" d="M325.956,307.114c-2.566,0-5.092-1.208-6.673-3.472l-39.347-56.205
		c-2.574-3.678-1.684-8.754,2.002-11.328c3.67-2.566,8.754-1.684,11.328,2.002l39.347,56.205c2.574,3.678,1.684,8.754-2.002,11.328
		C329.197,306.637,327.569,307.114,325.956,307.114z"/>
	<path style="fill:#96BE4B;" d="M267.964,512.001c-2.876,0-5.656-1.525-7.134-4.218c-30.513-55.514-40.261-131.055-28.972-224.533
		c5.656-46.823,15.857-84.732,16.294-86.321c1.168-4.337,5.617-6.935,9.978-5.72c4.337,1.176,6.896,5.64,5.72,9.978
		c-0.103,0.381-10.327,38.418-15.833,84.017c-10.876,90.023-1.772,162.275,27.066,214.746c2.169,3.932,0.731,8.882-3.209,11.042
		C270.633,511.675,269.29,512.001,267.964,512.001z"/>
</g>
<g>
</g>
<g>
</g>
<g>
</g>
<g>
</g>
<g>
</g>
<g>
</g>
<g>
</g>
<g>
</g>
<g>
</g>
<g>
</g>
<g>
</g>
<g>
</g>
<g>
</g>
<g>
</g>
<g>
</g>
</svg>
