<?xml version="1.0" encoding="iso-8859-1"?>
<!-- Generator: Adobe Illustrator 19.0.0, SVG Export Plug-In . SVG Version: 6.00 Build 0)  -->
<svg version="1.1" id="Capa_1" xmlns="http://www.w3.org/2000/svg" xmlns:xlink="http://www.w3.org/1999/xlink" x="0px" y="0px"
	 viewBox="0 0 512 512" style="enable-background:new 0 0 512 512;" xml:space="preserve">
<path style="fill:#EB9500;" d="M498.263,338.89c-1.835,5.371-3.845,10.701-6.062,15.958c-12.474,29.875-30.875,57.863-55.183,82.172
	c-36.648,36.648-81.625,59.853-128.84,69.636c-7.103,1.474-14.267,2.639-21.453,3.495h-0.01
	c-46.493,5.598-94.212-1.546-137.54-21.432c-7.649-3.505-15.164-7.422-22.514-11.721c-18.453-10.824-35.844-24.143-51.678-39.978
	c-23.916-23.916-42.112-51.379-54.575-80.708c-2.412-5.66-4.608-11.381-6.587-17.174c-15.597-45.524-17.989-94.573-7.196-141.19
	c1.278-5.484,2.732-10.948,4.381-16.36c11.329-37.462,31.442-72.832,60.327-102.882c1.196-1.258,2.412-2.495,3.649-3.732
	c3.227-3.227,6.515-6.35,9.866-9.36C144.464,11.936,223.214-8.806,297.623,3.39c8.072,1.32,16.092,3.031,24.03,5.123
	c42.266,11.164,82.223,33.318,115.366,66.461c1.237,1.237,2.453,2.474,3.649,3.732c5.144,5.34,10,10.855,14.587,16.525
	C511.696,165.011,526.035,257.554,498.263,338.89z"/>
<path style="fill:#CC7A05;" d="M92.41,256.168c0-125.504,90.375-229.889,209.595-251.652c-14.977-2.736-30.406-4.177-46.173-4.177
	C114.541,0.339,0.003,114.878,0.003,256.168s114.538,255.829,255.829,255.829c15.767,0,31.196-1.441,46.173-4.177
	C182.785,486.057,92.41,381.672,92.41,256.168z"/>
<path style="fill:#A05802;" d="M498.263,338.89c-1.835,5.371-3.845,10.701-6.062,15.958l-3.557-3.752
	c-70.739-69.667-158.642-119.16-254.587-143.375h-0.01c-48.678,86.161-34.823,194.826,34.596,266.153
	c9.845,10.113,20.69,19.339,32.225,27.421c0.052,0.031,0.093,0.062,0.144,0.103l7.165,5.258c-5.567,1.155-11.164,2.113-16.783,2.876
	c-1.186,0.165-2.371,0.32-3.567,0.474c-0.371,0.052-0.732,0.103-1.103,0.144h-0.01c0,0-0.01,0-0.01-0.01
	c-3.691-2.732-7.299-5.577-10.824-8.536c-6.391-5.319-12.515-10.989-18.319-16.948c-73.162-75.182-88.594-189.167-39.132-280.647
	c-23.721-5.268-47.833-9.01-71.873-11.144c-23.71,55.132-33.37,115.16-28.875,174.302c2.886,38.07,11.649,75.77,26.298,111.562
	l5.196,9.989c-7.649-3.505-15.164-7.422-22.514-11.721c-18.845-49.039-27.236-101.284-25.205-153.168
	c1.752-45.111,11.371-89.965,28.834-132.169c-9.793-0.588-19.628-0.907-29.421-0.979c-4.649-0.041-9.299-0.021-13.927,0.062
	c-8.494,57.833-30.359,113.593-63.41,161.632c-0.103,0.155-0.216,0.299-0.33,0.443l-2.794,3.495
	c-2.412-5.66-4.608-11.381-6.587-17.174c29.524-44.297,49.256-95.161,57.4-147.901c-20.556,0.938-41.194,3.02-61.472,6.185
	l-3.093,0.515l-0.031,0.01c1.278-5.484,2.732-10.948,4.381-16.36c0.021,0,0.031,0,0.052-0.01
	c20.597-3.072,41.472-5.062,62.234-5.907c3.598-32.184,2.948-64.667-1.928-96.748c-0.01-0.072-0.021-0.144-0.031-0.216
	c1.196-1.258,2.412-2.495,3.649-3.732c3.227-3.227,6.515-6.35,9.866-9.36l0.041,0.227l0.804,4.752
	c5.824,34.679,6.897,69.832,3.196,104.655c5.515-0.072,11.041-0.072,16.577,0.021c10.474,0.155,20.968,0.598,31.432,1.32
	c19.649-42.276,46.73-80.357,80.522-113.242c22.638-22.03,47.72-41.101,74.718-56.822c1.649-0.959,3.309-1.917,4.979-2.845
	c0.165-0.103,0.34-0.196,0.505-0.289c8.072,1.32,16.092,3.031,24.03,5.123l-9.36,4.484c-30.638,16.278-58.925,36.937-84.089,61.43
	c-31.071,30.236-56.214,65.028-74.842,103.542c24.545,2.423,49.122,6.464,73.265,12.041c10.03-15.876,21.968-30.586,35.545-43.792
	C309.766,99.901,374.506,75.5,440.668,78.706c5.144,5.34,10,10.855,14.587,16.525l-9.175-0.701
	c-64.018-4.866-127.128,18.01-173.126,62.77c-11.453,11.144-21.659,23.422-30.432,36.617
	C338.755,219.081,426.947,269.048,498.263,338.89z"/>
<g>
	<path style="fill:#CC7A05;" d="M437.306,202.34c-3.295,0-6.301-2.189-7.331-5.311c-0.968-2.937-0.066-6.258,2.288-8.277
		c5.336-4.575,13.697,0.062,12.692,6.987C444.413,199.481,441.081,202.34,437.306,202.34z"/>
	<path style="fill:#CC7A05;" d="M465.14,186.876c-6.802,0-10.262-8.609-5.349-13.315c5.005-4.795,13.56-0.752,13.057,6.151
		C472.559,183.694,469.137,186.876,465.14,186.876z"/>
	<path style="fill:#CC7A05;" d="M468.233,221.246c-6.694,0-10.164-8.29-5.575-13.089c2.368-2.476,6.204-3.067,9.219-1.462
		c2.859,1.523,4.469,4.749,4.005,7.95C475.341,218.378,472.005,221.246,468.233,221.246z"/>
	<path style="fill:#CC7A05;" d="M332.683,477.049c-6.924,0-10.326-8.817-5.192-13.454c2.555-2.306,6.414-2.635,9.322-0.801
		c2.648,1.67,4.05,4.877,3.464,7.957C339.59,474.356,336.362,477.049,332.683,477.049z"/>
	<path style="fill:#CC7A05;" d="M296.602,449.731c-3.319,0-6.278-2.177-7.334-5.304c-1.022-3.027,0.029-6.532,2.549-8.497
		c5.381-4.194,13.459,0.404,12.428,7.209C303.68,446.879,300.397,449.731,296.602,449.731z"/>
	<path style="fill:#CC7A05;" d="M329.075,449.731c-3.298,0-6.309-2.173-7.336-5.304c-1.005-3.066,0.029-6.539,2.584-8.518
		c5.375-4.163,13.424,0.453,12.396,7.232C336.153,446.878,332.87,449.731,329.075,449.731z"/>
	<path style="fill:#CC7A05;" d="M364.732,459.009c-3.232,0-6.193-2.081-7.281-5.125c-1.169-3.266,0.048-7.035,2.919-8.984
		c5.622-3.817,13.344,1.279,11.926,7.969C371.548,456.4,368.348,459.009,364.732,459.009z"/>
</g>
<path style="fill:#EB9500;" d="M44.561,367.786c-3.229,0-6.186-2.098-7.271-5.131c-1.132-3.165-0.034-6.815,2.672-8.816
	c5.626-4.16,13.684,1.043,12.145,7.905C51.323,365.233,48.136,367.786,44.561,367.786z"/>
<path style="fill:#CC7A05;" d="M302.787,482.204c-7.015,0-10.373-9.053-5.02-13.609c5.397-4.594,13.851,0.224,12.631,7.203
	C309.758,479.456,306.51,482.204,302.787,482.204z"/>
<path style="fill:#EB9500;" d="M64.663,392.527c-6.829,0-10.268-8.626-5.328-13.334c2.393-2.28,6.061-2.76,8.972-1.216
	c2.917,1.546,4.532,4.892,3.974,8.138C71.654,389.771,68.375,392.527,64.663,392.527z"/>
<g>
	<path style="fill:#894802;" d="M143.98,478.729l5.196,9.989c-7.649-3.505-15.164-7.422-22.514-11.721
		c-18.845-49.039-27.236-101.284-25.205-153.169c4.113,15.041,9.567,29.535,16.226,43.338
		C120.569,405.238,129.331,442.937,143.98,478.729z"/>
	<path style="fill:#894802;" d="M275.881,501.605c8.525,2.515,17.247,4.598,26.123,6.216c-4.68,0.856-9.402,1.588-14.175,2.185
		c-0.371,0.041-0.742,0.093-1.124,0.134C283.015,507.409,279.407,504.563,275.881,501.605z"/>
	<path style="fill:#894802;" d="M105.466,175.269c-1.691,5.072-3.216,10.206-4.598,15.412c-4.649-0.041-9.299-0.021-13.927,0.062
		c-8.494,57.832-30.359,113.593-63.41,161.632c-0.103,0.155-0.216,0.299-0.33,0.443l-2.794,3.495
		c-2.412-5.66-4.608-11.381-6.587-17.174c29.524-44.297,49.256-95.161,57.4-147.901c-20.556,0.938-41.194,3.02-61.472,6.185
		l-3.093,0.515c1.289-5.526,2.752-10.979,4.402-16.36c20.597-3.072,41.472-5.062,62.234-5.907
		c3.598-32.184,2.948-64.667-1.928-96.748c4.34-4.536,8.855-8.897,13.525-13.082l0.804,4.752
		c5.824,34.679,6.897,69.832,3.196,104.655C94.405,175.176,99.93,175.176,105.466,175.269z"/>
	<path style="fill:#894802;" d="M302.004,4.513c-3.309,0.608-6.598,1.278-9.866,2.01c1.649-0.959,3.309-1.917,4.979-2.845
		C298.757,3.936,300.385,4.214,302.004,4.513z"/>
</g>
<g>
</g>
<g>
</g>
<g>
</g>
<g>
</g>
<g>
</g>
<g>
</g>
<g>
</g>
<g>
</g>
<g>
</g>
<g>
</g>
<g>
</g>
<g>
</g>
<g>
</g>
<g>
</g>
<g>
</g>
</svg>
