<?xml version="1.0" encoding="iso-8859-1"?>
<!-- Generator: Adobe Illustrator 19.0.0, SVG Export Plug-In . SVG Version: 6.00 Build 0)  -->
<svg version="1.1" id="Capa_1" xmlns="http://www.w3.org/2000/svg" xmlns:xlink="http://www.w3.org/1999/xlink" x="0px" y="0px"
	 viewBox="0 0 512 512" style="enable-background:new 0 0 512 512;" xml:space="preserve">
<path style="fill:#4B3F4E;" d="M328.002,512c-0.773,0-1.563-0.113-2.34-0.352c-4.227-1.293-6.605-5.762-5.316-9.988l43.98-143.999
	c1.293-4.23,5.758-6.613,9.988-5.316c4.227,1.293,6.605,5.762,5.316,9.988l-43.98,143.999C334.596,509.781,331.428,512,328.002,512z
	"/>
<path style="fill:#AEA8AF;" d="M319.999,263.998c23.398,87.743,76.737,154.1,103.721,183.434c6.257,6.802,17.601,2.717,18.091-6.512
	c3.483-65.541,1.275-251.041-129.812-296.921l-24,71.999L319.999,263.998z"/>
<path style="fill:#9C969E;" d="M385.639,400.229c-24.388-34.363-50.928-81.057-65.64-136.231l-32-48l18.667-55.999h5.333
	c79.024,59.268,98.411,145.64,98.334,232.343C410.321,405.553,393.286,411.003,385.639,400.229z"/>
<path style="fill:#867E88;" d="M309.332,151.999h2.667c1.73,0,3.414,0.563,4.801,1.602c81.627,61.22,100.89,150.999,101.522,234.163
	c0.056,7.418-9.226,10.847-14.054,5.215l0,0c-1.219-1.423-1.885-3.228-1.893-5.102C402.04,307.158,384.06,225.323,309.307,168
	h-5.309L309.332,151.999z"/>
<path style="fill:#4B3F4E;" d="M183.997,512c-3.426,0-6.594-2.219-7.648-5.668l-43.98-143.999c-1.289-4.227,1.09-8.695,5.316-9.988
	c4.207-1.289,8.695,1.086,9.988,5.316l43.98,143.999c1.289,4.227-1.09,8.695-5.316,9.988C185.559,511.887,184.77,512,183.997,512z"
	/>
<path style="fill:#FFDC64;" d="M327.999,270.517c0,110.814-32.236,201.479-71.999,201.479s-71.999-89.406-71.999-201.479
	c0-55.637,32.236-70.518,71.999-70.518S327.999,214.88,327.999,270.517z"/>
<path style="fill:#FFC850;" d="M224,274.665c0-48.78,22.127-67.926,52.304-73.084C269.86,200.499,263.058,200,256,200
	c-39.764,0-71.999,14.881-71.999,70.518c0,112.073,32.236,201.479,71.999,201.479c3.658,0,7.251-0.781,10.762-2.26
	C241.572,436.716,224,362.254,224,274.665z"/>
<path style="fill:#4B3F4E;" d="M88.002,192.003c-3.352,0-6.473-2.121-7.59-5.473c-1.398-4.191,0.867-8.723,5.059-10.121l119.999-40
	c4.211-1.41,8.727,0.875,10.121,5.059c1.398,4.191-0.867,8.723-5.059,10.121l-119.999,40
	C89.693,191.87,88.837,192.003,88.002,192.003z"/>
<path style="fill:#AEA8AF;" d="M192.001,263.998c-23.398,87.743-76.737,154.1-103.721,183.434
	c-6.257,6.802-17.601,2.717-18.091-6.512C66.706,375.379,68.914,189.88,200.001,144l24,71.999L192.001,263.998z"/>
<path style="fill:#9C969E;" d="M126.36,400.229c24.388-34.363,50.928-81.057,65.64-136.231l32-48l-18.667-55.999h-5.333
	c-79.024,59.268-98.411,145.64-98.334,232.343C101.677,405.553,118.713,411.003,126.36,400.229z"/>
<path style="fill:#867E88;" d="M202.667,151.999H200c-1.73,0-3.414,0.563-4.801,1.602C113.571,214.822,94.309,304.6,93.677,387.764
	c-0.056,7.418,9.226,10.847,14.054,5.215l0,0c1.219-1.423,1.885-3.228,1.893-5.102c0.336-80.719,18.316-162.554,93.068-219.877H208
	L202.667,151.999z"/>
<g>
	<path style="fill:#4B3F4E;" d="M223.992,136c-1.344,0-2.711-0.34-3.961-1.055l-52.894-30.227l-44.605,14.871
		c-4.215,1.402-8.723-0.871-10.121-5.059c-1.398-4.191,0.867-8.723,5.059-10.121l44.605-14.867c4.32-1.438,9.055-0.969,13,1.285
		l52.894,30.227c3.836,2.191,5.168,7.078,2.977,10.914C229.468,134.555,226.769,136,223.992,136z"/>
	<path style="fill:#4B3F4E;" d="M423.998,192.003c3.352,0,6.473-2.121,7.59-5.473c1.398-4.191-0.867-8.723-5.059-10.121l-119.999-40
		c-4.211-1.41-8.727,0.875-10.121,5.059c-1.398,4.191,0.867,8.723,5.059,10.121l119.999,40
		C422.307,191.87,423.162,192.003,423.998,192.003z"/>
	<path style="fill:#4B3F4E;" d="M288.008,136c1.344,0,2.711-0.34,3.961-1.055l52.894-30.227l44.605,14.871
		c4.215,1.402,8.723-0.871,10.121-5.059c1.398-4.191-0.867-8.723-5.059-10.121l-44.605-14.867c-4.32-1.438-9.055-0.969-13,1.285
		l-52.894,30.227c-3.836,2.191-5.168,7.078-2.977,10.914C282.531,134.555,285.23,136,288.008,136z"/>
	<path style="fill:#4B3F4E;" d="M356.436,17.345L332.433,1.343c-2.764-1.843-6.38-1.784-9.083,0.146l-41.634,29.739
		c-3.878,2.77-8.769,3.619-13.374,2.389c-3.938-1.051-8.074-1.616-12.344-1.616c-4.27,0-8.406,0.564-12.344,1.616
		c-4.605,1.229-9.495,0.381-13.374-2.389l-41.63-29.737c-2.705-1.932-6.323-1.99-9.089-0.147l-24,16
		c-3.676,2.449-4.668,7.418-2.219,11.094c2.445,3.672,7.41,4.668,11.094,2.219l19.406-12.938L222.7,45.474
		c-11.367,10.966-17.374,27.452-13.551,45.177c3.883,18.004,18.49,32.512,36.52,36.27c31.023,6.466,58.329-17.039,58.329-46.922
		c0-13.567-5.651-25.795-14.701-34.525l38.857-27.756l19.406,12.938c3.676,2.449,8.637,1.453,11.094-2.219
		C361.104,24.763,360.112,19.794,356.436,17.345z"/>
</g>
<circle style="fill:#5D5360;" cx="255.997" cy="167.998" r="63.999"/>
<path style="fill:#4B3F4E;" d="M288,199.999C252.654,199.999,224,171.345,224,136c0-9.385,2.069-18.271,5.699-26.301
	c-22.213,10.039-37.699,32.34-37.699,58.3c0,35.346,28.654,63.999,63.999,63.999c25.961,0,48.262-15.485,58.3-37.699
	C306.27,197.93,297.385,199.999,288,199.999z"/>
<g>
	<path style="fill:#FFDC64;" d="M288,80L288,80c-8.837,0-16-7.163-16-16v-8c0-8.837,7.163-16,16-16l0,0c8.837,0,16,7.163,16,16v8
		C303.999,72.837,296.836,80,288,80z"/>
	<path style="fill:#FFDC64;" d="M223.999,80L223.999,80c8.837,0,16-7.163,16-16v-8c0-8.837-7.163-16-16-16l0,0
		c-8.837,0-16,7.163-16,16v8C208,72.837,215.163,80,223.999,80z"/>
</g>
<g>
	<path style="fill:#FFF082;" d="M224,40.001v24c0,4.418,3.582,8,8,8s8-3.582,8-8v-8C240,47.163,232.836,40.001,224,40.001z"/>
	<path style="fill:#FFF082;" d="M288,40.001v24c0,4.418,3.582,8,8,8c4.418,0,8-3.582,8-8v-8
		C303.999,47.163,296.836,40.001,288,40.001z"/>
</g>
<g>
	<path style="fill:#5D5360;" d="M256,245.332c-35.801,0-65.498,12.644-71.062,57.725v0.011c0.526,9.164,1.266,18.117,2.214,26.809
		c8.961-35.623,36.359-46.125,68.848-46.125c32.45,0,59.819,10.477,68.815,45.992c0.957-8.676,1.699-17.606,2.231-26.729
		C321.463,257.977,291.786,245.332,256,245.332z"/>
	<path style="fill:#5D5360;" d="M320.386,359.556c-11.831-26.647-36.22-34.893-64.386-34.893c-28.306,0-52.795,8.327-64.56,35.287
		v0.119c1.769,10.015,3.83,19.538,6.145,28.509c13.069-18.426,34.32-24.582,58.415-24.582c24.032,0,45.239,6.114,58.316,24.425
		c2.282-8.814,4.313-18.158,6.07-27.957V359.556z"/>
	<path style="fill:#5D5360;" d="M216.094,438.424c11.684-4.477,25.3-6.286,39.915-6.286c14.545,0,28.115,1.769,39.763,6.198
		c4.138-7.709,7.975-16.574,11.452-26.441c-13.694-8.712-31.579-11.898-51.213-11.898c-19.707,0-37.649,3.21-51.362,11.996
		C208.122,421.863,211.955,430.73,216.094,438.424z"/>
</g>
<g>
	<path style="fill:#4B3F4E;" d="M224,274.665c0-9.633,0.893-18.07,2.51-25.512c-21.651,6.454-37.644,22.068-41.574,53.903v0.011
		c0.526,9.164,1.266,18.117,2.214,26.809c5.805-23.075,19.371-35.567,37.021-41.535C224.075,283.814,224,279.269,224,274.665z"/>
	<path style="fill:#4B3F4E;" d="M226.354,328.691c-15.172,4.797-27.544,14.368-34.915,31.261v0.119
		c1.769,10.015,3.83,19.538,6.145,28.509c8.293-11.692,19.895-18.417,33.413-21.79C229.05,354.704,227.512,341.935,226.354,328.691z
		"/>
	<path style="fill:#4B3F4E;" d="M247.509,432.417c-3.518-9.48-6.716-19.959-9.542-31.337c-12.55,1.549-23.939,4.904-33.32,10.914
		c3.475,9.871,7.308,18.737,11.447,26.431C225.47,434.832,236.126,433.017,247.509,432.417z"/>
</g>
<g>
</g>
<g>
</g>
<g>
</g>
<g>
</g>
<g>
</g>
<g>
</g>
<g>
</g>
<g>
</g>
<g>
</g>
<g>
</g>
<g>
</g>
<g>
</g>
<g>
</g>
<g>
</g>
<g>
</g>
</svg>
