<?xml version="1.0" encoding="iso-8859-1"?>
<!-- Generator: Adobe Illustrator 19.0.0, SVG Export Plug-In . SVG Version: 6.00 Build 0)  -->
<svg version="1.1" id="Capa_1" xmlns="http://www.w3.org/2000/svg" xmlns:xlink="http://www.w3.org/1999/xlink" x="0px" y="0px"
	 viewBox="0 0 512 512" style="enable-background:new 0 0 512 512;" xml:space="preserve">
<g>
	<path style="fill:#4B3F4E;" d="M271.998,52.709c5.603-4.577,11.541-9.438,17.34-14.185c16.449-13.465,30.652-25.098,33.848-27.492
		c9.383-7.031,15.07-7.031,28.813-7.031c4.418,0,8,3.582,8,8s-3.582,8-8,8c-13.105,0-14.219,0.09-19.215,3.836
		c-2.918,2.188-18.371,14.836-33.313,27.07c-9.49,7.77-19.366,15.854-27.473,22.445V52.709z"/>
	<path style="fill:#4B3F4E;" d="M351.998,116.001h55.766c7.73,0,15.031-3.758,19.527-10.047l35.219-49.305
		c2.566-3.594,1.734-8.59-1.863-11.16c-3.578-2.563-8.586-1.738-11.16,1.863l-35.215,49.301c-1.496,2.094-3.93,3.348-6.508,3.348
		h-55.766c-4.418,0-8,3.582-8,8C343.998,112.419,347.58,116.001,351.998,116.001z"/>
	<path style="fill:#4B3F4E;" d="M503.989,323.999c2.938,0.004,5.762-1.617,7.164-4.422c1.977-3.953,0.375-8.758-3.578-10.734
		l-25.188-12.594c-2.164-1.082-3.707-3.059-4.234-5.422l-11.563-52.035c-2.461-11.066-12.098-18.793-23.43-18.793h-27.163
		c-4.418,0-8,3.582-8,8s3.582,8,8,8h27.164c3.777,0,6.992,2.578,7.813,6.266l11.563,52.035c1.578,7.086,6.203,13.012,12.691,16.258
		l25.191,12.598C501.567,323.73,502.79,323.999,503.989,323.999z"/>
	<path style="fill:#4B3F4E;" d="M440.005,475.998c4.094,0,7.582-3.121,7.961-7.277l7.246-79.711
		c0.707-7.785-2.434-15.445-8.398-20.496l-33.852-26.789c-3.465-2.746-8.5-2.164-11.238,1.309
		c-2.742,3.465-2.156,8.496,1.309,11.238l33.648,26.625c1.785,1.516,2.832,4.07,2.594,6.664l-7.246,79.715
		c-0.398,4.398,2.844,8.289,7.246,8.691C439.52,475.987,439.763,475.998,440.005,475.998z"/>
	<path style="fill:#4B3F4E;" d="M240.002,52.709c-5.603-4.577-11.541-9.438-17.34-14.185
		c-16.449-13.465-30.652-25.098-33.848-27.492c-9.383-7.031-15.07-7.031-28.813-7.031c-4.418,0-8,3.582-8,8s3.582,8,8,8
		c13.105,0,14.219,0.09,19.215,3.836c2.918,2.188,18.371,14.836,33.313,27.07c9.49,7.77,19.366,15.854,27.473,22.445L240.002,52.709
		L240.002,52.709z"/>
	<path style="fill:#4B3F4E;" d="M160.002,116.001h-55.766c-7.73,0-15.031-3.758-19.527-10.047L49.491,56.649
		c-2.566-3.594-1.734-8.59,1.863-11.16c3.578-2.563,8.586-1.738,11.16,1.863l35.216,49.301c1.496,2.094,3.93,3.348,6.508,3.348
		h55.766c4.418,0,8,3.582,8,8C168.003,112.419,164.42,116.001,160.002,116.001z"/>
	<path style="fill:#4B3F4E;" d="M8.011,323.999c-2.938,0.004-5.762-1.617-7.164-4.422c-1.977-3.953-0.375-8.758,3.578-10.734
		l25.188-12.594c2.164-1.082,3.707-3.059,4.234-5.422l11.563-52.035c2.461-11.066,12.098-18.793,23.43-18.793h27.164
		c4.418,0,8,3.582,8,8s-3.582,8-8,8H68.839c-3.777,0-6.992,2.578-7.813,6.266L49.463,294.3c-1.578,7.086-6.203,13.012-12.691,16.258
		l-25.191,12.598C10.433,323.73,9.21,323.999,8.011,323.999z"/>
	<path style="fill:#4B3F4E;" d="M71.995,475.998c-4.094,0-7.582-3.121-7.961-7.277l-7.246-79.711
		c-0.707-7.785,2.434-15.445,8.398-20.496l33.852-26.789c3.465-2.746,8.5-2.164,11.238,1.309c2.742,3.465,2.156,8.496-1.309,11.238
		l-33.648,26.625c-1.785,1.516-2.832,4.07-2.594,6.664l7.246,79.715c0.398,4.398-2.844,8.289-7.246,8.691
		C72.48,475.987,72.237,475.998,71.995,475.998z"/>
</g>
<path style="fill:#E6646E;" d="M404.399,157.476c-5.331-10.806-16.522-17.475-28.571-17.475H136.175
	c-12.049,0-23.24,6.669-28.571,17.475C90.145,192.862,80.002,234.886,80.002,280c0,125.92,78.798,227.999,175.999,227.999
	S432,405.92,432,280C432,234.885,421.858,192.861,404.399,157.476z"/>
<path style="fill:#4B3F4E;" d="M248.002,140.001v335.998c0,4.418,3.582,8,8,8c4.418,0,8-3.582,8-8V140.001L248.002,140.001
	L248.002,140.001z"/>
<path style="fill:#DC4655;" d="M182.961,140.001h-46.786c-12.049,0-23.24,6.669-28.571,17.475
	c-17.364,35.193-27.471,76.957-27.581,121.79c0.024,7.31,0.28,14.54,0.75,21.68c0.042,0.592,0.06,1.193,0.104,1.785
	c0.052,0.732,0.135,1.45,0.191,2.18c9.583,114.196,84.232,203.088,174.934,203.088c1.188,0,2.359-0.086,3.542-0.116
	c-60.456-27.125-104.995-119.693-104.995-229.796c0-47.076,8.162-90.926,22.212-127.851
	C178.285,146.229,180.426,142.799,182.961,140.001z"/>
<path style="fill:#5D5360;" d="M256.001,44.001c66.274,0,119.999,37.608,119.999,83.999c0,36-53.726,44-119.999,44
	s-119.999-8-119.999-44C136.002,81.609,189.728,44.001,256.001,44.001z"/>
<path style="fill:#4B3F4E;" d="M192.002,133.25c0-44.87,35.653-81.898,82.036-88.199c-5.898-0.624-11.889-1.05-18.036-1.05
	c-66.274,0-119.999,37.608-119.999,84c0,29.241,35.445,40.008,84.268,43.021C202.814,164.122,192.002,152.428,192.002,133.25z"/>
<g>
	<path style="fill:#EDEBED;" d="M324.001,100.001c13.663,0,25.005-9.797,27.47-22.743c-12.066-11.106-27.938-20.042-46.325-25.834
		c-5.584,5.119-9.145,12.405-9.145,20.578C296.001,87.464,308.537,100.001,324.001,100.001z"/>
	<path style="fill:#EDEBED;" d="M188.002,100.001c15.464,0,28-12.536,28-28c0-8.172-3.561-15.459-9.145-20.578
		c-18.387,5.792-34.259,14.729-46.325,25.834C162.997,90.203,174.339,100.001,188.002,100.001z"/>
</g>
<circle style="fill:#5D5360;" cx="187.999" cy="327.998" r="28"/>
<g>
	<path style="fill:#4B3F4E;" d="M128.949,437.683c8.212,11.102,17.269,21.137,27.06,29.912
		c11.337-1.916,19.994-11.714,19.994-23.596c0-13.255-10.745-24-24-24C140.948,419.998,131.735,427.513,128.949,437.683z"/>
	<circle style="fill:#4B3F4E;" cx="115.999" cy="239.998" r="20"/>
</g>
<g>
	<circle style="fill:#5D5360;" cx="323.998" cy="327.998" r="28"/>
	<path style="fill:#5D5360;" d="M383.054,437.683c-8.212,11.102-17.269,21.137-27.06,29.912
		C344.657,465.679,336,455.881,336,443.999c0-13.255,10.745-24,24-24C371.055,419.998,380.268,427.513,383.054,437.683z"/>
	<circle style="fill:#5D5360;" cx="395.998" cy="239.998" r="20"/>
</g>
<g>
</g>
<g>
</g>
<g>
</g>
<g>
</g>
<g>
</g>
<g>
</g>
<g>
</g>
<g>
</g>
<g>
</g>
<g>
</g>
<g>
</g>
<g>
</g>
<g>
</g>
<g>
</g>
<g>
</g>
</svg>
