<?xml version="1.0" encoding="iso-8859-1"?>
<!-- Generator: Adobe Illustrator 19.0.0, SVG Export Plug-In . SVG Version: 6.00 Build 0)  -->
<svg version="1.1" id="Capa_1" xmlns="http://www.w3.org/2000/svg" xmlns:xlink="http://www.w3.org/1999/xlink" x="0px" y="0px"
	 viewBox="0 0 511.999 511.999" style="enable-background:new 0 0 511.999 511.999;" xml:space="preserve">
<path style="fill:#965A50;" d="M290.247,270.15l69.75-36l8-143.999c0,0,48-40,135.999-64c0,0-24,64,0,143.999c0,0-56,56-56,135.999
	c0,0-64.608,15.678-144.479,131.381"/>
<g>
	<path style="fill:#824D51;" d="M196.654,115.389c-6.746-7.243-18.932-3.078-19.702,6.79c-1.485,19.03-4.353,47.972,19.647,79.972
		l50-34L196.654,115.389z"/>
	<path style="fill:#824D51;" d="M315.345,115.389c6.746-7.243,18.932-3.078,19.702,6.79c1.485,19.03,4.353,47.972-19.647,79.972
		l-50-34L315.345,115.389z"/>
</g>
<path style="fill:#965A50;" d="M221.75,270.15l-69.75-36l-8-143.999c0,0-48-40-135.999-64c0,0,24,64,0,143.999c0,0,56,56,56,135.999
	c0,0,64.608,15.678,144.479,131.381"/>
<path style="fill:#824D51;" d="M387.245,86.198c19.929-13.175,60.504-36.413,118.852-52.328c4.266-1.164,6.781-5.563,5.617-9.824
	c-1.164-4.27-5.602-6.754-9.82-5.613c-88.663,24.18-137.007,63.895-139.022,65.574c-1.703,1.418-2.742,3.484-2.859,5.699
	l-7.75,139.433l-52.097,26.888l-88.332,0.001l-52.099-26.889l-7.75-139.433c-0.117-2.215-1.156-4.281-2.859-5.699
	c-2.016-1.68-50.359-41.395-139.022-65.574c-4.219-1.141-8.656,1.344-9.82,5.613c-1.164,4.262,1.352,8.66,5.617,9.824
	c58.347,15.915,98.921,39.153,118.85,52.328C39.399,106.888,2.821,163.349,1.22,165.912c-2.344,3.738-1.203,8.66,2.531,11.008
	c1.32,0.828,2.789,1.223,4.242,1.223c2.656,0,5.258-1.324,6.781-3.738c0.354-0.564,34.097-52.564,111.417-72.269
	c-20.997,32.906-63.979,110.594-70.176,203.483c-0.289,4.406,3.047,8.219,7.453,8.512c0.18,0.016,0.359,0.02,0.539,0.02
	c4.172,0,7.695-3.242,7.977-7.469c5.668-84.999,44.599-158.343,65.364-191.99l6.667,119.904c0.157,2.831,1.801,5.368,4.321,6.668
	l35.107,18.12c10.971,5.662,15.686,18.647,11.29,30.184C188.827,305.07,184,324.388,184,346.151
	c0,75.031,43.983,125.627,63.196,144.15c4.898,4.722,12.71,4.722,17.608,0c19.213-18.523,63.196-69.12,63.196-144.15
	c0-21.764-4.828-41.082-10.734-56.584c-4.395-11.537,0.319-24.522,11.29-30.184l35.104-18.118c2.52-1.301,4.163-3.837,4.321-6.668
	l6.667-119.904c20.766,33.647,59.696,106.991,65.364,191.99c0.281,4.227,3.805,7.469,7.977,7.469c0.18,0,0.359-0.004,0.539-0.02
	c4.406-0.293,7.742-4.105,7.453-8.512c-6.196-92.888-49.179-170.577-70.176-203.483c77.321,19.705,111.062,71.705,111.417,72.269
	c1.523,2.414,4.125,3.738,6.781,3.738c1.453,0,2.922-0.395,4.242-1.223c3.734-2.348,4.875-7.27,2.531-11.008
	C509.175,163.349,472.598,106.888,387.245,86.198z"/>
<path style="fill:#965A50;" d="M256,154.151c39.765,0,72,20.654,72,56s-41.072,72-72,72s-72-36.654-72-72
	S216.236,154.151,256,154.151z"/>
<g>
	<path style="fill:#FFFFFF;" d="M216,226.15c-4.422,0-8-3.582-8-8v-8c0-4.418,3.578-8,8-8s8,3.582,8,8v8
		C224,222.568,220.422,226.15,216,226.15z"/>
	<path style="fill:#FFFFFF;" d="M296,226.15c-4.422,0-8-3.582-8-8v-8c0-4.418,3.578-8,8-8s8,3.582,8,8v8
		C304,222.568,300.422,226.15,296,226.15z"/>
</g>
<ellipse style="fill:#AF6E5A;" cx="255.997" cy="246.147" rx="24" ry="28"/>
<path style="fill:#64464B;" d="M247.196,490.301c4.898,4.722,12.71,4.722,17.608,0c7.51-7.24,18.799-19.445,29.771-36.03
	c-81.975-8.233-109.895-137.983-99.841-164.703C188.827,305.07,184,324.388,184,346.151
	C184,421.181,227.983,471.777,247.196,490.301z"/>
<g>
</g>
<g>
</g>
<g>
</g>
<g>
</g>
<g>
</g>
<g>
</g>
<g>
</g>
<g>
</g>
<g>
</g>
<g>
</g>
<g>
</g>
<g>
</g>
<g>
</g>
<g>
</g>
<g>
</g>
</svg>
