<?xml version="1.0" encoding="iso-8859-1"?>
<!-- Generator: Adobe Illustrator 19.0.0, SVG Export Plug-In . SVG Version: 6.00 Build 0)  -->
<svg version="1.1" id="Capa_1" xmlns="http://www.w3.org/2000/svg" xmlns:xlink="http://www.w3.org/1999/xlink" x="0px" y="0px"
	 viewBox="0 0 512 512" style="enable-background:new 0 0 512 512;" xml:space="preserve">
<g>
	<path style="fill:#0096DC;" d="M318.414,372.422l-142.655,41.957c0,0,76.335,36.29,141.41,28.378
		c5.436-0.661,8.876-6.18,6.937-11.301C319.307,418.785,312.699,395.279,318.414,372.422z"/>
	<path style="fill:#0096DC;" d="M182.616,72.137l-40.423,65.324l251.744,75.523C361.009,163.592,295.779,96.03,191.976,68.393
		C188.397,67.441,184.565,68.988,182.616,72.137z"/>
</g>
<path style="fill:#87DCFF;" d="M492.652,253.067l19.151-88.43c1.724-7.961-8.299-12.982-13.582-6.782
	c-21.138,24.805-58.164,58.035-112.676,71.911l1.327,83.915c53.7,14.159,90.265,47.067,111.247,71.721
	c5.314,6.244,15.396,1.314,13.661-6.7l-19.127-88.321C490.519,278.006,490.519,265.442,492.652,253.067z"/>
<path style="fill:#00C3FF;" d="M150.584,120.678c-126.317,0-147.363,118.43-150.527,145.557c-0.405,3.473,1.366,6.822,4.504,8.363
	c8.994,4.418,30.28,12,65.605,8.315l0,0c-8.486,17.578-28.268,29.377-46.595,33.575c-4.651,1.065-7.546,5.658-6.284,10.259
	c6.938,25.303,35.11,96.024,133.297,96.024c83.421,0,285.31-67.626,285.31-151.046C435.894,188.303,234.005,120.678,150.584,120.678
	z"/>
<path style="fill:#00AAF0;" d="M167.367,338.856c-57.963,0-91.407-19.174-110.607-38.928c-9.516,8.233-21.635,13.913-33.189,16.56
	c-4.651,1.065-7.546,5.658-6.284,10.259c6.938,25.302,35.111,96.024,133.298,96.024c83.421,0,285.31-67.626,285.31-151.046
	c0-5.234-0.799-10.405-2.309-15.503C381.305,304.089,235.188,338.856,167.367,338.856z"/>
<path style="fill:#87DCFF;" d="M131.313,121.761C22.219,133.171,3.093,240.47,0.066,266.199c-0.41,3.487,1.349,6.853,4.501,8.401
	c8.26,4.056,26.878,10.777,57.205,8.999c3.601-0.211,5.966,3.956,3.83,6.863c-9.853,13.413-26.466,22.46-42.029,26.025
	c-4.703,1.077-7.524,5.76-6.24,10.41c6.534,23.659,31.486,86.272,113.884,94.853c46.799-31.011,78.108-86.51,78.108-150.026
	C209.325,208.251,178.059,152.784,131.313,121.761z"/>
<path style="fill:#00C3FF;" d="M197.588,337.111c-11.145,1.138-21.362,1.744-30.22,1.744c-57.962,0-91.407-19.173-110.606-38.927
	c-9.515,8.232-21.635,13.912-33.188,16.558c-4.703,1.077-7.524,5.759-6.24,10.41c6.534,23.659,31.486,86.273,113.884,94.854
	C160.972,402.034,184.422,372.394,197.588,337.111z"/>
<path style="fill:#87DCFF;" d="M349.183,263.333c-5.134-9.697-51.68-10.554-68.661-10.54c-3.905,0.003-7.606,1.654-10.219,4.556
	l-18.838,20.931c-4.981,5.534-4.65,13.984,0.7,19.162c17.717,17.146,43.01,35.408,56.459,30.924
	C325.407,322.772,353.707,271.879,349.183,263.333z"/>
<path style="fill:#4B3F4E;" d="M66.67,246.55L66.67,246.55c-9.269,0-16.783-7.514-16.783-16.783v-8.391
	c0-9.269,7.514-16.783,16.783-16.783l0,0c9.269,0,16.783,7.514,16.783,16.783v8.391C83.453,239.036,75.939,246.55,66.67,246.55z"/>
<circle style="fill:#FFFFFF;" cx="66.67" cy="221.37" r="8.391"/>
<path style="fill:#00AAF0;" d="M345.749,279.642c-29.526-7.777-59.275-7.918-60.901-7.918c-4.634,0-8.387,3.753-8.391,8.387
	c0,4.634,3.753,8.391,8.387,8.396c0.356,0,26.753,0.139,53.162,6.496C341.078,289.672,343.74,284.396,345.749,279.642z"/>
<g>
</g>
<g>
</g>
<g>
</g>
<g>
</g>
<g>
</g>
<g>
</g>
<g>
</g>
<g>
</g>
<g>
</g>
<g>
</g>
<g>
</g>
<g>
</g>
<g>
</g>
<g>
</g>
<g>
</g>
</svg>
