<?xml version="1.0" encoding="iso-8859-1"?>
<!-- Generator: Adobe Illustrator 19.0.0, SVG Export Plug-In . SVG Version: 6.00 Build 0)  -->
<svg version="1.1" id="Layer_1" xmlns="http://www.w3.org/2000/svg" xmlns:xlink="http://www.w3.org/1999/xlink" x="0px" y="0px"
	 viewBox="0 0 512.001 512.001" style="enable-background:new 0 0 512.001 512.001;" xml:space="preserve">
<path style="fill:#23B75F;" d="M417.776,163.168c-27.109,4.486-34.025,42.798-53.805,52.366
	c-40.502,19.59-80.947,13.44-80.947,13.44s-0.507-38.941,19.768-85.415C310.51,125.87,345.06,117,348.829,94.222
	c26.682-11.767,56.203-18.304,87.251-18.304C436.08,106.965,429.541,136.486,417.776,163.168z"/>
<g>
	<path style="fill:#A3E261;" d="M512.001,166.167c0,0-75.456,149.887-228.977,62.807c0,0,52.132-52.132,134.752-65.806
		C445.929,158.491,477.622,158.3,512.001,166.167z"/>
	<path style="fill:#A3E261;" d="M348.829,94.216c-13.675,82.627-65.809,134.761-65.809,134.761
		C196.458,76.366,344.019,0.912,345.818,0.013l0.012-0.012C353.7,34.381,353.508,66.074,348.829,94.216z"/>
</g>
<path style="fill:#93CC52;" d="M283.02,228.979C196.458,76.367,344.019,0.913,345.818,0.014
	C344.703,1.896,265.866,136.13,283.02,228.979z"/>
<path style="fill:#F94848;" d="M295.022,216.978c0,0,86.812,48.676,59.119,172.114C327.383,508.365,51.49,532.77,15.36,496.64
	c-36.13-36.13-11.725-312.023,107.548-338.781C246.346,130.166,295.022,216.978,295.022,216.978z"/>
<g>
	<path style="fill:#E23D3D;" d="M122.907,157.861C4.551,184.413-20.383,456.273,14.536,495.756c0.268,0.307,0.542,0.601,0.825,0.884
		c12.975,12.975,56.874,18.143,109.05,13.913c-21.357-2.213-37.294-6.932-44.276-13.913c-18.283-18.283-21.062-97.958-3.895-175.679
		c28.197-47.337,63.422-90.505,100.754-109.012c61.735-30.611,92.099-21.919,106.371-10.552
		C262.48,177.797,212.312,137.801,122.907,157.861z"/>
	<circle style="fill:#E23D3D;" cx="244.92" cy="321.993" r="22.352"/>
	<circle style="fill:#E23D3D;" cx="211.919" cy="406.876" r="22.352"/>
	<circle style="fill:#E23D3D;" cx="74.795" cy="387.095" r="22.352"/>
	<circle style="fill:#E23D3D;" cx="157.566" cy="356.506" r="22.352"/>
	<circle style="fill:#E23D3D;" cx="303.304" cy="372.7" r="22.352"/>
	<circle style="fill:#E23D3D;" cx="107.184" cy="300.725" r="22.352"/>
	<circle style="fill:#E23D3D;" cx="192.978" cy="263.058" r="22.352"/>
	<circle style="fill:#E23D3D;" cx="128.776" cy="441.064" r="22.352"/>
</g>
<g>
	<path style="fill:#FFD41D;" d="M135.102,221.168c-2.302,0-4.605-0.878-6.361-2.635c-3.514-3.514-3.514-9.21,0-12.723l14.233-14.232
		c3.514-3.514,9.21-3.514,12.723,0c3.514,3.514,3.514,9.21,0,12.723l-14.233,14.232C139.707,220.29,137.404,221.168,135.102,221.168
		z"/>
	<path style="fill:#FFD41D;" d="M190.01,276.078c-2.302,0-4.605-0.878-6.361-2.635c-3.514-3.514-3.514-9.21,0-12.723l14.233-14.233
		c3.514-3.514,9.21-3.514,12.723,0c3.514,3.514,3.514,9.21,0,12.723l-14.232,14.233C194.615,275.199,192.313,276.078,190.01,276.078
		z"/>
	<path style="fill:#FFD41D;" d="M299.829,385.895c-2.303,0-4.605-0.878-6.363-2.635c-3.514-3.514-3.514-9.21,0.001-12.723
		l14.233-14.233c3.514-3.514,9.21-3.514,12.723,0c3.512,3.514,3.514,9.21-0.001,12.723l-14.233,14.233
		C304.434,385.017,302.131,385.895,299.829,385.895z"/>
	<path style="fill:#FFD41D;" d="M244.92,330.987c-2.302,0-4.605-0.878-6.361-2.635c-3.514-3.514-3.514-9.209,0-12.723l14.232-14.233
		c3.514-3.514,9.209-3.515,12.723,0c3.514,3.514,3.514,9.209,0,12.723l-14.232,14.233
		C249.525,330.109,247.222,330.987,244.92,330.987z"/>
	<path style="fill:#FFD41D;" d="M101.356,309.824c-2.302,0-4.605-0.878-6.361-2.635c-3.514-3.514-3.514-9.21,0-12.723l14.233-14.233
		c3.514-3.514,9.21-3.514,12.723,0c3.514,3.514,3.514,9.21,0,12.723l-14.233,14.233
		C105.961,308.946,103.658,309.824,101.356,309.824z"/>
	<path style="fill:#FFD41D;" d="M211.174,419.642c-2.302,0-4.605-0.878-6.361-2.635c-3.514-3.514-3.514-9.209,0-12.723
		l14.232-14.233c3.514-3.514,9.21-3.515,12.723,0c3.514,3.514,3.514,9.209,0,12.723l-14.232,14.233
		C215.778,418.763,213.476,419.642,211.174,419.642z"/>
	<path style="fill:#FFD41D;" d="M156.265,364.732c-2.302,0-4.605-0.878-6.361-2.635c-3.514-3.514-3.514-9.21,0-12.723l14.233-14.233
		c3.514-3.514,9.21-3.514,12.723,0c3.514,3.514,3.514,9.21,0,12.723l-14.233,14.233C160.87,363.854,158.568,364.732,156.265,364.732
		z"/>
	<path style="fill:#FFD41D;" d="M122.519,453.388c-2.302,0-4.605-0.878-6.361-2.635c-3.514-3.514-3.514-9.21,0-12.723l14.233-14.233
		c3.514-3.514,9.21-3.514,12.723,0c3.514,3.514,3.514,9.21,0,12.723l-14.233,14.233C127.124,452.51,124.821,453.388,122.519,453.388
		z"/>
	<path style="fill:#FFD41D;" d="M67.609,398.479c-2.302,0-4.605-0.878-6.361-2.635c-3.514-3.514-3.514-9.21,0-12.723l14.233-14.233
		c3.514-3.514,9.21-3.514,12.723,0c3.514,3.514,3.514,9.21,0,12.723l-14.233,14.233C72.214,397.6,69.912,398.479,67.609,398.479z"/>
</g>
<g>
</g>
<g>
</g>
<g>
</g>
<g>
</g>
<g>
</g>
<g>
</g>
<g>
</g>
<g>
</g>
<g>
</g>
<g>
</g>
<g>
</g>
<g>
</g>
<g>
</g>
<g>
</g>
<g>
</g>
</svg>
